..sfdir
StartChar: NameMe.65536
Encoding: 65536 -1 0
Width: 1000
Flags: HO
LayerCount: 2
Fore
SplineSet
457.021499999 133.306583832 m 0
 456.595314258 132.521826626 420.131070483 68.3232595616 413.256909972 55.4641645705 c 1
 480.649613913 66.668265325 546.253420016 68.1782444656 631.907699173 69.9570229835 c 1
 706.683209735 80.801373248 787.624921218 78.4653072927 861.82945652 83.98011105 c 1
 849.492503471 107.753116416 843.95582791 118.422154167 833.542939051 131.299303338 c 0
 824.906244548 141.979913203 720.622762715 331.340692597 629.584569577 465.969497129 c 1
 626.672246124 461.391230829 626.200000002 460.64884471 623.725778755 458.41840849 c 0
 535.963186049 379.303064294 537.880589962 238.215948174 457.021499999 133.306583832 c 0
370 -3.99509776351 m 0
 356.187031342 -3.99509776351 345.004902236 7.18716402497 345.004902236 21 c 0
 345.004902236 23.3839444608 345.343365342 25.7678889215 346.020291553 28.0731910376 c 0
 354.082000686 55.5276976367 375.011336085 90.5042311719 393.745627137 123.032306861 c 0
 393.971961903 123.425288607 415.602986946 161.504183009 416.289467762 162.381970561 c 0
 491.154323676 258.109975154 488.843997914 401.480254151 587.583993817 493.120836333 c 0
 591.725609165 499.615593817 594.732980084 503.581645931 598.827494962 510.273410093 c 1
 546.461873513 583.652079851 495.829492582 643.877340926 444.473911909 694.944948281 c 1
 391.173408859 601.534424147 348.996891563 500.833939784 306.578648201 399.361676206 c 0
 306.067325705 398.138498465 263.391082355 296.070587984 254.639330714 277.38441556 c 2
 143.639330714 40.3844155599 l 1
 143.639330714 40.3844155599 98.3606677952 61.5908779394 98.3606692864 61.6155844401 c 2
 209.241854144 298.361898055 l 2
 226.725695284 338.002702322 243.552565088 378.251563512 260.45433941 418.683725785 c 0
 307.001848307 530.033954302 354.062634285 642.845167879 417.596738565 747.927930716 c 0
 419.148982825 750.495278085 425.785566596 759.995097764 439 759.995097764 c 0
 445.151234985 759.995097764 451.30246997 757.741669672 456.102706019 753.234813488 c 0
 605.103185498 613.340915491 707.521624847 445.055781947 831.595746706 232.840275251 c 0
 845.706905028 208.704644682 859.688436197 184.790987556 873.631979832 161.232782543 c 0
 897.868408413 130.640934967 906.720717925 99.8943055474 923.636716092 78.4758942761 c 0
 927.20897054 73.9528378075 928.995097764 68.4764189038 928.995097764 63 c 0
 928.995097764 50.3482507916 919.58140765 39.7646099559 907.13761009 38.2011676909 c 0
 818.951003807 27.1213773932 722.265871535 32.7649417948 637.675612757 20.2746753136 c 0
 621.178437452 17.8387669866 480.148665629 23.0287703632 376.150781905 -3.2314886518 c 0
 374.134713149 -3.74056139294 372.067356574 -3.99509776351 370 -3.99509776351 c 0
EndSplineSet
EndChar
StartChar: NameMe.65538
Encoding: 65538 -1 2
Width: 1000
Flags: HW
LayerCount: 2
Fore
SplineSet
312.04983268 64.5535949397 m 0
 394.835678569 64.5535949397 484.551421486 80.8479240046 572.9843839 80.8479240046 c 0
 589.306519441 80.8479240046 605.663855287 80.2986899651 622.014394058 78.9950977635 c 1
 623.203502155 78.9950977635 l 1
 576.398411976 157.415768266 526.574918923 235.689139357 474.638455891 313.219743873 c 1
 444.441739459 248.459676954 400.4847696 191.531061217 358.618329283 136.843271314 c 0
 339.950227083 112.458173292 321.629446916 88.4988219984 304.901877921 64.5956168205 c 1
 307.276540584 64.5673409942 309.659267538 64.5535949397 312.04983268 64.5535949397 c 0
739.755719204 716.304445612 m 1
 730.456166743 716.329485406 709.104549987 708.219986101 690.850318978 708.219986101 c 0
 683.12290829 708.219986101 672.754325802 709.627866668 663.577234098 716.363296459 c 1
 661.096738458 716.570022263 658.460256901 716.666901058 655.688802911 716.666901058 c 0
 621.213537336 716.666901058 564.308600481 701.004902236 545 701.004902236 c 0
 543.851687199 701.004902236 527.2530569 701.30079033 511.5276606 701.30079033 c 0
 477.644907323 701.30079033 451.604582508 701.30079033 401.871039107 691.480817068 c 0
 358.789360479 682.974265891 315.057388541 681.994941629 276.612401059 676.013093796 c 1
 424.595839831 480.815245593 567.319890536 274.26298975 688.596093396 66.6034432676 c 0
 690.862096308 62.7233981646 691.995097764 58.3616990823 691.995097764 54 c 0
 691.995097764 40.1870313421 680.812835975 29.0049022365 667 29.0049022365 c 2
 621 29.0049022365 l 2
 618.006482577 29.0049022365 602.356394007 30.8251421899 573.581674955 30.8251421899 c 0
 487.27829932 30.8251421899 397.970650275 14.5533632372 312.49764833 14.5533632372 c 0
 304.608696723 14.5533632372 296.734185245 14.6905509037 288.878716358 14.9905239602 c 0
 288.819727255 14.9905239602 288.760217154 14.9851924263 288.70019852 14.9851924263 c 0
 286.842045701 14.9296673393 284.603266378 14.8302505857 282.036435619 14.8302505857 c 0
 261.015119332 14.8302505857 253.418990551 21.2919326538 248.896734185 25.8141890204 c 0
 242.729915663 31.9810075427 239.905681037 40.8191415135 239.905681037 48.811913116 c 0
 239.905681037 55.4984983403 241.807224976 60.1433495355 243.924832843 63.4555491182 c 0
 307.312062617 162.600985459 400.410283064 254.584904784 441.218918656 362.586669571 c 1
 368.073663466 469.528223872 291.242164248 574.800881962 213.132394553 676.821015367 c 0
 209.714066342 681.285735996 208.004902236 686.642867998 208.004902236 692 c 0
 208.004902236 692.809599282 208.204914639 710.65430443 225.775364406 715.934717296 c 0
 280.292933604 732.318775623 336.8766965 729.654417277 391.866499438 740.467466571 c 0
 432.781355595 749.459834763 470.463468818 751.302797853 510.985066087 751.302797853 c 0
 521.758093128 751.302797853 532.731817602 751.172535468 544.020343698 751.011724897 c 0
 574.884546947 754.009038422 616.179578913 766.94306989 653.355909884 766.94306989 c 0
 662.229459019 766.94306989 671.100839685 766.240009886 679.841657421 764.524966165 c 0
 684.28555408 763.653025199 688.53769228 761.568209395 692.06459781 758.270518753 c 0
 703.483596551 758.893671655 721.010392828 766.316671335 739.178076898 766.316671335 c 0
 744.434830099 766.316671335 761.061291617 765.953288098 772.543194779 751.593578737 c 1
 733.491256179 720.367976184 l 1
 735.056769743 718.490825216 737.702645779 717.694036719 739.755719204 716.304445612 c 1
EndSplineSet
EndChar
StartChar: NameMe.65547
Encoding: 65547 -1 1
Width: 1000
Flags: HW
LayerCount: 2
Fore
SplineSet
427.596151961 -102.873768165 m 4
 389.779468282 -102.873768165 353.138612741 -125.730538387 345.612487023 -168.371962719 c 5
 345.612487023 -168.371962719 296.377959109 -159.682167466 296.387512977 -159.628037281 c 4
 307.819211251 -94.8584712184 363.427971715 -52.8824965963 427.549968361 -52.8824965963 c 4
 429.19952111 -52.8824965963 430.852431027 -52.9104168298 432.507959406 -52.9664281243 c 4
 434.363177239 -52.83949091 436.190388279 -52.7778623173 437.989202433 -52.7778623173 c 4
 480.357612839 -52.7778623173 501.448149402 -83.9291767625 516.733337162 -106.50582809 c 4
 531.6695121 -128.566977683 539.398519397 -138.04834047 553.117229355 -138.04834047 c 4
 564.331744132 -138.04834047 570.538999821 -133.004902236 579 -133.004902236 c 4
 582.079628349 -133.004902236 583.377544822 -133.564932407 587.729168479 -133.564932407 c 4
 603.392020214 -133.564932407 618.745229273 -125.007785077 637.88780229 -109.679789115 c 5
 684.619178838 -59.054131188 l 5
 721.380821162 -92.945868812 l 5
 672.135448863 -146.295022136 672.135448863 -146.295022136 670.715950197 -147.444716548 c 4
 649.723355353 -164.447246783 622.724838314 -183.581690821 588.060283317 -183.581690821 c 4
 586.008963685 -183.581690821 583.930798869 -183.514685196 581.825444851 -183.376267015 c 4
 571.830961615 -186.396928139 562.138422506 -187.941470393 552.89396868 -187.941470393 c 4
 511.477288616 -187.941470393 490.962971335 -157.641248 475.301303791 -134.508525465 c 4
 458.847103235 -110.205209429 451.656875357 -102.705510056 439.146771053 -102.705510056 c 4
 436.298741369 -102.705510056 435.162833171 -102.995097764 433 -102.995097764 c 4
 432.945947901 -102.995097764 429.393980972 -102.873768165 427.596151961 -102.873768165 c 4
308.004902236 578 m 0
 308.004902236 578.940720465 308.121610653 581.215211808 308.121610653 585.435974879 c 0
 308.121610653 599.929098747 306.140847368 659.076767059 274.617356418 682.478619249 c 1
 266.425841744 681.179837325 266.425841744 681.179837325 266.204951435 681.153659805 c 0
 153.663962724 584.324818595 148.886295622 393.451102027 145.196867372 231.373562494 c 0
 144.43082206 197.720993365 144.03775421 183.203668866 143.87499691 181.543544408 c 2
 133.87499691 79.5435444079 l 1
 133.87499691 79.5435444079 84.1215596373 84.4213323758 84.1250030898 84.4564555921 c 0
 94.041971199 185.609530306 94.041971199 185.609530306 94.041971199 185.609530306 c 1
 94.4968460529 200.775142362 94.8540346363 216.455372465 95.2197173399 232.519908439 c 0
 99.1381850487 404.659210765 103.937398329 615.489894384 241.394788076 725.533887302 c 0
 245.942567638 729.174694202 251.471283807 730.995097679 256.999999977 730.995097679 c 0
 258.056366424 730.995097679 259.11273287 730.928639527 260.162256864 730.795723222 c 0
 260.976540193 730.905513342 262.446049558 731.128465874 264.251692476 731.437802562 c 0
 267.717033799 732.031473214 272.404068886 733.0816404 278.668392472 733.0816404 c 0
 283.280109499 733.0816404 287.8918824 732.714314255 292.941610878 729.969134137 c 0
 312.904102246 719.116939876 335.481168065 697.642571968 348.417751806 655.181792869 c 0
 355.458703967 632.07180337 358.119874469 607.927628799 358.119874469 585.885581077 c 0
 358.119874469 583.425071484 358.086714131 580.990756093 358.022784 578.586997436 c 0
 360.986278502 538.416406495 357.558514438 482.556814719 366.108293373 440.458692004 c 0
 374.557131594 398.857589692 391.429552384 388.565141713 398.915159493 384.767339585 c 0
 399.55639931 384.75475763 400.193845931 384.74849009 400.827555078 384.74849009 c 0
 426.039880781 384.74849009 445.336261323 394.669205001 462.225722843 411.558666521 c 0
 492.027017989 441.359961667 511.3567605 494.43626707 520.518230084 539.056820074 c 0
 520.675915974 539.824822583 520.869930753 540.586823337 521.10027442 541.340056873 c 0
 533.659923401 582.410641439 545.288065321 628.560951801 547.67144562 674.601056334 c 0
 547.378771596 678.840765407 547.216680696 682.981263709 547.216680696 687.032881073 c 0
 547.216680696 706.800771338 550.154132623 712.509471682 555.32233047 717.67766953 c 0
 560.20061596 722.555955019 566.60030798 724.995097764 573 724.995097764 c 0
 586.562751807 724.995097764 597.631460529 714.203623669 597.986450947 700.659915844 c 0
 598.068984224 697.511076433 598.109197687 694.368628576 598.109197687 691.233523117 c 0
 598.109197687 686.144292029 598.003230475 681.074409025 597.800306181 676.027941437 c 0
 602.601014099 611.917617583 640.97452375 495.410081763 640.97452375 400.825184229 c 0
 640.97452375 400.355395854 640.653920879 367.747225388 637.267304516 353.992848189 c 0
 635.426612769 346.517077127 634.744532597 334.68105991 634.744532597 320.357167953 c 0
 634.744532597 288.738730637 637.746034558 257.581157027 637.746034558 225.822428292 c 0
 637.746034558 168.278076807 627.517643582 137.140099366 607.579748947 117.20220473 c 0
 593.13090309 102.753359148 573.780786529 95.9084924219 551.524126162 95.9084924219 c 0
 543.181842825 95.9084924219 534.431214953 96.8701376296 525.377283403 98.7534537564 c 1
 512.565674846 97.6529594078 500.081252105 97.2019838036 487.862576728 97.2019838036 c 0
 431.18139916 97.2019838036 380.405334958 106.825168331 324.918355251 107.005034566 c 0
 321.928229618 107.014727338 320.573382193 107.54215527 317.295425636 107.54215527 c 0
 309.936503901 107.54215527 302.642026074 103.856044152 290.645299107 103.058691461 c 1
 287.330000685 152.93966686 l 1
 292.283546493 153.268900249 302.938493485 157.446503536 318.018753043 157.446503536 c 0
 320.731486506 157.446503536 323.581870325 157.310259694 326.548601983 156.988217035 c 0
 384.152853604 156.645225222 434.736480608 147.212999013 488.179997381 147.212999013 c 0
 508.571572381 147.212999013 526.611391138 148.995097764 527 148.995097764 c 0
 533.164172826 148.995097764 540.80005828 145.607352851 552.59552224 145.607352851 c 0
 570.06413308 145.607352851 587.667168308 153.4414226 587.667168308 225.594329343 c 0
 587.667168308 241.429895655 586.906261567 258.393635633 586.095067769 275.148310704 c 0
 585.319872474 291.159456752 584.369606472 306.92037085 584.369606472 321.952654166 c 0
 584.369606472 362.425845074 590.751404987 358.910614541 590.751404987 398.243186711 c 0
 590.751404987 439.822591416 582.157315018 489.981954055 572.380317794 538.239593573 c 1
 571.33830808 534.706916887 570.290162827 531.219070396 569.241255612 527.778479752 c 0
 559.078058051 478.843985065 539.031181717 417.653447277 497.581061902 376.203327462 c 0
 473.13282401 351.755089569 440.319229586 334.773610573 400.37370356 334.773610573 c 0
 388.838456061 334.773610573 386.186581982 335.769234569 383.492901203 336.874105754 c 0
 311.987550098 366.203565503 310.638488665 458.580959489 309.588060989 530.509315691 c 0
 309.012533085 569.918764808 308.004902236 577.524829348 308.004902236 578 c 0
EndSplineSet
EndChar
StartChar: NameMe.65548
Encoding: 65548 -1 2
Width: 1000
Flags: H
LayerCount: 2
Fore
SplineSet
595.871142268 249.899814692 m 1
 595.502914139 249.581862823 566.988257916 225.004902236 551 225.004902236 c 0
 547.020505754 225.004902236 494.878557413 234.33588886 451.283688638 277.930757635 c 0
 396.850476819 332.363969455 378.774690242 413.530821631 365.413600636 488.82267752 c 1
 349.342472832 484.096839685 332.796825067 480.95512378 314.606796059 480.95512378 c 0
 295.263782496 480.95512378 249.997487533 488.231291187 229.403400767 494.88797838 c 0
 203.857443028 503.145273382 171.864787847 521.640475454 171.864787847 562.486975605 c 0
 171.864787847 635.838046533 230.946456667 692.09144099 327.733968673 696.963256794 c 0
 328.155687979 696.984484107 328.57784399 696.995097764 329 696.995097764 c 2
 356.41159387 696.995097764 l 1
 377.425074462 704.080723492 401.738371461 699.671331111 412.844351883 705.85140741 c 0
 415.584659316 707.376289354 418.551766539 708.346425598 421.580655914 708.761816141 c 2
 421.580655914 708.761816141 771.580655914 756.761816141 771.626666288 756.768126135 c 2
 778.419344086 707.238183859 l 1
 432.56505546 659.806738562 l 1
 408.361319328 648.537907292 381.574237537 653.635915864 370.905267507 649.04148192 c 0
 367.75243695 647.683762131 364.376218475 647.004902236 361 647.004902236 c 2
 329.653572051 647.004902236 l 1
 309.985443574 645.949849415 221.806575269 637.008162158 221.806575269 561.483688119 c 0
 221.806575269 544.540216659 256.877798133 538.53482443 282.990581046 534.59018069 c 0
 308.260927733 530.772797196 308.260927733 530.772797196 315.843493595 530.772797196 c 0
 348.823876879 530.772797196 372.624552957 546.995097764 385 546.995097764 c 0
 397.230000529 546.995097764 407.552537669 538.193563316 409.621905538 526.318258572 c 0
 429.342227803 413.150928559 447.687048868 307.877069868 548.021034926 276.800537747 c 1
 555.875015808 281.485649836 562.835577137 286.977500592 568.988623397 293.130546852 c 0
 592.690913094 316.832836549 605.344796036 351.849476981 606.004902236 388.220435454 c 2
 606.004902236 444 l 2
 606.004902236 444.770981742 609.867930141 483.636353802 616.391645839 520.395314149 c 0
 618.49271381 532.234130837 628.798843139 540.995097764 641 540.995097764 c 0
 652.152619617 540.995097764 661.720056655 533.675490636 664.887392957 523.380263848 c 0
 667.930546094 513.488686603 668.689567594 503.925288872 668.689567594 494.976992974 c 0
 668.689567594 485.63467587 667.721649496 473.829908722 667.721649496 462.8399656 c 0
 667.721649496 456.257380786 668.114854967 457.176788848 668.114854967 443.459091917 c 0
 668.114854967 364.71375905 648.727222912 285.381920748 641.907365183 211.889023754 c 0
 640.23918279 189.77340688 639.95269261 167.244642029 639.95269261 144.286821291 c 0
 639.95269261 143.941231474 640.026050661 109.971136909 640.026050661 109.727917517 c 0
 640.026050661 93.9506973801 640.026050661 92.9513851457 637.99959117 88.1906648215 c 0
 613.728479543 31.1710328308 541.787873623 23.7822537079 484.511798626 17.8996195298 c 0
 452.895351708 14.6523999667 445.403043525 13.1166625942 445.006331169 13.0849513173 c 0
 438.758117679 12.585499196 432.552515439 12.3568066974 426.390739104 12.3568066974 c 0
 357.334107557 12.3568066974 289.997139469 41.7599866246 226.746591958 41.7599866246 c 0
 221.501559841 41.7599866246 216.320820592 41.5515158089 211.205675614 41.1016836438 c 2
 211.173748663 41.1016836438 l 1
 206.794324386 90.8983163562 l 1
 213.773282235 91.5120545264 220.696801448 91.7906674841 227.562719779 91.7906674841 c 0
 297.305716616 91.7906674841 364.798132208 62.3824916971 427.187936677 62.3824916971 c 0
 431.500346468 62.3824916971 435.762181657 62.5275548268 439.972419905 62.8367414318 c 0
 472.214110132 68.1175891289 516.071452235 69.3399092411 548.699081862 78.4402763877 c 0
 568.642422665 84.002792743 583.286059688 92.2146889965 590.028659717 103.855029066 c 0
 590.03361505 105.803570007 590.035738205 107.755199238 590.035738205 109.709916982 c 0
 590.035738205 110.064884433 589.958518083 144.980083884 589.958518083 145.206578179 c 0
 589.958518083 178.047970906 589.958518083 204.017502101 595.871142268 249.899814692 c 1
EndSplineSet
EndChar
StartChar: NameMe.65549
Encoding: 65549 -1 13
Width: 1000
Flags: HW
LayerCount: 2
Fore
SplineSet
427.596151961 -102.873768165 m 4
 389.779468282 -102.873768165 353.138612741 -125.730538387 345.612487023 -168.371962719 c 5
 345.612487023 -168.371962719 296.377959109 -159.682167466 296.387512977 -159.628037281 c 4
 307.819211251 -94.8584712184 363.427971715 -52.8824965963 427.549968361 -52.8824965963 c 4
 429.19952111 -52.8824965963 430.852431027 -52.9104168298 432.507959406 -52.9664281243 c 4
 434.363177239 -52.83949091 436.190388279 -52.7778623173 437.989202433 -52.7778623173 c 4
 480.357612839 -52.7778623173 501.448149402 -83.9291767625 516.733337162 -106.50582809 c 4
 531.6695121 -128.566977683 539.398519397 -138.04834047 553.117229355 -138.04834047 c 4
 564.331744132 -138.04834047 570.538999821 -133.004902236 579 -133.004902236 c 4
 582.079628349 -133.004902236 583.377544822 -133.564932407 587.729168479 -133.564932407 c 4
 603.392020214 -133.564932407 618.745229273 -125.007785077 637.88780229 -109.679789115 c 5
 684.619178838 -59.054131188 l 5
 721.380821162 -92.945868812 l 5
 672.135448863 -146.295022136 672.135448863 -146.295022136 670.715950197 -147.444716548 c 4
 649.723355353 -164.447246783 622.724838314 -183.581690821 588.060283317 -183.581690821 c 4
 586.008963685 -183.581690821 583.930798869 -183.514685196 581.825444851 -183.376267015 c 4
 571.830961615 -186.396928139 562.138422506 -187.941470393 552.89396868 -187.941470393 c 4
 511.477288616 -187.941470393 490.962971335 -157.641248 475.301303791 -134.508525465 c 4
 458.847103235 -110.205209429 451.656875357 -102.705510056 439.146771053 -102.705510056 c 4
 436.298741369 -102.705510056 435.162833171 -102.995097764 433 -102.995097764 c 4
 432.945947901 -102.995097764 429.393980972 -102.873768165 427.596151961 -102.873768165 c 4
595.871142268 249.899814692 m 1
 595.502914139 249.581862823 566.988257916 225.004902236 551 225.004902236 c 0
 547.020505754 225.004902236 494.878557413 234.33588886 451.283688638 277.930757635 c 0
 396.850476819 332.363969455 378.774690242 413.530821631 365.413600636 488.82267752 c 1
 349.342472832 484.096839685 332.796825067 480.95512378 314.606796059 480.95512378 c 0
 295.263782496 480.95512378 249.997487533 488.231291187 229.403400767 494.88797838 c 0
 203.857443028 503.145273382 171.864787847 521.640475454 171.864787847 562.486975605 c 0
 171.864787847 635.838046533 230.946456667 692.09144099 327.733968673 696.963256794 c 0
 328.155687979 696.984484107 328.57784399 696.995097764 329 696.995097764 c 2
 356.41159387 696.995097764 l 1
 377.425074462 704.080723492 401.738371461 699.671331111 412.844351883 705.85140741 c 0
 415.584659316 707.376289354 418.551766539 708.346425598 421.580655914 708.761816141 c 2
 421.580655914 708.761816141 771.580655914 756.761816141 771.626666288 756.768126135 c 2
 778.419344086 707.238183859 l 1
 432.56505546 659.806738562 l 1
 408.361319328 648.537907292 381.574237537 653.635915864 370.905267507 649.04148192 c 0
 367.75243695 647.683762131 364.376218475 647.004902236 361 647.004902236 c 2
 329.653572051 647.004902236 l 1
 309.985443574 645.949849415 221.806575269 637.008162158 221.806575269 561.483688119 c 0
 221.806575269 544.540216659 256.877798133 538.53482443 282.990581046 534.59018069 c 0
 308.260927733 530.772797196 308.260927733 530.772797196 315.843493595 530.772797196 c 0
 348.823876879 530.772797196 372.624552957 546.995097764 385 546.995097764 c 0
 397.230000529 546.995097764 407.552537669 538.193563316 409.621905538 526.318258572 c 0
 429.342227803 413.150928559 447.687048868 307.877069868 548.021034926 276.800537747 c 1
 555.875015808 281.485649836 562.835577137 286.977500592 568.988623397 293.130546852 c 0
 592.690913094 316.832836549 605.344796036 351.849476981 606.004902236 388.220435454 c 2
 606.004902236 444 l 2
 606.004902236 444.770981742 609.867930141 483.636353802 616.391645839 520.395314149 c 0
 618.49271381 532.234130837 628.798843139 540.995097764 641 540.995097764 c 0
 652.152619617 540.995097764 661.720056655 533.675490636 664.887392957 523.380263848 c 0
 667.930546094 513.488686603 668.689567594 503.925288872 668.689567594 494.976992974 c 0
 668.689567594 485.63467587 667.721649496 473.829908722 667.721649496 462.8399656 c 0
 667.721649496 456.257380786 668.114854967 457.176788848 668.114854967 443.459091917 c 0
 668.114854967 364.71375905 648.727222912 285.381920748 641.907365183 211.889023754 c 0
 640.23918279 189.77340688 639.95269261 167.244642029 639.95269261 144.286821291 c 0
 639.95269261 143.941231474 640.026050661 109.971136909 640.026050661 109.727917517 c 0
 640.026050661 93.9506973801 640.026050661 92.9513851457 637.99959117 88.1906648215 c 0
 613.728479543 31.1710328308 541.787873623 23.7822537079 484.511798626 17.8996195298 c 0
 452.895351708 14.6523999667 445.403043525 13.1166625942 445.006331169 13.0849513173 c 0
 438.758117679 12.585499196 432.552515439 12.3568066974 426.390739104 12.3568066974 c 0
 357.334107557 12.3568066974 289.997139469 41.7599866246 226.746591958 41.7599866246 c 0
 221.501559841 41.7599866246 216.320820592 41.5515158089 211.205675614 41.1016836438 c 2
 211.173748663 41.1016836438 l 1
 206.794324386 90.8983163562 l 1
 213.773282235 91.5120545264 220.696801448 91.7906674841 227.562719779 91.7906674841 c 0
 297.305716616 91.7906674841 364.798132208 62.3824916971 427.187936677 62.3824916971 c 0
 431.500346468 62.3824916971 435.762181657 62.5275548268 439.972419905 62.8367414318 c 0
 472.214110132 68.1175891289 516.071452235 69.3399092411 548.699081862 78.4402763877 c 0
 568.642422665 84.002792743 583.286059688 92.2146889965 590.028659717 103.855029066 c 0
 590.03361505 105.803570007 590.035738205 107.755199238 590.035738205 109.709916982 c 0
 590.035738205 110.064884433 589.958518083 144.980083884 589.958518083 145.206578179 c 0
 589.958518083 178.047970906 589.958518083 204.017502101 595.871142268 249.899814692 c 1
EndSplineSet
EndChar
StartChar: NameMe.65551
Encoding: 65551 -1 58
Width: 1000
Flags: HW
LayerCount: 2
Fore
SplineSet
427.596151961 -102.873768165 m 4
 389.779468282 -102.873768165 353.138612741 -125.730538387 345.612487023 -168.371962719 c 5
 345.612487023 -168.371962719 296.377959109 -159.682167466 296.387512977 -159.628037281 c 4
 307.819211251 -94.8584712184 363.427971715 -52.8824965963 427.549968361 -52.8824965963 c 4
 429.19952111 -52.8824965963 430.852431027 -52.9104168298 432.507959406 -52.9664281243 c 4
 434.363177239 -52.83949091 436.190388279 -52.7778623173 437.989202433 -52.7778623173 c 4
 480.357612839 -52.7778623173 501.448149402 -83.9291767625 516.733337162 -106.50582809 c 4
 531.6695121 -128.566977683 539.398519397 -138.04834047 553.117229355 -138.04834047 c 4
 564.331744132 -138.04834047 570.538999821 -133.004902236 579 -133.004902236 c 4
 582.079628349 -133.004902236 583.377544822 -133.564932407 587.729168479 -133.564932407 c 4
 603.392020214 -133.564932407 618.745229273 -125.007785077 637.88780229 -109.679789115 c 5
 684.619178838 -59.054131188 l 5
 721.380821162 -92.945868812 l 5
 672.135448863 -146.295022136 672.135448863 -146.295022136 670.715950197 -147.444716548 c 4
 649.723355353 -164.447246783 622.724838314 -183.581690821 588.060283317 -183.581690821 c 4
 586.008963685 -183.581690821 583.930798869 -183.514685196 581.825444851 -183.376267015 c 4
 571.830961615 -186.396928139 562.138422506 -187.941470393 552.89396868 -187.941470393 c 4
 511.477288616 -187.941470393 490.962971335 -157.641248 475.301303791 -134.508525465 c 4
 458.847103235 -110.205209429 451.656875357 -102.705510056 439.146771053 -102.705510056 c 4
 436.298741369 -102.705510056 435.162833171 -102.995097764 433 -102.995097764 c 4
 432.945947901 -102.995097764 429.393980972 -102.873768165 427.596151961 -102.873768165 c 4
477.278223242 668.925651726 m 0
 459.77689602 668.925651726 439.070546187 680.722196043 439.070546187 702.132233851 c 0
 439.070546187 704.041835907 439.243986653 705.906437872 439.550933135 707.694918809 c 0
 439.516649499 708.306746286 439.497861239 708.933427941 439.497861239 709.575282961 c 0
 439.497861239 717.628608207 442.257870221 727.709782581 453.394423371 735.612368414 c 1
 452.561344515 734.871609355 451.700449517 733.975113976 451.061281399 732.976058723 c 1
 452.155730357 732.428824279 455.28248173 730.865399223 459.40157165 728.80560968 c 1
 459.40157165 728.80560968 451.602131321 741.111953723 451.6273331 741.127925954 c 0
 457.669680261 744.957408208 467.032812443 747.667136571 479.577104201 747.667136571 c 0
 507.804160851 747.667136571 517.402363746 728.543963455 517.402363746 715.209948036 c 0
 517.402363746 712.792296844 517.134300407 709.661998656 516.172614751 706.138915989 c 0
 516.148627188 699.784950889 514.815030765 689.63331637 506.304243043 681.122528647 c 0
 499.346839873 674.165125477 488.003924606 668.925651726 477.278223242 668.925651726 c 0
478.187626907 698.780693465 m 1
 478.3726669 698.872074046 l 1
 470.865293845 710.717579849 l 1
 473.025947656 701.836710617 l 1
 478.187626907 698.780693465 l 1
307.856139248 636.641737362 m 1
 320.18635663 519.790269661 340.384068842 370.498969341 454.326477731 351.106260487 c 1
 495.555830659 353.657448993 560.489073045 369.912326061 592.884156631 478.192711827 c 0
 606.11026024 522.400889083 611.031895344 572.891324318 612.003306725 618.19219774 c 0
 611.992051801 620.131911078 611.986596767 622.008046494 611.986596767 623.821283013 c 0
 611.986596767 663.994994448 613.898807956 669.988862852 620.990554142 677.080609038 c 0
 623.869474668 679.959529564 629.777528116 684.43643485 638.683496288 684.43643485 c 0
 641.103034726 684.43643485 661.86080805 683.716756401 664.242801296 659.101482534 c 0
 664.678558051 654.598416931 664.879666917 647.829970739 664.879666917 638.653792023 c 0
 664.879666917 569.486563693 661.957846433 628.965695236 656.974529004 482.798080841 c 0
 652.70424767 357.544804407 647.731051555 217.04046176 574.121341966 143.430752171 c 0
 543.404788693 112.714198898 501.701784357 95.5796156907 448.912543076 95.5796156907 c 0
 431.950043399 95.5796156907 413.84289291 97.3487565358 394.587781041 101.004902236 c 1
 308.476027463 101.004902236 l 1
 207.900714208 89.1725124417 l 1
 202.058944701 138.822741548 l 1
 305.523972537 150.995097764 305.523972537 150.995097764 307 150.995097764 c 2
 397 150.995097764 l 2
 402.916464635 150.995097764 422.808791148 145.317662222 450.392311498 145.317662222 c 0
 552.399454076 145.317662222 590.151628707 230.079644853 601.917237055 380.747174982 c 1
 574.89723389 342.569711518 529.340520206 304.692124448 454.22477329 301.034700404 c 0
 453.8167791 301.014834959 453.40838955 301.004902236 453 301.004902236 c 0
 451.867718772 301.004902236 397.401728447 304.398342447 351.207639175 350.592431718 c 0
 281.80702421 419.993046683 267.589247651 541.845864934 258.139914583 631.395659845 c 1
 307.856139248 636.641737362 l 1
EndSplineSet
EndChar
StartChar: NameMe.65552
Encoding: 65552 -1 15
Width: 1000
Flags: H
LayerCount: 2
Fore
SplineSet
423.995097764 694 m 0
 423.995097764 690.12850101 423.102751629 688.168044515 423.102751629 684.463625876 c 0
 423.102751629 680.462864539 424.429369039 679.256288059 425.798046336 677.887610762 c 0
 429.495676832 674.189980266 442.085049374 669.440084871 457.73307892 668.984426898 c 0
 459.075338118 668.945341395 460.415039781 668.798883403 461.738132205 668.545052923 c 0
 462.735223598 671.291946523 464.03926993 676.570664765 464.03926993 681.999582898 c 0
 464.03926993 682.174253887 464.004902236 683.979992877 464.004902236 684 c 0
 464.004902236 687.260560518 464.52960227 687.942338316 464.52960227 691.11368236 c 0
 464.52960227 706.24079489 453.165011115 725.092515277 444.449915936 725.092515277 c 0
 435.105429705 725.092515277 421.823166322 716.048125451 421.823166322 706.459087588 c 0
 421.823166322 702.531179742 423.995097764 700.551717375 423.995097764 694 c 0
437.817444579 774.942058378 m 0
 440.866972167 774.942058378 440.711932429 775.158951172 444.199084483 775.158951172 c 0
 444.276891047 775.158951172 444.354645288 775.158789176 444.432347071 775.158465721 c 0
 447.280670915 775.71355022 449.857069152 775.880138503 452.191932335 775.880138503 c 0
 458.849758567 775.880138503 464.418406027 774.936607894 471.166788766 773.681297787 c 0
 471.963379006 773.53311891 472.702972429 773.050001922 473.336406038 772.940104223 c 2
 473.740284308 766.930565278 l 1
 479.1827806 763.759421933 484.040320047 759.889158488 488.212296368 755.717182167 c 0
 504.530957218 739.398521287 514.633711557 716.098416895 514.633711557 692.462050612 c 0
 514.633711557 689.166090955 514.43726603 685.86359277 514.033835936 682.572574215 c 0
 514.038705212 682.170176557 514.041176458 681.766697654 514.041176458 681.362184727 c 0
 514.041176458 645.022341751 494.377824781 618.118847322 464.005193334 618.118847322 c 0
 460.60349068 618.118847322 457.20127104 618.459427824 453.872484106 619.099862619 c 0
 433.23916814 619.955016417 408.582817956 624.392161024 390.442707276 642.532271703 c 0
 379.459310035 653.515668878 373.300718196 668.896592715 373.300718196 685.881610641 c 0
 373.300718196 687.888493294 373.386697388 689.917770468 373.560855933 691.964834231 c 0
 372.413159326 696.743032518 371.883536066 701.454587482 371.883536066 706.049612054 c 0
 371.883536066 715.935213681 374.33484238 725.281466477 378.356722406 733.591625119 c 1
 378.356722406 733.591625119 366.201815705 735.143071296 366.207381116 735.186673874 c 0
 368.239343273 751.106214495 378.798932739 775.146727361 424.048602598 775.146727361 c 0
 428.588410188 775.146727361 433.40678924 774.942058378 437.817444579 774.942058378 c 0
294.135982415 467.114211316 m 1
 308.085978174 422.725132013 357.035803136 372.434688568 410.106400773 372.434688568 c 0
 413.4296593 372.434688568 420.890919955 372.995097764 421 372.995097764 c 0
 424.797935488 372.995097764 430.179709805 371.591670299 440.88772534 371.591670299 c 0
 470.010613881 371.591670299 492.989491908 383.201120795 512.154428185 402.366057072 c 0
 538.615760281 428.827389168 558.366343737 472.372551273 564.637340616 521.740220656 c 0
 565.399205968 540.981187337 565.754982401 557.63628001 566.0098448 570.498946476 c 0
 566.279521116 584.109257503 577.37651763 594.995097764 591 594.995097764 c 0
 604.119089484 594.995097764 614.965215142 584.883816976 615.926820535 571.853180818 c 0
 616.40444679 565.380905895 616.643206646 558.799370303 616.643206646 552.141910391 c 0
 616.643206646 540.66108321 615.933154004 528.954463198 614.513595128 517.193017203 c 0
 607.737924496 349.541165852 578.65208934 207.549642817 508.039420701 141.705972491 c 0
 503.409935736 137.389151052 497.535517221 135.157998017 491.619142211 135.012513386 c 2
 247.609756248 129.012282583 l 1
 246.380857789 178.987486614 l 1
 480.362256708 184.741127571 l 1
 496.512922366 202.28253193 530.918889654 249.769287527 550.459769132 370.029722716 c 1
 519.82788061 337.9516315 481.290505231 321.669028019 440.075381705 321.669028019 c 0
 433.705751936 321.669028019 427.189672956 322.055798048 420.534963082 322.85661954 c 0
 416.884741783 322.561563277 413.263358344 322.418130562 409.673753894 322.418130562 c 0
 331.167521959 322.418130562 262.672676897 392.008082756 244.88411286 457.408372346 c 0
 244.297972444 459.563338472 244.004902236 461.781669236 244.004902236 464 c 0
 244.004902236 475.820852193 245.835408052 522.782426292 271.543430261 592.656789944 c 1
 271.543430261 592.656789944 318.473874416 575.390244139 318.456569739 575.343210056 c 0
 305.787518816 540.908750725 295.844643035 503.034292096 294.135982415 467.114211316 c 1
EndSplineSet
EndChar
StartChar: NameMe.65553
Encoding: 65553 -1 59
Width: 1000
Flags: HW
LayerCount: 2
Fore
SplineSet
427.596151961 -102.873768165 m 4
 389.779468282 -102.873768165 353.138612741 -125.730538387 345.612487023 -168.371962719 c 5
 345.612487023 -168.371962719 296.377959109 -159.682167466 296.387512977 -159.628037281 c 4
 307.819211251 -94.8584712184 363.427971715 -52.8824965963 427.549968361 -52.8824965963 c 4
 429.19952111 -52.8824965963 430.852431027 -52.9104168298 432.507959406 -52.9664281243 c 4
 434.363177239 -52.83949091 436.190388279 -52.7778623173 437.989202433 -52.7778623173 c 4
 480.357612839 -52.7778623173 501.448149402 -83.9291767625 516.733337162 -106.50582809 c 4
 531.6695121 -128.566977683 539.398519397 -138.04834047 553.117229355 -138.04834047 c 4
 564.331744132 -138.04834047 570.538999821 -133.004902236 579 -133.004902236 c 4
 582.079628349 -133.004902236 583.377544822 -133.564932407 587.729168479 -133.564932407 c 4
 603.392020214 -133.564932407 618.745229273 -125.007785077 637.88780229 -109.679789115 c 5
 684.619178838 -59.054131188 l 5
 721.380821162 -92.945868812 l 5
 672.135448863 -146.295022136 672.135448863 -146.295022136 670.715950197 -147.444716548 c 4
 649.723355353 -164.447246783 622.724838314 -183.581690821 588.060283317 -183.581690821 c 4
 586.008963685 -183.581690821 583.930798869 -183.514685196 581.825444851 -183.376267015 c 4
 571.830961615 -186.396928139 562.138422506 -187.941470393 552.89396868 -187.941470393 c 4
 511.477288616 -187.941470393 490.962971335 -157.641248 475.301303791 -134.508525465 c 4
 458.847103235 -110.205209429 451.656875357 -102.705510056 439.146771053 -102.705510056 c 4
 436.298741369 -102.705510056 435.162833171 -102.995097764 433 -102.995097764 c 4
 432.945947901 -102.995097764 429.393980972 -102.873768165 427.596151961 -102.873768165 c 4
450.004902236 690 m 0
 450.004902236 693.165547993 455.373117341 776.739115719 506.616024428 776.739115719 c 0
 512.81183178 776.739115719 518.978539807 775.430001665 524.505021432 773.12765576 c 0
 529.478169671 774.258974963 536.552487824 775.640501317 544.989120175 775.640501317 c 0
 547.611105429 775.640501317 550.364673604 775.507062736 553.227645647 775.191204016 c 0
 554.574378517 775.298843198 555.903489569 775.350787011 557.214324686 775.350787011 c 0
 598.021709354 775.350787011 626.142734235 725.649754333 626.142734235 692.215499247 c 0
 626.142734235 627.579208682 546.366351024 603.004902236 531 603.004902236 c 0
 500.872247278 603.004902236 463.924053656 637.137316724 450.945064461 683.188259665 c 0
 450.318289645 685.412128633 450.004902236 687.706064316 450.004902236 690 c 0
530.55690596 653.685795605 m 1
 540.82695781 656.616293903 576.165990848 669.169433673 576.165990848 691.89625156 c 0
 576.165990848 704.975291479 562.286537116 725.473414676 557.134992073 725.346857819 c 0
 555.766907771 725.118887431 554.383453886 725.004902236 553 725.004902236 c 0
 549.248690454 725.004902236 547.470001619 725.820230388 544.091499013 725.820230388 c 0
 538.88461677 725.820230388 532.033666935 722.869099152 520.90032384 721.557646135 c 1
 513.252898945 715.00271051 l 1
 507.717490938 721.460686519 l 1
 503.709496076 712.585116511 501.494640261 700.216065087 500.457313204 692.518594224 c 0
 500.626452407 692.057303531 512.413678964 660.782652747 530.55690596 653.685795605 c 1
585.612051146 366.833278663 m 0
 667.564167812 366.833278663 696.13946761 466.109866907 698.003715438 522.367324979 c 0
 698.000042416 523.684993073 697.998205485 524.970412582 697.998205485 526.22447509 c 0
 697.998205485 569.430764855 699.830911258 576.674619643 707.603411733 584.447120118 c 0
 710.778296557 587.622004942 717.507516116 591.875373651 725.771737858 591.875373651 c 0
 751.140503462 591.875373651 753.615548528 565.205060629 756.132063632 530.731910556 c 0
 757.141238779 516.907458055 757.980246126 502.059141052 757.980246126 488.220794653 c 0
 757.980246126 478.525291474 757.56839707 469.325559209 756.514671114 461.321076095 c 1
 764.703148602 429.595561874 768.648425731 398.146057631 768.648425731 367.712682004 c 0
 768.648425731 208.647852507 661.150806581 82.0928708792 502.385243565 82.0928708792 c 0
 476.176461696 82.0928708792 448.681157133 85.5602681309 420.214006001 92.8835024026 c 1
 414.161258993 92.684130617 408.113378866 92.608121221 402.090428674 92.608121221 c 0
 382.707556229 92.608121221 364.045927297 93.3925582219 344.142537384 93.3925582219 c 0
 300.559829123 93.3925582219 292.47816597 89.1683566268 285.572264996 89.0114043319 c 2
 197.563584746 87.0112070535 l 1
 196.427735004 136.988595668 l 1
 282.350922909 138.941395393 l 1
 302.078719477 142.58174546 322.236039118 143.459074955 342.113835516 143.459074955 c 0
 361.324079636 143.459074955 382.376521218 142.60529735 402.209594203 142.60529735 c 0
 414.168139355 142.60529735 422.792059403 142.995097764 423 142.995097764 c 0
 431.108215486 142.995097764 459.487573434 131.909384939 503.151895307 131.909384939 c 0
 634.29527075 131.909384939 718.665981621 237.920035439 718.665981621 367.773439558 c 0
 718.665981621 378.710801224 718.069468606 389.850088561 716.846575657 401.148971138 c 1
 699.2825131 369.115698828 659.281987844 316.852686371 585.241632937 316.852686371 c 0
 583.819759664 316.852686371 582.38940338 316.872697935 580.950642886 316.913067999 c 0
 566.795683041 314.259771715 552.313997248 312.957547988 537.780829298 312.957547988 c 0
 428.650236901 312.957547988 321.403328771 386.038559439 321.403328771 499.396843579 c 0
 321.403328771 509.369472765 322.244224222 519.635672748 324.004902236 530.161886183 c 1
 324.004902236 596 l 1
 373.995097764 596 l 1
 373.995097764 528 l 2
 373.995097764 522.991258384 371.306599509 514.56055555 371.306599509 498.625928828 c 0
 371.306599509 412.545542336 459.78650925 363.076240497 538.835301614 363.076240497 c 0
 562.082017023 363.076240497 573.226948334 366.995097764 579 366.995097764 c 0
 580.327768834 366.995097764 582.009524472 366.833278663 585.612051146 366.833278663 c 0
EndSplineSet
EndChar
StartChar: NameMe.65554
Encoding: 65554 -1 16
Width: 1000
Flags: H
LayerCount: 2
Fore
SplineSet
761.927296899 434.721664627 m 1
 714.536527505 356.24216669 647.173162471 340.645407005 615.166552426 340.645407005 c 0
 512.836233826 340.645407005 465.000086816 437.363411842 465.000086816 536.714140691 c 0
 465.000086816 554.736099223 466.301679432 558.502952001 466.301679432 571.062135155 c 0
 466.301679432 586.347129495 464.511866634 602.969627391 461.444668546 611.616559543 c 0
 460.902764731 613.144274868 460.902764731 613.144274868 454.549797645 642.791454602 c 1
 503.437588555 653.267409797 l 1
 509.12075315 626.745975019 l 1
 514.642416632 610.314904929 516.409773822 591.665960824 516.409773822 574.315494038 c 0
 516.409773822 557.096297543 515.022412427 553.639900991 515.022412427 537.234703861 c 0
 515.022412427 518.115336573 517.849293088 451.838070959 555.376997819 414.310366228 c 0
 569.901828696 399.785535493 588.244974109 390.606291427 614.451349386 390.606291427 c 0
 622.57229499 390.606291427 658.758284689 392.654945267 693.21769127 427.114351848 c 0
 735.130197978 469.026858556 756.243178616 542.837209244 756.243178616 607.679363028 c 0
 756.243178616 614.716947498 756.004902236 618.780451543 756.004902236 620 c 0
 756.004902236 638.00270484 759.507434985 643.623090635 764.076640262 648.192295912 c 0
 766.924314853 651.039970503 772.82096762 655.520120811 781.735080249 655.520120811 c 0
 785.502851994 655.520120811 805.795687646 654.313104436 807.114292397 628.387926526 c 0
 808.050597042 609.979177065 808.124817619 531.980874711 808.124817619 507.351065128 c 0
 808.124817619 487.179659883 808.080390554 469.430314467 808.014693941 458.784493675 c 1
 814.525055439 430.096453519 817.727920127 400.530299732 817.727920127 370.993722807 c 0
 817.727920127 201.848266588 713.119374421 40.472938046 539.800609569 40.472938046 c 0
 521.023703106 40.472938046 501.488488609 42.3853775438 481.268191323 46.4110081386 c 1
 462.492827396 42.2933061197 444.425925676 40.352202928 427.116340716 40.352202928 c 0
 247.071275863 40.352202928 159.206203033 245.338069035 159.206203033 408.337544782 c 0
 159.206203033 416.998268451 159.455426119 425.538688341 159.952848114 433.923064165 c 1
 159.192438455 445.486082328 158.854848652 456.93152856 158.854848652 468.270131996 c 0
 158.854848652 514.925569788 164.570618394 559.772040539 170.064422004 603.557012464 c 0
 172.161909598 620.27374315 174.240265658 636.849678773 176.004902236 653.337435374 c 1
 176.004902236 684 l 1
 225.995097764 684 l 1
 225.995097764 652 l 2
 225.995097764 635.492087589 208.863968783 538.870361662 208.863968783 467.807281201 c 0
 208.863968783 447.885024344 209.995097764 436.394171306 209.995097764 434 c 0
 209.995097764 431.93323478 209.214598631 423.425901434 209.214598631 408.829202384 c 0
 209.214598631 271.934414992 280.216086085 90.1237092765 425.849867764 90.1237092765 c 0
 455.639327655 90.1237092765 473.974468541 96.9950977635 481 96.9950977635 c 0
 487.531583759 96.9950977635 508.184405059 90.3073977144 540.820539169 90.3073977144 c 0
 687.008522914 90.3073977144 767.577137219 234.001312622 767.577137219 372.099967552 c 0
 767.577137219 393.092529398 765.72786914 414.119956757 761.927296899 434.721664627 c 1
EndSplineSet
EndChar
StartChar: NameMe.65555
Encoding: 65555 -1 9
Width: 1000
Flags: HW
LayerCount: 2
Fore
SplineSet
427.596151961 -102.873768165 m 4
 389.779468282 -102.873768165 353.138612741 -125.730538387 345.612487023 -168.371962719 c 5
 345.612487023 -168.371962719 296.377959109 -159.682167466 296.387512977 -159.628037281 c 4
 307.819211251 -94.8584712184 363.427971715 -52.8824965963 427.549968361 -52.8824965963 c 4
 429.19952111 -52.8824965963 430.852431027 -52.9104168298 432.507959406 -52.9664281243 c 4
 434.363177239 -52.83949091 436.190388279 -52.7778623173 437.989202433 -52.7778623173 c 4
 480.357612839 -52.7778623173 501.448149402 -83.9291767625 516.733337162 -106.50582809 c 4
 531.6695121 -128.566977683 539.398519397 -138.04834047 553.117229355 -138.04834047 c 4
 564.331744132 -138.04834047 570.538999821 -133.004902236 579 -133.004902236 c 4
 582.079628349 -133.004902236 583.377544822 -133.564932407 587.729168479 -133.564932407 c 4
 603.392020214 -133.564932407 618.745229273 -125.007785077 637.88780229 -109.679789115 c 5
 684.619178838 -59.054131188 l 5
 721.380821162 -92.945868812 l 5
 672.135448863 -146.295022136 672.135448863 -146.295022136 670.715950197 -147.444716548 c 4
 649.723355353 -164.447246783 622.724838314 -183.581690821 588.060283317 -183.581690821 c 4
 586.008963685 -183.581690821 583.930798869 -183.514685196 581.825444851 -183.376267015 c 4
 571.830961615 -186.396928139 562.138422506 -187.941470393 552.89396868 -187.941470393 c 4
 511.477288616 -187.941470393 490.962971335 -157.641248 475.301303791 -134.508525465 c 4
 458.847103235 -110.205209429 451.656875357 -102.705510056 439.146771053 -102.705510056 c 4
 436.298741369 -102.705510056 435.162833171 -102.995097764 433 -102.995097764 c 4
 432.945947901 -102.995097764 429.393980972 -102.873768165 427.596151961 -102.873768165 c 4
167.691950347 626.441733296 m 0
 167.691950347 660.109062425 176.006078127 691.675783197 176.006078127 721.351943212 c 0
 176.006078127 721.537584467 176.005743041 721.723061465 176.005068896 721.908374617 c 2
 176.005068896 736 l 1
 225.995097764 736 l 1
 225.995097764 722.091625383 l 2
 225.996047892 721.830448051 225.996352596 721.569525522 225.996352596 721.308857507 c 0
 225.996352596 687.064267364 217.699956867 655.729378529 217.699956867 625.938073976 c 0
 217.699956867 621.811417207 217.995097764 616.099424556 217.995097764 616 c 0
 217.995097764 606.724213808 215.898171526 601.525628538 215.898171526 521.583948083 c 0
 215.898171526 521.206703766 215.907902937 500.054413356 215.907902937 499.836943286 c 0
 215.907902937 471.304311734 215.754868671 442.481890228 214.224854164 413.451686985 c 1
 220.366629086 394.993964788 226.061462833 374.600665154 232.029026603 353.299341606 c 0
 264.203941239 238.450419467 299.114768415 124.986217813 397.296069444 124.986217813 c 0
 397.965872104 124.986217813 398.982960463 124.995097764 399 124.995097764 c 0
 399.973066368 124.995097764 404.073076265 124.819655167 410.594240267 124.819655167 c 0
 493.667485557 124.819655167 555.183359851 154.223878494 602.181880912 201.222399555 c 0
 658.624876037 257.66539468 699.304712615 346.605697952 718.433578783 459.600651384 c 1
 697.573729954 432.00841881 663.311178549 402.909977573 611.577684399 402.909977573 c 0
 610.071537686 402.909977573 608.554817437 402.93529836 607.027608792 402.986467084 c 0
 604.859154444 402.907142297 602.705976732 402.867917456 600.568221628 402.867917456 c 0
 460.980483996 402.867917456 392.077785171 565.445941438 392.004906418 689.985485384 c 1
 441.995093451 690.014738924 l 1
 442.050058344 596.087463183 491.665824872 452.852630531 600.321664964 452.852630531 c 0
 602.88532295 452.852630531 606.933201455 452.995097764 607 452.995097764 c 0
 607.049429856 452.995097764 610.33221553 452.892207166 611.941914595 452.892207166 c 0
 626.287018251 452.892207166 675.646870721 452.892207166 709.788930111 552.427865903 c 0
 719.073152884 579.494517596 725.375257232 608.647345985 729.730934347 634.748746198 c 0
 729.364099618 645.381901289 726.962000782 683.299292676 726.962000782 683.790491184 c 0
 726.962000782 700.693573442 731.080069717 706.854130756 735.831779782 711.605840821 c 0
 739.616418924 715.390479963 746.762544991 719.142088427 754.588640552 719.142088427 c 0
 765.351846085 719.142088427 784.235532706 712.95036152 784.235532706 669.497845358 c 0
 784.235532706 659.022181332 782.321075549 646.812745846 779.865602105 631.415526771 c 0
 780.138981362 622.185757226 780.27943622 612.840064323 780.27943622 603.400385757 c 0
 780.27943622 514.567729108 766.387584855 294.71742538 637.537219971 165.867060496 c 0
 581.66930002 109.999140452 506.180502432 74.8349601093 410.246097149 74.8349601093 c 0
 406.443369331 74.8349601093 402.608516617 74.8902113719 398.741487641 75.0016145222 c 0
 398.299183259 74.9983095438 397.8576808 74.9966608159 397.416980384 74.9966608159 c 0
 291.510868779 74.9966608159 245.13832212 168.090260152 225.721323268 212.947663656 c 0
 197.452677151 278.254257895 182.845317719 350.953649944 165.362519816 401.851882017 c 0
 164.45744143 404.486865845 164.004902236 407.243432922 164.004902236 410 c 0
 164.004902236 418.840469878 165.916901245 424.005944628 165.916901245 500.895850728 c 0
 165.916901245 501.263933547 165.907141194 522.466740922 165.907141194 522.684628724 c 0
 165.907141194 553.398900104 166.084216051 584.555331843 167.961503019 616.042921907 c 0
 167.775891665 619.551327533 167.691950347 623.017504101 167.691950347 626.441733296 c 0
EndSplineSet
EndChar
StartChar: NameMe.65559
Encoding: 65559 -1 62
Width: 1000
Flags: HW
LayerCount: 2
Fore
SplineSet
427.596151961 -102.873768165 m 4
 389.779468282 -102.873768165 353.138612741 -125.730538387 345.612487023 -168.371962719 c 5
 345.612487023 -168.371962719 296.377959109 -159.682167466 296.387512977 -159.628037281 c 4
 307.819211251 -94.8584712184 363.427971715 -52.8824965963 427.549968361 -52.8824965963 c 4
 429.19952111 -52.8824965963 430.852431027 -52.9104168298 432.507959406 -52.9664281243 c 4
 434.363177239 -52.83949091 436.190388279 -52.7778623173 437.989202433 -52.7778623173 c 4
 480.357612839 -52.7778623173 501.448149402 -83.9291767625 516.733337162 -106.50582809 c 4
 531.6695121 -128.566977683 539.398519397 -138.04834047 553.117229355 -138.04834047 c 4
 564.331744132 -138.04834047 570.538999821 -133.004902236 579 -133.004902236 c 4
 582.079628349 -133.004902236 583.377544822 -133.564932407 587.729168479 -133.564932407 c 4
 603.392020214 -133.564932407 618.745229273 -125.007785077 637.88780229 -109.679789115 c 5
 684.619178838 -59.054131188 l 5
 721.380821162 -92.945868812 l 5
 672.135448863 -146.295022136 672.135448863 -146.295022136 670.715950197 -147.444716548 c 4
 649.723355353 -164.447246783 622.724838314 -183.581690821 588.060283317 -183.581690821 c 4
 586.008963685 -183.581690821 583.930798869 -183.514685196 581.825444851 -183.376267015 c 4
 571.830961615 -186.396928139 562.138422506 -187.941470393 552.89396868 -187.941470393 c 4
 511.477288616 -187.941470393 490.962971335 -157.641248 475.301303791 -134.508525465 c 4
 458.847103235 -110.205209429 451.656875357 -102.705510056 439.146771053 -102.705510056 c 4
 436.298741369 -102.705510056 435.162833171 -102.995097764 433 -102.995097764 c 4
 432.945947901 -102.995097764 429.393980972 -102.873768165 427.596151961 -102.873768165 c 4
223.729545198 681.107291968 m 0
 223.729545198 580.185102284 358.155492031 540.104594404 422.726568405 457.361443442 c 1
 422.726568405 457.361443442 383.305219575 426.597822568 383.273431595 426.638556558 c 0
 325.304061809 500.922099357 173.75114077 549.774527189 173.75114077 681.482296189 c 0
 173.75114077 683.883352371 173.803286938 686.309912186 173.909353224 688.762327007 c 0
 173.530113699 691.630781026 173.280704937 694.744662071 173.280704937 698.005673141 c 0
 173.280704937 726.526259863 193.906792909 742.999388785 210.175879671 744.836221162 c 0
 335.253139585 758.957847281 335.253139585 758.957847281 336.337440937 758.986381527 c 0
 473.676516132 762.380847553 609.983104029 766.807800878 748.533665869 768.990780259 c 1
 749.466334131 719.009219741 l 1
 611.416598267 716.830108692 475.591258806 712.426601241 338.746860415 709.042152719 c 1
 223.402231709 696.019372059 l 1
 223.563139654 694.198450455 223.995097764 692.874502065 223.995097764 690 c 0
 223.995097764 689.911033279 223.729545198 684.423248458 223.729545198 681.107291968 c 0
437.745243458 220.090869494 m 1
 472.26919879 183.922916288 l 1
 384.254756542 99.9091305062 l 2
 381.929618162 97.6896802337 381.929618162 97.6896802337 307.140615422 56.1402342671 c 1
 282.853731582 99.8566251793 l 1
 352.070381838 138.310319766 l 1
 437.745243458 220.090869494 l 1
609 644.995097764 m 2
 622.812968658 644.995097764 633.995097764 633.812835975 633.995097764 620 c 2
 633.995097764 616 l 1
 588.004902236 616 l 1
 609 595.004902236 l 1
 600.315079176 595.004902236 l 1
 564.021222315 585.093921249 428.690038866 540.495950514 428.690038866 426.505609464 c 0
 428.690038866 407.792710341 431.995097764 397.307846173 431.995097764 392 c 0
 431.995097764 389.096556078 430.813359362 381.3523121 430.813359362 367.290137699 c 0
 430.813359362 267.122681091 493.699065203 159.892463338 597.55686868 142.582829426 c 0
 705.13576086 124.653014062 705.13576086 124.653014062 705.13576086 124.653014062 c 1
 705.13576086 124.653014062 696.916634091 75.338253446 696.86423914 75.3469859377 c 0
 588.455966145 93.4150314369 588.455966145 93.4150314369 588.05034668 93.4964702148 c 0
 462.744874975 118.654839941 380.799852938 240.874176101 380.799852938 366.855287598 c 0
 380.799852938 374.872690576 381.131827138 382.896831001 381.804069564 390.902679539 c 1
 379.780904409 402.794953455 378.819356193 414.332779676 378.819356193 425.49832113 c 0
 378.819356193 480.620110109 402.253986034 526.668661186 437.083178591 561.497853743 c 0
 478.693631345 603.108306498 535.390511359 629.610533165 590.596055619 644.16615325 c 0
 592.692031045 644.718782926 594.846015523 644.995097764 597 644.995097764 c 2
 609 644.995097764 l 2
EndSplineSet
EndChar
StartChar: NameMe.65563
Encoding: 65563 -1 64
Width: 1000
Flags: HW
LayerCount: 2
Fore
SplineSet
427.596151961 -102.873768165 m 4
 389.779468282 -102.873768165 353.138612741 -125.730538387 345.612487023 -168.371962719 c 5
 345.612487023 -168.371962719 296.377959109 -159.682167466 296.387512977 -159.628037281 c 4
 307.819211251 -94.8584712184 363.427971715 -52.8824965963 427.549968361 -52.8824965963 c 4
 429.19952111 -52.8824965963 430.852431027 -52.9104168298 432.507959406 -52.9664281243 c 4
 434.363177239 -52.83949091 436.190388279 -52.7778623173 437.989202433 -52.7778623173 c 4
 480.357612839 -52.7778623173 501.448149402 -83.9291767625 516.733337162 -106.50582809 c 4
 531.6695121 -128.566977683 539.398519397 -138.04834047 553.117229355 -138.04834047 c 4
 564.331744132 -138.04834047 570.538999821 -133.004902236 579 -133.004902236 c 4
 582.079628349 -133.004902236 583.377544822 -133.564932407 587.729168479 -133.564932407 c 4
 603.392020214 -133.564932407 618.745229273 -125.007785077 637.88780229 -109.679789115 c 5
 684.619178838 -59.054131188 l 5
 721.380821162 -92.945868812 l 5
 672.135448863 -146.295022136 672.135448863 -146.295022136 670.715950197 -147.444716548 c 4
 649.723355353 -164.447246783 622.724838314 -183.581690821 588.060283317 -183.581690821 c 4
 586.008963685 -183.581690821 583.930798869 -183.514685196 581.825444851 -183.376267015 c 4
 571.830961615 -186.396928139 562.138422506 -187.941470393 552.89396868 -187.941470393 c 4
 511.477288616 -187.941470393 490.962971335 -157.641248 475.301303791 -134.508525465 c 4
 458.847103235 -110.205209429 451.656875357 -102.705510056 439.146771053 -102.705510056 c 4
 436.298741369 -102.705510056 435.162833171 -102.995097764 433 -102.995097764 c 4
 432.945947901 -102.995097764 429.393980972 -102.873768165 427.596151961 -102.873768165 c 4
426.341030272 293.56356844 m 1
 451.673282906 250.444840553 l 1
 291.658969728 156.43643156 l 2
 290.575579235 155.799939646 289.454367829 155.251991771 288.30585824 154.792587935 c 2
 288.30585824 154.792587935 258.30585824 142.792587935 258.266386837 142.776799374 c 2
 239.69414176 189.207412065 l 1
 267.954891766 200.511712067 l 1
 426.341030272 293.56356844 l 1
220.322144826 707.758524038 m 1
 249.639240934 748.269420478 l 1
 403.25578861 637.09955045 403.25578861 637.09955045 404.67766953 635.67766953 c 2
 426.67766953 613.67766953 l 1
 391.32233047 578.32233047 l 1
 370.74421139 598.90044955 l 1
 370.74421139 598.90044955 220.360759066 707.730579522 220.322144826 707.758524038 c 1
412.423444163 798.205148513 m 1
 425.880957737 817.663133271 453.805526434 837.103211374 480.366898542 837.103211374 c 0
 481.058107137 837.103211374 481.753891536 837.090747673 482.45422629 837.065234953 c 0
 483.559432888 837.146348124 484.678876758 837.187975107 485.807197988 837.187975107 c 0
 496.201207941 837.187975107 526.133208261 833.362962647 526.133208261 789.30298204 c 0
 526.133208261 788.882961419 525.995096795 780.093040072 525.995097764 780 c 0
 525.995097764 779.087870935 524.695815812 716.806365117 489.561537752 696.379488101 c 0
 485.774535615 694.17774578 481.43539876 692.846932136 474.341612828 692.846932136 c 0
 460.686452149 692.846932136 452.477840485 697.551997322 442.016872983 703.548082412 c 1
 430.776332756 704.849381789 396.617436295 711.717158103 396.617436295 747.128835843 c 0
 396.617436295 763.005482624 404.10955628 778.201564916 416.690772274 795.253782957 c 1
 412.423444163 798.205148513 l 1
467.181128676 776.30210434 m 1
 466.632528338 776.181161045 465.048413455 775.724783972 465.026103293 775.724783972 c 0
 456.882217709 766.043696696 451.870327853 758.839475564 449.013913161 753.087551083 c 1
 455.314020674 752.420071143 458.347392976 752.098693268 468.476767824 746.019894059 c 1
 475.41136886 761.178251054 476.075251698 785.800139748 476.075251698 786.209152394 c 1
 474.22654954 785.64608322 472.461967768 784.898756791 470.597201203 783.932994201 c 1
 471.654334044 783.355265504 l 1
 469.860905018 781.34846376 467.904640501 779.119299944 465.90103502 776.759915753 c 1
 467.181128676 776.30210434 l 1
350.378269982 484.648397811 m 0
 350.378269982 622.997576543 476.977368491 717.027777902 616.687360669 717.027777902 c 0
 618.251324012 717.027777902 619.81617975 717.015936382 621.381748009 716.992204563 c 1
 620.624053138 667.0077075 l 1
 619.341446924 667.027150011 618.059560244 667.036837975 616.778546264 667.036837975 c 0
 508.340828687 667.036837975 400.286818502 597.063693869 400.286818502 485.347572662 c 0
 400.286818502 463.810568132 403.975314603 451.375773944 403.99492421 446.093501156 c 0
 404.53711198 300.043467358 526.177978343 192.560465577 666.190481369 182.97211972 c 1
 739.680451995 180.985904297 l 1
 738.329855044 131.013817134 l 1
 689.905883749 132.322573115 664.069424571 133.010911899 663.320724301 133.060951408 c 0
 496.063416405 144.239621798 355.875633699 273.568808905 354.02151043 443.656695172 c 1
 351.556595939 457.677335558 350.378269982 471.359500841 350.378269982 484.648397811 c 0
EndSplineSet
EndChar
StartChar: NameMe.65567
Encoding: 65567 -1 66
Width: 1000
Flags: HW
LayerCount: 2
Fore
SplineSet
427.596151961 -102.873768165 m 4
 389.779468282 -102.873768165 353.138612741 -125.730538387 345.612487023 -168.371962719 c 5
 345.612487023 -168.371962719 296.377959109 -159.682167466 296.387512977 -159.628037281 c 4
 307.819211251 -94.8584712184 363.427971715 -52.8824965963 427.549968361 -52.8824965963 c 4
 429.19952111 -52.8824965963 430.852431027 -52.9104168298 432.507959406 -52.9664281243 c 4
 434.363177239 -52.83949091 436.190388279 -52.7778623173 437.989202433 -52.7778623173 c 4
 480.357612839 -52.7778623173 501.448149402 -83.9291767625 516.733337162 -106.50582809 c 4
 531.6695121 -128.566977683 539.398519397 -138.04834047 553.117229355 -138.04834047 c 4
 564.331744132 -138.04834047 570.538999821 -133.004902236 579 -133.004902236 c 4
 582.079628349 -133.004902236 583.377544822 -133.564932407 587.729168479 -133.564932407 c 4
 603.392020214 -133.564932407 618.745229273 -125.007785077 637.88780229 -109.679789115 c 5
 684.619178838 -59.054131188 l 5
 721.380821162 -92.945868812 l 5
 672.135448863 -146.295022136 672.135448863 -146.295022136 670.715950197 -147.444716548 c 4
 649.723355353 -164.447246783 622.724838314 -183.581690821 588.060283317 -183.581690821 c 4
 586.008963685 -183.581690821 583.930798869 -183.514685196 581.825444851 -183.376267015 c 4
 571.830961615 -186.396928139 562.138422506 -187.941470393 552.89396868 -187.941470393 c 4
 511.477288616 -187.941470393 490.962971335 -157.641248 475.301303791 -134.508525465 c 4
 458.847103235 -110.205209429 451.656875357 -102.705510056 439.146771053 -102.705510056 c 4
 436.298741369 -102.705510056 435.162833171 -102.995097764 433 -102.995097764 c 4
 432.945947901 -102.995097764 429.393980972 -102.873768165 427.596151961 -102.873768165 c 4
137.415124967 72.0288182813 m 0
 137.415124967 75.041917317 138.011643506 79.2169427774 140.14357221 83.3609985346 c 0
 140.051125561 84.238019689 140.004902236 85.1190098445 140.004902236 86 c 0
 140.004902236 88.9742557938 140.531738548 91.9485115876 141.585411172 94.7700448895 c 0
 204.746675016 263.903801767 130.875945169 549.994516884 265.373688533 683.728881653 c 0
 270.245483809 688.573025727 276.622741904 690.995097764 283 690.995097764 c 0
 296.381174175 690.995097764 327.970649159 670.468013894 348.278736159 650.159926894 c 0
 428.951634194 569.487028859 430.023250592 429.530511334 430.971103763 305.737865835 c 0
 431.319311407 260.260837616 431.724764585 217.643544215 435.821458997 182.951936544 c 0
 435.839239203 182.80137029 436.432663433 176.712973758 436.432663433 167.803017322 c 0
 436.432663433 153.349628051 434.854358526 138.721465179 431.769211143 124.828229175 c 1
 813.121088634 122.994806687 l 2
 813.121088634 122.994806687 812.88075389 73.0051844548 812.878911366 73.0051933131 c 0
 396.878911366 75.0051933131 396.878911366 75.0051933131 396.878911366 75.0051933131 c 2
 383.114822925 75.0713668152 372.004902236 86.2330456976 372.004902236 100 c 0
 372.004902236 103.799671046 372.864729214 107.599342092 374.584383169 111.080588949 c 0
 381.536522 125.154415006 386.386598965 148.166955608 386.386598965 169.178291992 c 0
 386.386598965 172.047694967 386.296145675 174.87977575 386.108240148 177.646671352 c 0
 375.377347952 269.526087904 388.558586695 398.441874359 367.481930168 500.029899424 c 0
 352.349278706 572.968231647 323.357290881 612.270497248 288.305048927 634.547233607 c 1
 195.079451618 518.363674911 246.480378596 274.200447871 197.355917759 104.358776661 c 1
 205.955313772 101.589470771 220.409634656 94.3894135172 220.409634656 77.2760831358 c 0
 220.409634656 50.8513634916 190.988708995 48.6834097755 176.669276269 47.6282469383 c 0
 173.09463655 47.3648407644 169.845137941 47.1551909686 167.414482914 47.0083129337 c 0
 166.784772556 46.9702612073 166.199396293 46.9976216414 165.660485626 46.9976216414 c 0
 165.554468401 46.9976216414 165.450193456 46.9980354024 165.347643985 46.9990257186 c 0
 165.255708763 46.995504248 165.166181404 46.9888554776 165.079122457 46.9888554776 c 0
 163.996105026 46.9483026958 163.352867783 46.929527161 163.070266244 46.922300768 c 0
 162.264201218 47.0175215607 160.876743982 46.8558476622 158.616122134 47.1999969235 c 0
 141.177456561 49.8547991318 137.415124967 65.7402944743 137.415124967 72.0288182813 c 0
177.363604659 90.722138292 m 1
 177.272244689 60.357449477 l 1
 180.080662505 58.2845502841 l 1
 180.080662505 89.5863091512 l 1
 177.363604659 90.722138292 l 1
167.348465092 51.0194045565 m 1
 173.048747255 52.6831890401 180.080662507 54.2309707726 180.080662507 54.2309707726 c 1
 180.080662507 57.3194468456 l 1
 177.550302011 57.9994865823 173.207436492 59.0242345211 167.197593762 60.1860009733 c 1
 167.348465092 51.0194045565 l 1
EndSplineSet
EndChar
StartChar: NameMe.65579
Encoding: 65579 -1 72
Width: 1000
Flags: HW
LayerCount: 2
Fore
SplineSet
427.596151961 -102.873768165 m 4
 389.779468282 -102.873768165 353.138612741 -125.730538387 345.612487023 -168.371962719 c 5
 345.612487023 -168.371962719 296.377959109 -159.682167466 296.387512977 -159.628037281 c 4
 307.819211251 -94.8584712184 363.427971715 -52.8824965963 427.549968361 -52.8824965963 c 4
 429.19952111 -52.8824965963 430.852431027 -52.9104168298 432.507959406 -52.9664281243 c 4
 434.363177239 -52.83949091 436.190388279 -52.7778623173 437.989202433 -52.7778623173 c 4
 480.357612839 -52.7778623173 501.448149402 -83.9291767625 516.733337162 -106.50582809 c 4
 531.6695121 -128.566977683 539.398519397 -138.04834047 553.117229355 -138.04834047 c 4
 564.331744132 -138.04834047 570.538999821 -133.004902236 579 -133.004902236 c 4
 582.079628349 -133.004902236 583.377544822 -133.564932407 587.729168479 -133.564932407 c 4
 603.392020214 -133.564932407 618.745229273 -125.007785077 637.88780229 -109.679789115 c 5
 684.619178838 -59.054131188 l 5
 721.380821162 -92.945868812 l 5
 672.135448863 -146.295022136 672.135448863 -146.295022136 670.715950197 -147.444716548 c 4
 649.723355353 -164.447246783 622.724838314 -183.581690821 588.060283317 -183.581690821 c 4
 586.008963685 -183.581690821 583.930798869 -183.514685196 581.825444851 -183.376267015 c 4
 571.830961615 -186.396928139 562.138422506 -187.941470393 552.89396868 -187.941470393 c 4
 511.477288616 -187.941470393 490.962971335 -157.641248 475.301303791 -134.508525465 c 4
 458.847103235 -110.205209429 451.656875357 -102.705510056 439.146771053 -102.705510056 c 4
 436.298741369 -102.705510056 435.162833171 -102.995097764 433 -102.995097764 c 4
 432.945947901 -102.995097764 429.393980972 -102.873768165 427.596151961 -102.873768165 c 4
364.940322552 590.591090737 m 0
 375.731517667 590.591090737 384.015910117 588.37100789 393.0090156 588.37100789 c 0
 395.340532603 588.37100789 396.211336879 588.557460685 396.211336879 588.557460685 c 1
 417.8058072 543.450746903 l 1
 408.951699764 539.211915381 400.466135782 538.039371677 393.08348014 538.039371677 c 0
 382.895183471 538.039371677 374.079082908 540.385665732 364.581662151 540.385665732 c 0
 357.457796853 540.385665732 349.457365802 535.834339289 330.66887892 535.834339289 c 0
 269.647282971 535.834339289 228.604637112 590.047285994 228.604637112 650.668762307 c 0
 228.604637112 656.482529545 228.984423799 662.310983614 229.750091251 668.102453389 c 0
 229.284604767 671.984496185 229.052176872 675.796293015 229.052176872 679.520665275 c 0
 229.052176872 736.930291529 278.379411891 747.862739988 311.748905111 755.258456869 c 0
 321.258726301 757.366128827 330.034140774 759.36559005 337.065615423 761.709813901 c 0
 339.537641722 762.533962931 342.113278114 762.961766662 344.692869386 762.993225092 c 2
 835.452410471 768.978097544 l 1
 835.452410471 768.978097544 870.220107963 772.841175043 870.259148929 772.845512928 c 2
 875.779892037 723.158824957 l 1
 838.547589529 719.021902456 838.547589529 719.021902456 837.307130614 719.006774908 c 2
 349.064004386 713.052590442 l 1
 330.184042684 707.261591019 308.290108798 704.29352194 294.085015542 698.82226212 c 0
 279.647554745 693.261503191 278.830133503 687.536321284 278.830133503 681.18179004 c 0
 278.830133503 675.31438588 279.995097764 671.986853558 279.995097764 668 c 0
 279.995097764 663.764859706 278.66332294 660.491595904 278.66332294 651.390034207 c 0
 278.66332294 620.349321266 296.942109999 585.60262671 329.656899623 585.60262671 c 0
 343.662880789 585.60262671 348.224439274 590.591090737 364.940322552 590.591090737 c 0
513.643744477 128.727713012 m 0
 513.643744477 139.082574127 514.575087897 149.427365054 514.575087897 159.544347941 c 0
 514.575087897 162.573737066 514.486127993 165.422288978 514.261303554 168.097470948 c 0
 492.266549415 269.287881452 516.636464409 444.861901487 445.055737571 516.442628326 c 0
 430.946667713 530.551696537 413.004880654 541.006729756 388.042742925 546.332829492 c 1
 300.997532595 519.744576623 274.717710684 395.728698622 254.297406522 296.18898742 c 0
 252.843786882 289.103251674 251.418042851 282.152725786 249.995097764 275.377859876 c 1
 249.995097764 100 l 1
 200.004902236 100 l 1
 200.004902236 278 l 2
 200.004902236 279.759299724 218.124868817 383.443850539 242.418700362 448.740812067 c 0
 260.230376438 496.615035832 297.129417977 574.767067354 380.760946979 596.209028428 c 0
 382.80491986 596.733074652 384.90245993 596.995097764 387 596.995097764 c 0
 388.037709489 596.995097764 439.548520421 592.660523594 480.41107663 551.797967385 c 0
 531.186335357 501.022708658 544.263442814 419.975318974 549.90424908 334.79898969 c 1
 568.847432906 417.168702803 601.658276217 497.985135224 665.606892999 559.957804214 c 0
 670.448007593 564.649333247 676.724003796 566.995097764 683 566.995097764 c 0
 687.160924158 566.995097764 691.321848316 565.964002794 695.064617322 563.901812855 c 0
 871.493360107 466.693147895 813.993828672 195.992805765 869.525885116 80.8544971318 c 1
 824.481865162 59.1294336997 l 1
 764.887571858 182.690248384 815.13567042 419.801132527 686.947898051 510.103926494 c 1
 596.677572723 410.023985009 583.819760412 262.030286436 569.900622133 101.820702949 c 0
 568.781229161 88.9364655648 558.000177733 79.0049022365 545 79.0049022365 c 0
 537.222254605 79.0049022365 520.338110111 84.6872297507 516.674119524 100.235976207 c 0
 514.275836703 110.413483661 513.643744477 119.981975453 513.643744477 128.727713012 c 0
EndSplineSet
EndChar
StartChar: NameMe.65581
Encoding: 65581 -1 73
Width: 1000
Flags: HW
LayerCount: 2
Fore
SplineSet
427.596151961 -102.873768165 m 4
 389.779468282 -102.873768165 353.138612741 -125.730538387 345.612487023 -168.371962719 c 5
 345.612487023 -168.371962719 296.377959109 -159.682167466 296.387512977 -159.628037281 c 4
 307.819211251 -94.8584712184 363.427971715 -52.8824965963 427.549968361 -52.8824965963 c 4
 429.19952111 -52.8824965963 430.852431027 -52.9104168298 432.507959406 -52.9664281243 c 4
 434.363177239 -52.83949091 436.190388279 -52.7778623173 437.989202433 -52.7778623173 c 4
 480.357612839 -52.7778623173 501.448149402 -83.9291767625 516.733337162 -106.50582809 c 4
 531.6695121 -128.566977683 539.398519397 -138.04834047 553.117229355 -138.04834047 c 4
 564.331744132 -138.04834047 570.538999821 -133.004902236 579 -133.004902236 c 4
 582.079628349 -133.004902236 583.377544822 -133.564932407 587.729168479 -133.564932407 c 4
 603.392020214 -133.564932407 618.745229273 -125.007785077 637.88780229 -109.679789115 c 5
 684.619178838 -59.054131188 l 5
 721.380821162 -92.945868812 l 5
 672.135448863 -146.295022136 672.135448863 -146.295022136 670.715950197 -147.444716548 c 4
 649.723355353 -164.447246783 622.724838314 -183.581690821 588.060283317 -183.581690821 c 4
 586.008963685 -183.581690821 583.930798869 -183.514685196 581.825444851 -183.376267015 c 4
 571.830961615 -186.396928139 562.138422506 -187.941470393 552.89396868 -187.941470393 c 4
 511.477288616 -187.941470393 490.962971335 -157.641248 475.301303791 -134.508525465 c 4
 458.847103235 -110.205209429 451.656875357 -102.705510056 439.146771053 -102.705510056 c 4
 436.298741369 -102.705510056 435.162833171 -102.995097764 433 -102.995097764 c 4
 432.945947901 -102.995097764 429.393980972 -102.873768165 427.596151961 -102.873768165 c 4
427.547040654 705.025189269 m 0
 427.547040654 744.958935885 457.979381819 780.668780874 497.548522426 782.953236501 c 0
 498.19147134 782.953236501 498.83558488 782.980483192 499.479313983 782.980483192 c 0
 499.755807584 782.980483192 500.032230261 782.975456554 500.308459267 782.961085208 c 0
 501.704704048 783.232760746 503.434946623 783.446387958 505.424090137 783.446387958 c 0
 512.922818504 783.446387958 521.375313639 780.690386944 528.653367157 771.454787997 c 1
 515.533806482 761.116003768 l 1
 517.841179883 759.032161832 520.503469889 755.962046143 522.592667421 751.681792227 c 0
 527.225792147 746.696093015 532.47504213 737.798105637 532.47504213 723.063210975 c 0
 532.47504213 722.096135961 532.447137895 721.136744478 532.392753061 720.182230915 c 0
 533.217527846 716.546722267 533.600632973 712.95081031 533.600632973 709.436678559 c 0
 533.600632973 681.175677935 509.408511674 658.108037132 483.020027428 658.108037132 c 0
 480.667646837 658.108037132 478.274689734 658.290793393 475.852369394 658.676494059 c 0
 473.674394458 658.465295158 471.432159028 658.336348231 469.113891155 658.336348231 c 0
 441.298174093 658.336348231 427.763117673 675.712515113 427.763117673 695.326819099 c 0
 427.763117673 696.244933604 427.794090035 697.154444118 427.854508724 698.051610459 c 0
 427.648259757 700.387722864 427.547040654 702.71400943 427.547040654 705.025189269 c 0
368.216671843 496.605426148 m 1
 263.484510164 486.820965874 197.696362053 358.816341051 197.696362053 265.758028689 c 0
 197.696362053 230.743120468 205.50232792 194.122625469 213.690499332 156.804724585 c 0
 217.214880342 140.742224844 220.768679407 124.584376875 223.626537935 108.29194037 c 1
 174.382925118 99.6541114753 l 1
 171.78577373 114.460276192 168.391351943 129.969207532 164.867347525 146.029990946 c 0
 156.740160303 183.069954076 147.700137332 223.235409243 147.700137332 265.382092902 c 0
 147.700137332 390.033767231 236.449625916 540.269898823 371.755513243 546.964331992 c 0
 372.170065647 546.984842506 372.585032824 546.995097764 373 546.995097764 c 0
 385.446534711 546.995097764 413.325343049 530.229921103 433.924108098 509.631156054 c 0
 465.611036746 477.944227405 486.266478926 435.544943298 500.639180296 390.176129282 c 1
 508.120306317 462.046255521 528.426837486 557.361220434 612.045626825 589.344920124 c 0
 614.921797243 590.44503855 617.960898622 590.995097764 621 590.995097764 c 0
 623.392975465 590.995097764 690.141127019 590.462102177 749.070695504 531.532533693 c 0
 833.423309968 447.179919229 863.515793632 291.586716886 875.887315743 158.327378619 c 1
 875.887315743 158.293884191 l 1
 826.112684257 153.672621381 l 1
 811.092108508 315.466131238 766.943144127 523.776790977 624.798265293 540.507563786 c 1
 517.351467703 491.937766231 559.555708923 251.829775549 535.226180766 155.828235655 c 0
 532.454473758 144.891396307 522.574775148 137.004902236 511 137.004902236 c 0
 497.76364214 137.004902236 486.855339956 147.294597627 486.05164564 160.466296663 c 0
 480.18965193 256.538168065 464.601118928 447.678972026 368.216671843 496.605426148 c 1
EndSplineSet
EndChar
StartChar: NameMe.65583
Encoding: 65583 -1 74
Width: 1000
Flags: HW
LayerCount: 2
Fore
SplineSet
427.596151961 -102.873768165 m 4
 389.779468282 -102.873768165 353.138612741 -125.730538387 345.612487023 -168.371962719 c 5
 345.612487023 -168.371962719 296.377959109 -159.682167466 296.387512977 -159.628037281 c 4
 307.819211251 -94.8584712184 363.427971715 -52.8824965963 427.549968361 -52.8824965963 c 4
 429.19952111 -52.8824965963 430.852431027 -52.9104168298 432.507959406 -52.9664281243 c 4
 434.363177239 -52.83949091 436.190388279 -52.7778623173 437.989202433 -52.7778623173 c 4
 480.357612839 -52.7778623173 501.448149402 -83.9291767625 516.733337162 -106.50582809 c 4
 531.6695121 -128.566977683 539.398519397 -138.04834047 553.117229355 -138.04834047 c 4
 564.331744132 -138.04834047 570.538999821 -133.004902236 579 -133.004902236 c 4
 582.079628349 -133.004902236 583.377544822 -133.564932407 587.729168479 -133.564932407 c 4
 603.392020214 -133.564932407 618.745229273 -125.007785077 637.88780229 -109.679789115 c 5
 684.619178838 -59.054131188 l 5
 721.380821162 -92.945868812 l 5
 672.135448863 -146.295022136 672.135448863 -146.295022136 670.715950197 -147.444716548 c 4
 649.723355353 -164.447246783 622.724838314 -183.581690821 588.060283317 -183.581690821 c 4
 586.008963685 -183.581690821 583.930798869 -183.514685196 581.825444851 -183.376267015 c 4
 571.830961615 -186.396928139 562.138422506 -187.941470393 552.89396868 -187.941470393 c 4
 511.477288616 -187.941470393 490.962971335 -157.641248 475.301303791 -134.508525465 c 4
 458.847103235 -110.205209429 451.656875357 -102.705510056 439.146771053 -102.705510056 c 4
 436.298741369 -102.705510056 435.162833171 -102.995097764 433 -102.995097764 c 4
 432.945947901 -102.995097764 429.393980972 -102.873768165 427.596151961 -102.873768165 c 4
511.279163088 774.903954038 m 0
 512.84550103 774.903954038 517.805810716 775.002913784 517.871743952 775.002913784 c 0
 549.570310231 775.002913784 583.542464173 753.143932945 599.86593285 734.404915141 c 0
 603.952042792 729.71414209 605.995097764 723.857071045 605.995097764 718 c 0
 605.995097764 708.742606326 604.154256807 717.389227075 600.246612028 682.73717058 c 0
 597.38966712 657.402468495 594.270097127 629.738870149 575.798515938 611.26728896 c 0
 573.992121632 609.460894654 558.852783798 595.004902236 537 595.004902236 c 0
 535.743968575 595.004902236 445.41806127 601.052418939 425.636621683 653.094035328 c 0
 424.152671683 656.998056382 423.424218758 663.457077034 423.424218758 672.497043881 c 0
 423.424218758 700.221516663 432.932919251 728.464355174 452.074378384 748.804034046 c 1
 446.640902173 760.757681711 l 1
 471.02308661 771.840492819 471.02308661 771.840492819 473.586434273 772.405812717 c 0
 483.705307956 774.637425979 492.185592805 775.071408497 499.148389025 775.071408497 c 0
 503.515610871 775.071408497 506.846881916 774.903954038 511.279163088 774.903954038 c 0
501.752522723 723.004902236 m 1
 483.800051591 718.134660952 473.472317757 692.30172131 473.472317757 671.543443631 c 0
 473.472317757 668.492854501 473.472317757 668.492854501 475.483630893 666.481541365 c 0
 482.574584581 659.390587677 502.285567163 649.806023757 537.44229714 645.141010451 c 0
 545.53753004 646.377530032 548.398218161 669.089598943 550.573417068 688.378741036 c 0
 551.351195044 695.275889547 552.052708727 702.385863328 553.301949005 709.600633997 c 1
 551.979001869 710.608371294 532.806426333 725.011230929 517.70918916 725.011230929 c 0
 517.362435702 725.011230929 515.040011242 724.914404118 511.25623206 724.914404118 c 0
 510.479397967 724.914404118 509.727419383 724.918466669 509 724.925361833 c 1
 509 723.004902236 l 1
 501.752522723 723.004902236 l 1
179.962474225 98.9882436953 m 0
 179.962474225 98.8897472315 180.200954072 89.3983258763 180.200954072 89.1414847747 c 0
 180.200954072 75.9423817705 176.923788677 61.1287197749 163.578391785 49.286587007 c 1
 130.433414042 86.6390548127 l 2
 130.462894692 87.1727858778 130.177529888 87.9894293236 130.177529888 89.0944068133 c 0
 130.177529888 93.2597225711 129.878570145 95.9775715198 129.878570145 100.004003637 c 0
 129.878570145 104.494069859 130.267453456 110.017799616 132.004902236 116.100577449 c 1
 132.004902236 204.856967248 l 2
 131.3904422 211.803552203 131.09019441 218.713201514 131.09019441 225.574810847 c 0
 131.09019441 368.076340596 261.150611493 493.50349048 405.854142549 493.50349048 c 0
 414.037314632 493.50349048 424.707361987 493.50349048 430.502717669 491.127690772 c 0
 464.779052557 477.076144868 494.832007022 449.3313589 510.22521147 398.514721101 c 1
 519.171757126 440.326525434 535.372751985 483.468534559 570.378365651 514.674952578 c 0
 575.104755813 518.888382702 581.052377907 520.995097764 587 520.995097764 c 0
 588.163290511 520.995097764 643.174310789 514.974448377 690.41824137 467.730517796 c 0
 770.068917028 388.079842138 779.985765206 245.856958251 787.568898419 135.951568038 c 0
 788.962483856 115.75377553 790.263422078 96.9677993104 791.879467088 80.4106806147 c 1
 742.123947935 75.5543309122 l 1
 740.409372068 93.120943212 739.092179892 112.280580625 737.698141496 132.48493805 c 0
 728.500874892 265.784610703 715.334717843 432.396269784 594.661087082 468.283433148 c 1
 527.034796522 391.171432329 562.028664158 213.66090931 524.783884083 98.2913692772 c 0
 521.51636196 88.1698831607 512.033879985 81.0049022365 501 81.0049022365 c 0
 490.342551308 81.0049022365 481.152735346 87.6860349412 477.588009939 97.2229992764 c 0
 472.265731197 111.462071507 470.877595217 125.936023366 470.877595217 139.800537911 c 0
 470.877595217 155.830454977 472.930810494 174.699535306 472.930810494 192.354087474 c 0
 472.930810494 208.584033709 471.923860709 197.475991212 471.923860709 220.590452 c 0
 471.923860709 241.392976785 472.714401337 263.048801478 472.714401337 286.66635273 c 0
 472.714401337 360.002392449 464.423325862 420.601014727 415.118327678 443.298479323 c 0
 412.105731371 443.436331986 409.0953481 443.504538629 406.088998105 443.504538629 c 0
 289.028336959 443.504538629 181.092422721 340.689429234 181.092422721 225.359868 c 0
 181.092422721 216.981027291 181.995097764 206.193809007 181.995097764 206 c 2
 181.995097764 112 l 2
 181.995097764 108.793663829 181.382835945 105.587327658 180.158312309 102.572326837 c 1
 180.158312309 102.572326837 179.962474225 101.975936365 179.962474225 98.9882436953 c 0
EndSplineSet
EndChar
StartChar: NameMe.65587
Encoding: 65587 -1 76
Width: 1000
Flags: HW
LayerCount: 2
Fore
SplineSet
427.596151961 -102.873768165 m 4
 389.779468282 -102.873768165 353.138612741 -125.730538387 345.612487023 -168.371962719 c 5
 345.612487023 -168.371962719 296.377959109 -159.682167466 296.387512977 -159.628037281 c 4
 307.819211251 -94.8584712184 363.427971715 -52.8824965963 427.549968361 -52.8824965963 c 4
 429.19952111 -52.8824965963 430.852431027 -52.9104168298 432.507959406 -52.9664281243 c 4
 434.363177239 -52.83949091 436.190388279 -52.7778623173 437.989202433 -52.7778623173 c 4
 480.357612839 -52.7778623173 501.448149402 -83.9291767625 516.733337162 -106.50582809 c 4
 531.6695121 -128.566977683 539.398519397 -138.04834047 553.117229355 -138.04834047 c 4
 564.331744132 -138.04834047 570.538999821 -133.004902236 579 -133.004902236 c 4
 582.079628349 -133.004902236 583.377544822 -133.564932407 587.729168479 -133.564932407 c 4
 603.392020214 -133.564932407 618.745229273 -125.007785077 637.88780229 -109.679789115 c 5
 684.619178838 -59.054131188 l 5
 721.380821162 -92.945868812 l 5
 672.135448863 -146.295022136 672.135448863 -146.295022136 670.715950197 -147.444716548 c 4
 649.723355353 -164.447246783 622.724838314 -183.581690821 588.060283317 -183.581690821 c 4
 586.008963685 -183.581690821 583.930798869 -183.514685196 581.825444851 -183.376267015 c 4
 571.830961615 -186.396928139 562.138422506 -187.941470393 552.89396868 -187.941470393 c 4
 511.477288616 -187.941470393 490.962971335 -157.641248 475.301303791 -134.508525465 c 4
 458.847103235 -110.205209429 451.656875357 -102.705510056 439.146771053 -102.705510056 c 4
 436.298741369 -102.705510056 435.162833171 -102.995097764 433 -102.995097764 c 4
 432.945947901 -102.995097764 429.393980972 -102.873768165 427.596151961 -102.873768165 c 4
108.863893517 494.342361353 m 0
 108.863893517 659.286880484 217.050051216 770.982978337 382.255820626 770.982978337 c 0
 406.691647812 770.982978337 432.258303924 768.53830983 458.74546422 763.520256553 c 1
 466.575219633 765.04891861 474.366110027 765.84698834 481.973776243 765.84698834 c 0
 504.356028845 765.84698834 525.152338834 758.939096569 540.686487241 743.404948162 c 0
 556.294859122 727.796576281 563.995097764 706.032023166 563.995097764 682.238935073 c 0
 563.995097764 602 563.995097764 602 563.995097764 602 c 1
 514.004902236 602 l 1
 514.004902236 681.871709864 l 2
 513.83845933 697.002046281 509.167730939 715.949692737 482.206410643 715.949692737 c 0
 470.85071825 715.949692737 465.099965339 713.004902236 459 713.004902236 c 0
 452.602818312 713.004902236 423.637692039 721.084508793 381.752372434 721.084508793 c 0
 312.698200354 721.084508793 258.111093362 698.298507952 220.492467325 660.679881915 c 0
 181.811698294 621.999112883 158.761052429 565.0798332 158.761052429 494.518081567 c 0
 158.761052429 436.640999647 173.806955537 394.569812152 173.988604411 386.571880156 c 0
 174.225809748 376.127817901 174.313370833 365.666795919 174.313370833 355.215257085 c 0
 174.313370833 354.326801803 173.610243383 267.364700016 173.610243383 266.372511203 c 0
 173.610243383 214.222553559 175.995097764 196.422537832 175.995097764 192 c 2
 175.995097764 186 l 2
 175.995097764 184.382353086 175.995097764 184.382353086 167.78823533 120.779169225 c 0
 167.297538595 116.976269531 167.297538595 116.976269531 153.697952862 87.5105004432 c 1
 153.697952862 87.5105004432 108.302045389 108.462457739 108.302047138 108.489499557 c 2
 118.702461405 131.023730469 l 1
 126.004902236 187.617646914 l 1
 126.004902236 191.031738261 l 1
 124.115346702 215.807806586 123.607071273 240.882697828 123.607071273 265.902833327 c 0
 123.607071273 266.796662479 124.321243272 354.283252183 124.321243272 355.282895406 c 0
 124.321243272 364.419785047 124.253049618 373.483457935 124.07474231 382.452042359 c 1
 113.841953074 421.414951978 108.863893517 458.956025998 108.863893517 494.342361353 c 0
351.995097764 82 m 1
 302.004902236 82 l 1
 302.004902236 160 l 2
 302.004902236 160.974508147 305.443440166 178.776848416 312.060613482 256.930614127 c 0
 321.819024654 372.184748181 333.317653572 506.983404057 407.759720148 581.425470632 c 0
 441.228458935 614.894209419 487.332978145 635.009838643 546.362055143 635.009838643 c 0
 600.671523741 635.009838643 677.598162074 607.676437847 709.460289326 465.090571705 c 0
 721.258715598 412.291560021 724.142990036 356.933797548 724.142990036 313.151930002 c 0
 724.142990036 307.132457047 724.088468893 301.331802043 723.995097764 295.786699772 c 2
 723.995097764 215.612561506 l 1
 721.99211766 85.6125615057 l 1
 672.007791765 86.3815511349 l 1
 674.004902236 216.193731751 l 1
 674.004902236 296.429122378 l 2
 674.091099066 301.487526714 674.143467981 306.769649621 674.143467981 312.239534953 c 0
 674.143467981 382.544495083 665.809060925 504.310963448 612.007823581 558.112200793 c 0
 600.848246205 569.271778168 580.924502314 585.02071409 546.17405903 585.02071409 c 0
 478.052625198 585.02071409 418.906023519 554.772952079 387.756952242 436.670151886 c 0
 364.117040765 347.038595393 363.725562733 235.771405678 351.995097764 158.088905628 c 1
 351.995097764 82 l 1
EndSplineSet
EndChar
StartChar: NameMe.65591
Encoding: 65591 -1 78
Width: 1000
Flags: HW
LayerCount: 2
Fore
SplineSet
427.596151961 -102.873768165 m 4
 389.779468282 -102.873768165 353.138612741 -125.730538387 345.612487023 -168.371962719 c 5
 345.612487023 -168.371962719 296.377959109 -159.682167466 296.387512977 -159.628037281 c 4
 307.819211251 -94.8584712184 363.427971715 -52.8824965963 427.549968361 -52.8824965963 c 4
 429.19952111 -52.8824965963 430.852431027 -52.9104168298 432.507959406 -52.9664281243 c 4
 434.363177239 -52.83949091 436.190388279 -52.7778623173 437.989202433 -52.7778623173 c 4
 480.357612839 -52.7778623173 501.448149402 -83.9291767625 516.733337162 -106.50582809 c 4
 531.6695121 -128.566977683 539.398519397 -138.04834047 553.117229355 -138.04834047 c 4
 564.331744132 -138.04834047 570.538999821 -133.004902236 579 -133.004902236 c 4
 582.079628349 -133.004902236 583.377544822 -133.564932407 587.729168479 -133.564932407 c 4
 603.392020214 -133.564932407 618.745229273 -125.007785077 637.88780229 -109.679789115 c 5
 684.619178838 -59.054131188 l 5
 721.380821162 -92.945868812 l 5
 672.135448863 -146.295022136 672.135448863 -146.295022136 670.715950197 -147.444716548 c 4
 649.723355353 -164.447246783 622.724838314 -183.581690821 588.060283317 -183.581690821 c 4
 586.008963685 -183.581690821 583.930798869 -183.514685196 581.825444851 -183.376267015 c 4
 571.830961615 -186.396928139 562.138422506 -187.941470393 552.89396868 -187.941470393 c 4
 511.477288616 -187.941470393 490.962971335 -157.641248 475.301303791 -134.508525465 c 4
 458.847103235 -110.205209429 451.656875357 -102.705510056 439.146771053 -102.705510056 c 4
 436.298741369 -102.705510056 435.162833171 -102.995097764 433 -102.995097764 c 4
 432.945947901 -102.995097764 429.393980972 -102.873768165 427.596151961 -102.873768165 c 4
474.34259699 695.659326116 m 2
 474.485981255 695.66664127 475.050076189 695.695289608 475.845877569 695.695289608 c 0
 478.097967438 695.695289608 480.152578227 695.461790406 482.029279016 695.088987429 c 0
 483.347749883 695.16640862 485.021328907 695.269372101 487.036079031 695.269372101 c 0
 521.739587587 695.269372101 522.554566781 667.406411255 522.554566781 664.789023626 c 0
 522.554566781 662.120056727 522.214542341 659.692210177 521.702534733 657.506462877 c 0
 521.828671111 652.621105301 522.262971294 650.139294162 522.262971294 645.96758376 c 0
 522.262971294 619.346341277 504.367221635 609.848814245 489.714379002 609.848814245 c 0
 486.006156975 609.848814245 482.514813759 610.373652352 479.503455594 611.066532212 c 0
 476.607493236 611.018418076 473.807763473 610.865620277 470.840044049 610.865620277 c 0
 449.826042806 610.865620277 441.652213072 617.855990555 437.338607081 622.169596546 c 0
 430.733999168 628.774204512 427.878580685 638.032261307 427.878580685 646.394400811 c 0
 427.878580685 646.549237945 427.87955969 646.703767905 427.881512027 646.857968159 c 0
 427.566144274 649.337514008 427.417958878 651.792365073 427.417958878 654.221637214 c 0
 427.417958878 678.160682655 442.424103 711.270068379 472.045402902 714.821179691 c 1
 474.34259699 695.659326116 l 2
323.003255991 305.087294607 m 0
 323.003255991 231.253463131 341.995097764 135.9410281 341.995097764 122 c 2
 341.995097764 90 l 1
 292.004902236 90 l 1
 292.004902236 120.343391417 l 1
 290.37418346 132.640823844 288.616060934 144.997865237 286.847234443 157.42718325 c 0
 280.060360112 205.117684374 272.993657572 253.976358226 272.993657572 304.577481082 c 0
 272.993657572 314.273747671 273.253138593 324.033994942 273.8237917 333.862263571 c 1
 271.030273464 346.372919839 269.715502041 358.57104114 269.715502041 370.377846143 c 0
 269.715502041 475.036947218 371.665519192 547.181631103 474.339801065 547.181631103 c 0
 484.925151337 547.181631103 495.490680987 546.413172229 505.920055135 544.841297728 c 0
 713.637211275 527.70225234 723.431227336 284.856263622 723.431227336 174.91114723 c 0
 723.431227336 148.86789556 722.004886909 92.4481361531 721.992157336 91.6151491303 c 1
 672.007842664 92.3848508697 l 2
 672.020263586 93.1976407027 673.389103596 147.685692448 673.389103596 173.661588242 c 0
 673.389103596 349.732205206 636.842118406 484.373813556 501.020818721 495.08279587 c 0
 500.389824961 495.132547279 499.760364934 495.206131214 499.133908055 495.303547674 c 0
 491.312284192 496.519840341 483.313576264 497.109376866 475.248202206 497.109376866 c 0
 401.46949195 497.109376866 319.577562096 447.549522814 319.577562096 371.177957128 c 0
 319.577562096 352.199246604 323.995097764 342.707462209 323.995097764 336 c 0
 323.995097764 333.7406446 323.003255991 323.238511135 323.003255991 305.087294607 c 0
EndSplineSet
EndChar
StartChar: NameMe.65593
Encoding: 65593 -1 79
Width: 1000
Flags: HW
LayerCount: 2
Fore
SplineSet
427.596151961 -102.873768165 m 4
 389.779468282 -102.873768165 353.138612741 -125.730538387 345.612487023 -168.371962719 c 5
 345.612487023 -168.371962719 296.377959109 -159.682167466 296.387512977 -159.628037281 c 4
 307.819211251 -94.8584712184 363.427971715 -52.8824965963 427.549968361 -52.8824965963 c 4
 429.19952111 -52.8824965963 430.852431027 -52.9104168298 432.507959406 -52.9664281243 c 4
 434.363177239 -52.83949091 436.190388279 -52.7778623173 437.989202433 -52.7778623173 c 4
 480.357612839 -52.7778623173 501.448149402 -83.9291767625 516.733337162 -106.50582809 c 4
 531.6695121 -128.566977683 539.398519397 -138.04834047 553.117229355 -138.04834047 c 4
 564.331744132 -138.04834047 570.538999821 -133.004902236 579 -133.004902236 c 4
 582.079628349 -133.004902236 583.377544822 -133.564932407 587.729168479 -133.564932407 c 4
 603.392020214 -133.564932407 618.745229273 -125.007785077 637.88780229 -109.679789115 c 5
 684.619178838 -59.054131188 l 5
 721.380821162 -92.945868812 l 5
 672.135448863 -146.295022136 672.135448863 -146.295022136 670.715950197 -147.444716548 c 4
 649.723355353 -164.447246783 622.724838314 -183.581690821 588.060283317 -183.581690821 c 4
 586.008963685 -183.581690821 583.930798869 -183.514685196 581.825444851 -183.376267015 c 4
 571.830961615 -186.396928139 562.138422506 -187.941470393 552.89396868 -187.941470393 c 4
 511.477288616 -187.941470393 490.962971335 -157.641248 475.301303791 -134.508525465 c 4
 458.847103235 -110.205209429 451.656875357 -102.705510056 439.146771053 -102.705510056 c 4
 436.298741369 -102.705510056 435.162833171 -102.995097764 433 -102.995097764 c 4
 432.945947901 -102.995097764 429.393980972 -102.873768165 427.596151961 -102.873768165 c 4
484.847545731 659.279289021 m 0
 498.911330158 664.112879947 508.231534491 679.858433778 508.231534491 691.519541825 c 0
 508.231534491 693.332845844 508.004902029 693.868466954 508.004902029 696.000000917 c 0
 508.004902029 698.099287757 508.267361912 700.19857484 508.792281562 702.244160764 c 0
 507.101930739 703.004902236 506.119829876 703.004902236 505 703.004902236 c 0
 504.400685784 703.004902236 504.400685784 703.004902236 467.342176408 704.769593159 c 1
 460.878516863 697.226873109 457.175892063 686.942615339 457.175892063 676.546787669 c 0
 457.175892063 671.235244737 457.995097764 669.745676252 457.995097764 666 c 0
 457.995097764 664.328973728 457.8288003 662.657947455 457.496205374 661.0140055 c 1
 467.931057702 659.620588662 479.803641423 659.615313484 484.847545731 659.279289021 c 0
407.160415258 676.813063869 m 0
 407.160415258 735.719540947 457.979251304 764.995097764 477 764.995097764 c 2
 489 764.995097764 l 1
 489 753.785541298 l 1
 505.380820405 753.005502231 l 2
 505.567579867 753.007274707 505.754369813 753.008162079 505.94118223 753.008162079 c 0
 535.012413218 753.008162079 558.86106934 731.590378714 558.86106934 702.666825788 c 0
 558.86106934 699.930167946 558.639337314 697.148667127 558.17738924 694.345106705 c 0
 558.229507093 693.205553727 558.25521733 692.069923288 558.25521733 690.938706283 c 0
 558.25521733 653.241241182 528.943571318 617.053375412 492.032283844 609.513205094 c 0
 490.373425393 609.174336522 488.686712696 609.004902236 487 609.004902236 c 0
 486.578714135 609.004902236 456.42879549 609.892594551 444.994908408 612.228267646 c 0
 425.764413452 616.156603596 405.907895111 628.657011501 405.907895111 655.070468423 c 0
 405.907895111 659.527826866 406.523806394 663.847424471 407.564809978 668.065141078 c 0
 407.294651682 670.981093741 407.160415258 673.900407177 407.160415258 676.813063869 c 0
475.994016328 495.97310934 m 1
 367.513020455 445.800655015 275.897399173 310.825732846 275.897399173 192.97458035 c 0
 275.897399173 191.042201563 275.922164761 189.114871087 275.972024034 187.193058374 c 2
 275.972024034 187.193058374 283.937430504 69.7033129438 283.939136519 69.6781492272 c 2
 234.062569496 66.2966870562 l 1
 225.902967451 186.650817228 225.902967451 186.650817228 225.902967451 193.268529406 c 0
 225.902967451 339.250265384 338.219696345 491.783876143 463.187526385 544.998255001 c 0
 466.313762969 546.329483509 469.656881484 546.995097764 473 546.995097764 c 0
 474.275696471 546.995097764 535.677921339 541.973190116 587.302877112 490.348234343 c 0
 665.596081213 412.055030241 681.852777582 274.744823823 695.343101312 159.766170572 c 0
 698.120007532 136.098470391 700.747834644 113.745855366 703.722814124 93.6925754527 c 2
 703.7300294 93.6439398391 l 1
 654.277185876 86.3074245473 l 1
 651.139893312 107.454799299 648.473351081 130.226339118 645.695777159 153.899730149 c 0
 628.284344949 302.298172381 606.663724805 468.072583223 475.994016328 495.97310934 c 1
EndSplineSet
EndChar
StartChar: NameMe.65597
Encoding: 65597 -1 81
Width: 1000
Flags: HW
LayerCount: 2
Fore
SplineSet
427.596151961 -102.873768165 m 4
 389.779468282 -102.873768165 353.138612741 -125.730538387 345.612487023 -168.371962719 c 5
 345.612487023 -168.371962719 296.377959109 -159.682167466 296.387512977 -159.628037281 c 4
 307.819211251 -94.8584712184 363.427971715 -52.8824965963 427.549968361 -52.8824965963 c 4
 429.19952111 -52.8824965963 430.852431027 -52.9104168298 432.507959406 -52.9664281243 c 4
 434.363177239 -52.83949091 436.190388279 -52.7778623173 437.989202433 -52.7778623173 c 4
 480.357612839 -52.7778623173 501.448149402 -83.9291767625 516.733337162 -106.50582809 c 4
 531.6695121 -128.566977683 539.398519397 -138.04834047 553.117229355 -138.04834047 c 4
 564.331744132 -138.04834047 570.538999821 -133.004902236 579 -133.004902236 c 4
 582.079628349 -133.004902236 583.377544822 -133.564932407 587.729168479 -133.564932407 c 4
 603.392020214 -133.564932407 618.745229273 -125.007785077 637.88780229 -109.679789115 c 5
 684.619178838 -59.054131188 l 5
 721.380821162 -92.945868812 l 5
 672.135448863 -146.295022136 672.135448863 -146.295022136 670.715950197 -147.444716548 c 4
 649.723355353 -164.447246783 622.724838314 -183.581690821 588.060283317 -183.581690821 c 4
 586.008963685 -183.581690821 583.930798869 -183.514685196 581.825444851 -183.376267015 c 4
 571.830961615 -186.396928139 562.138422506 -187.941470393 552.89396868 -187.941470393 c 4
 511.477288616 -187.941470393 490.962971335 -157.641248 475.301303791 -134.508525465 c 4
 458.847103235 -110.205209429 451.656875357 -102.705510056 439.146771053 -102.705510056 c 4
 436.298741369 -102.705510056 435.162833171 -102.995097764 433 -102.995097764 c 4
 432.945947901 -102.995097764 429.393980972 -102.873768165 427.596151961 -102.873768165 c 4
641.188582519 702.035761314 m 1
 641.188582519 702.035761314 690.816515507 696.006199362 690.811417481 695.964238686 c 0
 664.811417481 481.964238686 664.811417481 481.964238686 664.811417481 481.964238686 c 2
 664.811417481 481.964238686 615.183484493 487.993800638 615.188582519 488.035761314 c 0
 641.188582519 702.035761314 641.188582519 702.035761314 641.188582519 702.035761314 c 1
410.995097764 339 m 0
 410.995097764 336.003954132 409.67923396 327.347124215 409.67923396 313.791588137 c 0
 409.67923396 255.878970338 434.553470892 205.652108949 534.107910746 184.567354856 c 0
 580.866804061 174.664232819 631.080007704 173.212233688 694.485247205 171.990422911 c 0
 695.129969476 171.977999197 695.129969476 171.977999197 865.773077959 159.932603304 c 1
 862.25305083 110.065552311 l 1
 692.862654743 122.022521447 692.862654743 122.022521447 687.788329264 122.11875747 c 0
 592.870957089 123.918892382 472.281014026 126.274925893 405.868093949 192.68784597 c 0
 376.646305365 221.909634554 359.766465852 262.667852076 359.766465852 315.005952716 c 0
 359.766465852 323.066896571 360.166875183 331.402528657 360.984272826 340.013007732 c 0
 360.932255066 343.331948888 360.906788878 346.647940405 360.906788878 349.960943631 c 0
 360.906788878 430.825493614 376.078570053 509.909734416 390.639023596 586.65161797 c 0
 397.444104337 622.518269407 404.147626245 657.889590798 409.273714163 692.669097457 c 1
 409.273714163 692.669097457 458.733422217 685.379321487 458.726285837 685.330902543 c 0
 453.396720141 649.170838849 446.553523149 613.143235908 439.748296206 577.275813898 c 0
 425.163337149 500.404772592 410.898976829 424.342139426 410.898976829 349.745676611 c 0
 410.898976829 343.584428238 410.995097764 339.646566307 410.995097764 339 c 0
154.85329103 175.072702215 m 0
 154.85329103 174.234912651 155.736708578 129.93630547 155.736708578 129.480295827 c 0
 155.736708578 117.113072386 155.154087877 104.216594313 152.995097764 90.8974315467 c 1
 152.995097764 59 l 1
 103.004902236 59 l 1
 103.004902236 93 l 2
 103.004902236 98.6825227683 105.693193589 104.180824816 105.693193589 130.18084476 c 0
 105.693193589 130.88110814 104.819970698 175.090403278 104.819970698 175.544120069 c 0
 104.819970698 186.9059065 105.304322269 198.735327054 107.024461225 210.954567766 c 0
 107.140875893 222.096060522 107.191177439 233.305173696 107.191177439 244.56820569 c 0
 107.191177439 257.61421989 107.123689465 270.732575244 107.013285644 283.901978655 c 0
 106.109419066 295.507039283 105.663968227 307.0228621 105.663968227 318.430611593 c 0
 105.663968227 526.680647904 253.880494635 697.06004678 467.327002551 719.852820914 c 0
 468.600991712 719.988863183 468.600991712 719.988863183 899.882853692 721.994825332 c 1
 900.117146308 672.005174668 l 1
 471.418607576 670.011227976 l 1
 283.898714524 649.388247912 155.650782126 500.614293881 155.650782126 318.507632345 c 0
 155.650782126 299.357132499 156.968863748 288.184089588 156.994182235 285.21474982 c 0
 157.109927857 271.640159471 157.181473268 258.085015156 157.181473268 244.570364757 c 0
 157.181473268 213.308214452 156.976303403 206.993806032 156.715794366 205.260413357 c 0
 155.287091645 195.754014389 154.85329103 185.691548131 154.85329103 175.072702215 c 0
EndSplineSet
EndChar
StartChar: NameMe.65599
Encoding: 65599 -1 82
Width: 1000
Flags: HW
LayerCount: 2
Fore
SplineSet
427.596151961 -102.873768165 m 4
 389.779468282 -102.873768165 353.138612741 -125.730538387 345.612487023 -168.371962719 c 5
 345.612487023 -168.371962719 296.377959109 -159.682167466 296.387512977 -159.628037281 c 4
 307.819211251 -94.8584712184 363.427971715 -52.8824965963 427.549968361 -52.8824965963 c 4
 429.19952111 -52.8824965963 430.852431027 -52.9104168298 432.507959406 -52.9664281243 c 4
 434.363177239 -52.83949091 436.190388279 -52.7778623173 437.989202433 -52.7778623173 c 4
 480.357612839 -52.7778623173 501.448149402 -83.9291767625 516.733337162 -106.50582809 c 4
 531.6695121 -128.566977683 539.398519397 -138.04834047 553.117229355 -138.04834047 c 4
 564.331744132 -138.04834047 570.538999821 -133.004902236 579 -133.004902236 c 4
 582.079628349 -133.004902236 583.377544822 -133.564932407 587.729168479 -133.564932407 c 4
 603.392020214 -133.564932407 618.745229273 -125.007785077 637.88780229 -109.679789115 c 5
 684.619178838 -59.054131188 l 5
 721.380821162 -92.945868812 l 5
 672.135448863 -146.295022136 672.135448863 -146.295022136 670.715950197 -147.444716548 c 4
 649.723355353 -164.447246783 622.724838314 -183.581690821 588.060283317 -183.581690821 c 4
 586.008963685 -183.581690821 583.930798869 -183.514685196 581.825444851 -183.376267015 c 4
 571.830961615 -186.396928139 562.138422506 -187.941470393 552.89396868 -187.941470393 c 4
 511.477288616 -187.941470393 490.962971335 -157.641248 475.301303791 -134.508525465 c 4
 458.847103235 -110.205209429 451.656875357 -102.705510056 439.146771053 -102.705510056 c 4
 436.298741369 -102.705510056 435.162833171 -102.995097764 433 -102.995097764 c 4
 432.945947901 -102.995097764 429.393980972 -102.873768165 427.596151961 -102.873768165 c 4
542.361689876 509.491779903 m 0
 542.361689876 515.096616228 542.004902236 521.874866924 542.004902236 522 c 2
 542.004902236 556 l 1
 591.995097764 556 l 1
 591.995097764 522.712165929 l 2
 592.248999044 518.101727862 592.36726478 513.533830158 592.36726478 509.007324098 c 0
 592.36726478 445.32858271 568.631547927 387.767408 568.631547927 330.145331204 c 0
 568.631547927 323.031433135 569.00061379 315.965661304 569.829274142 308.885277653 c 1
 520.175492583 303.07399367 l 1
 519.073794794 312.487311192 518.594128972 321.733405359 518.594128972 330.817986258 c 0
 518.594128972 394.294560922 542.361689876 452.143802546 542.361689876 509.491779903 c 0
498.823104313 44.8633822223 m 0
 348.178266613 44.8633822223 270.310308953 173.60806167 270.310308953 387.656687108 c 0
 270.310308953 406.871568654 270.957181196 425.395396444 272.004902236 442.763925686 c 1
 272.004902236 564 l 1
 321.995097764 564 l 1
 321.995097764 442 l 2
 321.995097764 441.464425058 320.344068562 416.673640875 320.344068562 388.467960219 c 0
 320.344068562 311.054527662 331.581402208 196.14210142 391.783485666 135.940017962 c 0
 416.9759218 110.747581828 450.262027245 94.8450038622 498.355380787 94.8450038622 c 0
 502.223901497 94.8450038622 506.913540779 94.9950977635 507 94.9950977635 c 0
 507.271764974 94.9950977635 507.271764974 94.9950977635 785.543460921 88.9892338222 c 1
 784.464785116 39.0105882058 l 1
 507.143244227 44.9959452034 l 2
 504.343401206 44.9073235074 501.570013607 44.8633822223 498.823104313 44.8633822223 c 0
655 723.004902236 m 2
 654.882036318 723.004902236 648.60814264 723.301204178 643.20735368 723.301204178 c 0
 591.969613337 723.301204178 538.193902785 705.828277567 479.948102123 703.180831165 c 1
 382.844118263 668.69961768 221.528666776 706.172936091 183.64144007 622.066858501 c 0
 183.603767566 621.185791909 183.585523005 620.341811445 183.585523005 619.532732056 c 0
 183.585523005 601.049082203 193.603713547 586.046320716 262.755986076 586.046320716 c 0
 267.227976452 586.046320716 320.771328607 587.221439564 321.357461168 587.221439564 c 0
 325.412376955 587.221439564 329.384388346 587.159397448 333.257463717 587.005965381 c 0
 342.710707501 587.200438732 352.181245628 587.289751772 361.664883555 587.289751772 c 0
 469.056758879 587.289751772 579.115706072 575.789943581 685.909123802 575.789943581 c 0
 715.385831081 575.789943581 744.475632059 576.671565343 773.054093199 578.919822209 c 1
 776.974780715 529.082449291 l 1
 746.678495773 526.699051869 716.150306881 525.772705658 685.530888223 525.772705658 c 0
 577.857540952 525.772705658 467.352731972 537.296884629 361.439798487 537.296884629 c 0
 345.432994386 537.296884629 333.284412973 537.004902236 333 537.004902236 c 0
 332.887613367 537.004902236 327.801092308 537.217204792 321.763342087 537.217204792 c 0
 304.076332358 537.217204792 282.47821818 535.976988906 261.87299652 535.976988906 c 0
 208.514000378 535.976988906 175.773073953 544.623863336 154.733880184 565.663057105 c 0
 140.882690992 579.514246297 133.663240334 598.7578671 133.663240334 620.702690281 c 0
 133.663240334 624.660463975 133.663240334 631.991772146 135.798143435 637.319734886 c 0
 186.422646352 763.660581543 376.995533024 717.419095234 466.076436356 751.35668118 c 0
 468.678917919 752.348161266 471.41421411 752.889649221 474.161766708 752.981145044 c 0
 529.455597617 754.82247633 584.61315039 773.305406148 642.707891918 773.305406148 c 0
 646.987166141 773.305406148 651.294335793 773.206717599 655.630304966 772.995097764 c 2
 725 772.995097764 l 1
 725 723.004902236 l 1
 655 723.004902236 l 2
EndSplineSet
EndChar
StartChar: NameMe.65601
Encoding: 65601 -1 83
Width: 1000
Flags: HW
LayerCount: 2
Fore
SplineSet
427.596151961 -102.873768165 m 4
 389.779468282 -102.873768165 353.138612741 -125.730538387 345.612487023 -168.371962719 c 5
 345.612487023 -168.371962719 296.377959109 -159.682167466 296.387512977 -159.628037281 c 4
 307.819211251 -94.8584712184 363.427971715 -52.8824965963 427.549968361 -52.8824965963 c 4
 429.19952111 -52.8824965963 430.852431027 -52.9104168298 432.507959406 -52.9664281243 c 4
 434.363177239 -52.83949091 436.190388279 -52.7778623173 437.989202433 -52.7778623173 c 4
 480.357612839 -52.7778623173 501.448149402 -83.9291767625 516.733337162 -106.50582809 c 4
 531.6695121 -128.566977683 539.398519397 -138.04834047 553.117229355 -138.04834047 c 4
 564.331744132 -138.04834047 570.538999821 -133.004902236 579 -133.004902236 c 4
 582.079628349 -133.004902236 583.377544822 -133.564932407 587.729168479 -133.564932407 c 4
 603.392020214 -133.564932407 618.745229273 -125.007785077 637.88780229 -109.679789115 c 5
 684.619178838 -59.054131188 l 5
 721.380821162 -92.945868812 l 5
 672.135448863 -146.295022136 672.135448863 -146.295022136 670.715950197 -147.444716548 c 4
 649.723355353 -164.447246783 622.724838314 -183.581690821 588.060283317 -183.581690821 c 4
 586.008963685 -183.581690821 583.930798869 -183.514685196 581.825444851 -183.376267015 c 4
 571.830961615 -186.396928139 562.138422506 -187.941470393 552.89396868 -187.941470393 c 4
 511.477288616 -187.941470393 490.962971335 -157.641248 475.301303791 -134.508525465 c 4
 458.847103235 -110.205209429 451.656875357 -102.705510056 439.146771053 -102.705510056 c 4
 436.298741369 -102.705510056 435.162833171 -102.995097764 433 -102.995097764 c 4
 432.945947901 -102.995097764 429.393980972 -102.873768165 427.596151961 -102.873768165 c 4
485 611.004902236 m 0
 469.675080831 611.004902236 438.004902236 623.792661351 438.004902236 674 c 0
 438.004902236 682.026141568 440.75179013 687.890421746 452.235266027 699.373897642 c 0
 456.313017099 703.451648714 469.856466148 716.995097764 483 716.995097764 c 2
 493 716.995097764 l 1
 493 714.675640872 l 1
 505.319351024 712.622415702 524.110301548 699.804222443 524.110301548 677.481231799 c 0
 524.110301548 676.768129764 524.088700812 676.052436046 524.044601097 675.335171911 c 0
 524.080150398 674.246613335 524.098560864 673.148050422 524.098560864 672.040528075 c 0
 524.098560864 634.687620616 504.141274401 611.004902236 485 611.004902236 c 0
606.100456949 520.19168182 m 1
 606.100456949 520.19168182 655.90231687 515.840062992 655.899543051 515.80831818 c 0
 637.899543051 309.80831818 637.899543051 309.80831818 637.899543051 309.80831818 c 1
 637.899543051 309.80831818 588.09768313 314.159937008 588.100456949 314.19168182 c 0
 606.100456949 520.19168182 606.100456949 520.19168182 606.100456949 520.19168182 c 1
429.488511741 13.0432795893 m 0
 319.698588362 13.0432795893 228.589060718 77.2108343452 228.589060718 183.945889819 c 0
 228.589060718 195.694619179 229.706683471 207.907692661 232.035915049 220.530602851 c 1
 233.259600338 307.988448974 243.61695114 395.792977008 258.004902236 480.137110632 c 1
 258.004902236 486 l 1
 307.995097764 486 l 1
 307.995097764 478 l 2
 307.995097764 469.515395354 283.636825189 352.207587987 281.993217833 217.692274722 c 0
 281.929605249 212.48612457 278.42666532 201.30855913 278.42666532 182.868671479 c 0
 278.42666532 100.514573308 355.821935177 63.1614218125 430.494287299 63.1614218125 c 0
 461.273347559 63.1614218125 478.649354602 68.9950977635 485 68.9950977635 c 2
 679.198279662 68.9950977635 l 2
 730.126366121 68.5941590247 774.287522261 60.5376872383 821.764858316 60.5376872383 c 0
 827.747676465 60.5376872383 833.742009413 60.6694808976 839.766661463 60.9648810873 c 1
 842.233338537 11.0351189127 l 1
 835.210589521 10.6907801237 828.297793464 10.539364472 821.482182778 10.539364472 c 0
 771.885055959 10.539364472 726.490266956 18.6196014659 678.89947082 19.0049022365 c 2
 487.620617494 19.0049022365 l 1
 468.36984204 15.0431587465 448.809260892 13.0432795893 429.488511741 13.0432795893 c 0
733.759281511 491.565233885 m 0
 557.647455031 491.565233885 334.304020094 471.425883123 169.674721811 467.013941485 c 1
 168.325278189 516.986058515 l 1
 245.608358857 519.057187075 324.806889582 523.754680687 404.792358748 528.503700556 c 0
 513.815896419 534.976813135 624.29462166 541.558261775 733.523232099 541.558261775 c 0
 751.477337113 541.558261775 769.397666409 541.380443578 787.272205702 540.995097764 c 2
 857.803581635 540.995097764 l 1
 857.803581635 540.995097764 940.613032412 548.881712123 940.647283186 548.884974102 c 2
 945.386967588 499.118287877 l 1
 860.196418365 491.004902236 860.196418365 491.004902236 859 491.004902236 c 2
 787 491.004902236 l 2
 786.46756333 491.004902236 764.148599412 491.565233885 733.759281511 491.565233885 c 0
EndSplineSet
EndChar
StartChar: NameMe.65605
Encoding: 65605 -1 85
Width: 1000
Flags: HW
LayerCount: 2
Fore
SplineSet
427.596151961 -102.873768165 m 4
 389.779468282 -102.873768165 353.138612741 -125.730538387 345.612487023 -168.371962719 c 5
 345.612487023 -168.371962719 296.377959109 -159.682167466 296.387512977 -159.628037281 c 4
 307.819211251 -94.8584712184 363.427971715 -52.8824965963 427.549968361 -52.8824965963 c 4
 429.19952111 -52.8824965963 430.852431027 -52.9104168298 432.507959406 -52.9664281243 c 4
 434.363177239 -52.83949091 436.190388279 -52.7778623173 437.989202433 -52.7778623173 c 4
 480.357612839 -52.7778623173 501.448149402 -83.9291767625 516.733337162 -106.50582809 c 4
 531.6695121 -128.566977683 539.398519397 -138.04834047 553.117229355 -138.04834047 c 4
 564.331744132 -138.04834047 570.538999821 -133.004902236 579 -133.004902236 c 4
 582.079628349 -133.004902236 583.377544822 -133.564932407 587.729168479 -133.564932407 c 4
 603.392020214 -133.564932407 618.745229273 -125.007785077 637.88780229 -109.679789115 c 5
 684.619178838 -59.054131188 l 5
 721.380821162 -92.945868812 l 5
 672.135448863 -146.295022136 672.135448863 -146.295022136 670.715950197 -147.444716548 c 4
 649.723355353 -164.447246783 622.724838314 -183.581690821 588.060283317 -183.581690821 c 4
 586.008963685 -183.581690821 583.930798869 -183.514685196 581.825444851 -183.376267015 c 4
 571.830961615 -186.396928139 562.138422506 -187.941470393 552.89396868 -187.941470393 c 4
 511.477288616 -187.941470393 490.962971335 -157.641248 475.301303791 -134.508525465 c 4
 458.847103235 -110.205209429 451.656875357 -102.705510056 439.146771053 -102.705510056 c 4
 436.298741369 -102.705510056 435.162833171 -102.995097764 433 -102.995097764 c 4
 432.945947901 -102.995097764 429.393980972 -102.873768165 427.596151961 -102.873768165 c 4
183.657700602 417.332864537 m 0
 183.657700602 416.704648204 182.843866591 358.338302282 182.843866591 354.516502862 c 0
 182.843866591 305.889017284 186.800003613 257.198033412 214.851033231 243.868110145 c 0
 224.743832402 241.767524405 234.360621152 240.762832274 243.671569938 240.762832274 c 0
 280.081067436 240.762832274 311.813905683 256.125777965 337.086437981 281.398309969 c 0
 354.23612666 298.547998648 368.27340764 320.500831092 377.664064335 344.977826814 c 1
 377.664064335 344.977826814 424.352617263 327.065654213 424.335935665 327.022173186 c 0
 412.603595044 296.441516207 395.051990502 268.653184371 372.44177704 246.04297091 c 0
 338.877448678 212.478642547 293.863236752 190.854245627 243.081833106 190.854245627 c 0
 242.620534277 190.854245627 210.204881756 191.569453026 197.354025979 196.931559767 c 0
 137.700155339 221.822541927 132.786017387 296.452054179 132.786017387 352.61377547 c 0
 132.786017387 373.809362849 133.61328169 395.478743142 133.61328169 416.332735197 c 0
 133.61328169 440.588505232 132.004902236 453.622984122 132.004902236 454 c 0
 132.004902236 454.222603914 132.648144997 464.146744972 132.648144997 476.251095762 c 0
 132.648144997 499.411194178 130.897105906 523.569854411 130.897105906 546.438244941 c 0
 130.897105906 581.362518388 134.826906943 618.602088902 155.287775115 654.402438208 c 1
 198.712224885 629.597561792 l 1
 184.251605766 604.295838946 181.023395025 576.239955169 181.023395025 544.450933511 c 0
 181.023395025 521.417269202 182.653355723 499.498190626 182.653355723 476.468186183 c 0
 182.653355723 469.270053207 182.494562781 461.978264026 182.076763141 454.604184745 c 0
 183.297116624 442.791347747 183.657700602 430.268290732 183.657700602 417.332864537 c 0
432.624324964 347.782449312 m 0
 432.624324964 275.628044749 456.628798224 221.905302613 495.478671099 183.055429738 c 0
 548.374967167 130.15913367 633.322926088 102.322726897 733.101181568 102.322726897 c 0
 750.46043362 102.322726897 768.268575785 103.165291829 786.43491942 104.865042983 c 2
 786.43491942 104.865042983 804.220107963 106.841175043 804.259148929 106.845512928 c 1
 809.779892037 57.1588249568 l 1
 776.857643853 53.5007973809 759.43806722 52.2993054651 732.46152685 52.2993054651 c 0
 623.798260288 52.2993054651 525.571151717 82.2522710021 460.12333204 147.700090679 c 0
 410.91627146 196.907151258 382.758053273 264.772668782 382.758053273 348.841929816 c 0
 382.758053273 369.660858347 384.484874817 391.473492277 388.046485868 414.242552606 c 1
 389.712262444 492.641691066 393.872252698 575.422862436 406.330893485 652.038017142 c 1
 406.330893485 652.038017142 455.677500799 644.013604005 455.669106515 643.961982858 c 0
 438.932661794 541.040217569 438.052852626 410.357286102 437.678600782 408.020809023 c 0
 434.255026353 386.647225156 432.624324964 366.588776058 432.624324964 347.782449312 c 0
635.997359125 650.982548444 m 0
 635.997359125 651.132568232 636.004906989 662.023821816 636.004906989 665.984525338 c 1
 685.995092862 666.015713807 l 2
 685.995490069 665.379052492 685.995661882 664.743077579 685.995661882 664.107793009 c 0
 685.995661882 660.170995678 685.989308993 656.706711559 685.989308993 652.754357085 c 0
 685.989308993 634.160549802 686.133831934 616.20422754 687.643892839 598.975451678 c 0
 690.26109866 590.098310115 691.121104905 581.612191603 691.121104905 573.767823323 c 0
 691.121104905 557.478892019 687.279290584 542.829227231 687.279290584 529.152511628 c 0
 687.279290584 527.679255361 687.329003205 526.28322807 687.434463994 524.954372463 c 0
 694.673231479 517.602924556 697.131256591 509.309891649 698.979082797 503.075584499 c 1
 652.725509816 489.366191906 l 1
 660.102922262 485.485972766 l 1
 657.070767881 486.088013478 654.128986237 487.255126771 651.44722418 488.987312644 c 1
 651.038207196 488.866081482 l 1
 650.685082929 490.057464274 644.168216811 493.111208662 641.207427616 502.318334584 c 0
 638.119444116 511.920994907 637.129284508 521.076755294 637.129284508 529.490547909 c 0
 637.129284508 545.765603019 640.969580004 560.412437441 640.969580004 574.073037791 c 0
 640.969580004 590.128999147 635.997359125 575.469299421 635.997359125 650.982548444 c 0
296.717797672 613.063555708 m 1
 293.282202329 662.936444292 l 1
 526.96241229 678.914578306 l 1
 759.274649657 700.755899768 l 1
 759.274649657 700.755899768 825.929924438 714.479044576 825.988006995 714.491002749 c 2
 836.070075562 665.520955424 l 1
 766.725350343 651.244100232 766.725350343 651.244100232 765.356659095 651.115419858 c 0
 531.03758771 629.085421694 531.03758771 629.085421694 530.717797672 629.063555708 c 2
 296.717797672 613.063555708 l 1
EndSplineSet
EndChar
StartChar: NameMe.65609
Encoding: 65609 -1 87
Width: 1000
Flags: HW
LayerCount: 2
Fore
SplineSet
427.596151961 -102.873768165 m 4
 389.779468282 -102.873768165 353.138612741 -125.730538387 345.612487023 -168.371962719 c 5
 345.612487023 -168.371962719 296.377959109 -159.682167466 296.387512977 -159.628037281 c 4
 307.819211251 -94.8584712184 363.427971715 -52.8824965963 427.549968361 -52.8824965963 c 4
 429.19952111 -52.8824965963 430.852431027 -52.9104168298 432.507959406 -52.9664281243 c 4
 434.363177239 -52.83949091 436.190388279 -52.7778623173 437.989202433 -52.7778623173 c 4
 480.357612839 -52.7778623173 501.448149402 -83.9291767625 516.733337162 -106.50582809 c 4
 531.6695121 -128.566977683 539.398519397 -138.04834047 553.117229355 -138.04834047 c 4
 564.331744132 -138.04834047 570.538999821 -133.004902236 579 -133.004902236 c 4
 582.079628349 -133.004902236 583.377544822 -133.564932407 587.729168479 -133.564932407 c 4
 603.392020214 -133.564932407 618.745229273 -125.007785077 637.88780229 -109.679789115 c 5
 684.619178838 -59.054131188 l 5
 721.380821162 -92.945868812 l 5
 672.135448863 -146.295022136 672.135448863 -146.295022136 670.715950197 -147.444716548 c 4
 649.723355353 -164.447246783 622.724838314 -183.581690821 588.060283317 -183.581690821 c 4
 586.008963685 -183.581690821 583.930798869 -183.514685196 581.825444851 -183.376267015 c 4
 571.830961615 -186.396928139 562.138422506 -187.941470393 552.89396868 -187.941470393 c 4
 511.477288616 -187.941470393 490.962971335 -157.641248 475.301303791 -134.508525465 c 4
 458.847103235 -110.205209429 451.656875357 -102.705510056 439.146771053 -102.705510056 c 4
 436.298741369 -102.705510056 435.162833171 -102.995097764 433 -102.995097764 c 4
 432.945947901 -102.995097764 429.393980972 -102.873768165 427.596151961 -102.873768165 c 4
479.086974425 209.644155089 m 0
 479.086974425 156.762775031 509.539655275 90.1885892079 571.215703126 91.0001161533 c 0
 722.673664121 92.9929840612 722.673664121 92.9929840612 722.673664121 92.9929840612 c 1
 723.331373356 43.0070822214 l 1
 571.000028682 41.0027224231 l 2
 558.216494177 41.0027224231 515.829617708 43.9668897323 479.268136003 80.5283714376 c 0
 446.142396641 113.654111306 428.97063133 161.51917553 428.97063133 208.573904669 c 0
 428.97063133 219.787421737 429.945827721 230.954919316 431.912701694 241.865953386 c 1
 431.491350584 253.07895278 431.270494599 264.295113995 431.270494599 275.508584946 c 0
 431.270494599 333.760407702 437.230519696 391.939630939 452.004902236 449.225867272 c 1
 452.004902236 482 l 1
 501.995097764 482 l 1
 501.995097764 446 l 2
 501.995097764 436.039405726 481.260736249 380.856729681 481.260736249 275.506923799 c 0
 481.260736249 256.921932503 481.995097764 240.355145171 481.995097764 240 c 0
 481.995097764 234.545346943 479.086974425 227.047920033 479.086974425 209.644155089 c 0
532.633033096 467.506667743 m 0
 492.653595485 467.506667743 447.346693846 463.235378283 403.869435392 463.235378283 c 0
 342.510337408 463.235378283 239.455534851 469.64815655 216.675298974 566.230973317 c 0
 216.228367816 568.125855812 216.004902236 570.062927906 216.004902236 572 c 0
 216.004902236 583.742345957 232.942642678 615.263562319 256.562896399 638.883816041 c 0
 327.234969335 709.555888977 448.483844374 718.186240411 553.353825036 725.650761526 c 0
 619.9040142 730.387725232 636.160320188 732.995097764 637 732.995097764 c 2
 671 732.995097764 l 1
 671 683.004902236 l 1
 638.609148529 683.004902236 l 1
 566.325578369 673.822046271 469.103348505 674.537370868 390.986915872 654.193369916 c 0
 317.701434772 635.107502231 284.371894877 603.295947177 267.559608701 569.852384543 c 1
 281.602855778 527.708694615 326.299325754 513.325666233 403.849072401 513.325666233 c 0
 448.301571988 513.325666233 494.318257376 517.64118441 532.396531384 517.64118441 c 0
 569.801911445 517.64118441 563.425194505 514.692592067 593.007661931 514.692592067 c 0
 608.003613966 514.692592067 623.083329076 515.21177838 637.66070509 515.21177838 c 0
 661.029781095 515.21177838 685.800419592 513.912596583 712.322638328 506.995097764 c 1
 733 506.995097764 l 2
 734.567526719 506.995097764 734.567526719 506.995097764 784.121888143 500.800802586 c 1
 784.121888143 500.800802586 777.921017102 451.193834259 777.878111857 451.199197414 c 0
 731.432473281 457.004902236 731.432473281 457.004902236 731.432473281 457.004902236 c 1
 709 457.004902236 l 2
 698.300977257 457.004902236 690.127676119 465.191051948 636.654837006 465.191051948 c 0
 636.553739703 465.191051948 593.508952398 464.698705989 593.073107292 464.698705989 c 0
 557.873430098 464.698705989 569.728233496 467.506667743 532.633033096 467.506667743 c 0
EndSplineSet
EndChar
StartChar: NameMe.65611
Encoding: 65611 -1 88
Width: 1000
Flags: HW
LayerCount: 2
Fore
SplineSet
427.596151961 -102.873768165 m 4
 389.779468282 -102.873768165 353.138612741 -125.730538387 345.612487023 -168.371962719 c 5
 345.612487023 -168.371962719 296.377959109 -159.682167466 296.387512977 -159.628037281 c 4
 307.819211251 -94.8584712184 363.427971715 -52.8824965963 427.549968361 -52.8824965963 c 4
 429.19952111 -52.8824965963 430.852431027 -52.9104168298 432.507959406 -52.9664281243 c 4
 434.363177239 -52.83949091 436.190388279 -52.7778623173 437.989202433 -52.7778623173 c 4
 480.357612839 -52.7778623173 501.448149402 -83.9291767625 516.733337162 -106.50582809 c 4
 531.6695121 -128.566977683 539.398519397 -138.04834047 553.117229355 -138.04834047 c 4
 564.331744132 -138.04834047 570.538999821 -133.004902236 579 -133.004902236 c 4
 582.079628349 -133.004902236 583.377544822 -133.564932407 587.729168479 -133.564932407 c 4
 603.392020214 -133.564932407 618.745229273 -125.007785077 637.88780229 -109.679789115 c 5
 684.619178838 -59.054131188 l 5
 721.380821162 -92.945868812 l 5
 672.135448863 -146.295022136 672.135448863 -146.295022136 670.715950197 -147.444716548 c 4
 649.723355353 -164.447246783 622.724838314 -183.581690821 588.060283317 -183.581690821 c 4
 586.008963685 -183.581690821 583.930798869 -183.514685196 581.825444851 -183.376267015 c 4
 571.830961615 -186.396928139 562.138422506 -187.941470393 552.89396868 -187.941470393 c 4
 511.477288616 -187.941470393 490.962971335 -157.641248 475.301303791 -134.508525465 c 4
 458.847103235 -110.205209429 451.656875357 -102.705510056 439.146771053 -102.705510056 c 4
 436.298741369 -102.705510056 435.162833171 -102.995097764 433 -102.995097764 c 4
 432.945947901 -102.995097764 429.393980972 -102.873768165 427.596151961 -102.873768165 c 4
463 643.004902236 m 0
 432.91330808 643.004902236 417.177278008 660.170808972 417.177278008 679.48166866 c 0
 417.177278008 681.754880265 417.395557404 683.957934064 417.773760048 686.062490198 c 0
 417.752245587 686.687774895 417.741632522 687.309862047 417.741632522 687.928657904 c 0
 417.741632522 693.893911006 418.727920629 699.553298953 420.442191019 704.822830933 c 1
 420.442191019 704.822830933 417.271920467 705.879587783 417.289783703 705.933177493 c 0
 423.087336215 723.325835029 424.069901915 726.273532127 431.498942726 731.046002322 c 0
 435.918647855 733.88525257 440.329945452 735.730677238 444.528228563 736.92389419 c 0
 447.652264134 739.130285734 450.975750877 741.059796334 454.496706452 742.69159401 c 1
 456.259830982 738.88727241 l 1
 458.675961855 738.88727241 460.900888076 739.032508569 462.871138192 739.032508569 c 0
 463.046723167 739.032508569 463.220285494 739.031355098 463.39178025 739.028842565 c 0
 464.972267849 739.113267261 465.902742293 739.146011566 466.892070169 739.146011566 c 0
 495.567879777 739.146011566 503.375671245 720.553786034 503.375671245 708.936220266 c 0
 503.375671245 699.021545593 500.260905863 701.928883901 499.883193432 690.456692418 c 0
 499.525133549 679.581404217 498.592710555 651.261088929 469.195890016 643.779946148 c 0
 467.165556109 643.263250207 465.082778054 643.004902236 463 643.004902236 c 0
745.485545503 50.0080360255 m 0
 728.247494532 50.0080360255 709.872064683 40.2500580977 686.357711212 40.2500580977 c 0
 683.89046976 40.2500580977 681.357480139 40.3560180351 678.761069404 40.5925395209 c 0
 653.924713976 34.1411367962 630.805304918 31.0656160746 609.464601286 31.0656160746 c 0
 550.07112889 31.0656160746 457.961939249 56.1206643406 430.175862713 203.566879295 c 0
 424.847619625 231.84108615 422.542899925 261.414290627 422.542899925 290.852617248 c 0
 422.542899925 323.790713808 425.428185947 356.559956345 430.191904146 387.151864566 c 0
 434.324355292 430.218980848 436.170411472 473.657229732 436.170411472 517.11978325 c 0
 436.170411472 524.625768319 436.115352281 532.132478281 436.007502009 539.638126684 c 1
 485.992497991 540.361873316 l 1
 486.103811829 532.615188636 486.160737914 524.86228023 486.160737914 517.104894425 c 0
 486.160737914 471.966878563 484.233366274 426.677269449 479.878554399 381.580105684 c 0
 479.830780476 381.085372852 479.768318795 380.591796206 479.691169356 380.100086671 c 0
 475.227084928 351.648384336 472.612189094 321.068017689 472.612189094 290.810178086 c 0
 472.612189094 214.347662316 489.584235449 80.6824810171 608.264254239 80.6824810171 c 0
 643.162087604 80.6824810171 668.922222405 90.9950977635 677 90.9950977635 c 0
 680.684595947 90.9950977635 681.545873697 90.2982838513 685.773420688 90.2982838513 c 0
 701.285996883 90.2982838513 720.351246011 100.021153765 745.224336779 100.021153765 c 0
 750.358367656 100.021153765 755.76109958 99.6106695322 761.405485982 98.6065467773 c 1
 761.405485982 98.6065467773 752.648874713 49.3837825857 752.594514018 49.3934532227 c 0
 750.229332659 49.8142132932 747.885346099 50.0080360255 745.485545503 50.0080360255 c 0
206.424053235 463.238785826 m 2
 199.529427156 512.754736761 l 1
 517.168683163 556.982987597 517.168683163 556.982987597 518.825096591 556.994490468 c 2
 806.825096591 558.994490468 l 1
 807.174903409 509.005509532 l 1
 520.831316837 507.017012403 l 1
 520.831316837 507.017012403 206.470572844 463.245263239 206.424053235 463.238785826 c 2
EndSplineSet
EndChar
StartChar: NameMe.65615
Encoding: 65615 -1 90
Width: 1000
Flags: HW
LayerCount: 2
Fore
SplineSet
427.596151961 -102.873768165 m 4
 389.779468282 -102.873768165 353.138612741 -125.730538387 345.612487023 -168.371962719 c 5
 345.612487023 -168.371962719 296.377959109 -159.682167466 296.387512977 -159.628037281 c 4
 307.819211251 -94.8584712184 363.427971715 -52.8824965963 427.549968361 -52.8824965963 c 4
 429.19952111 -52.8824965963 430.852431027 -52.9104168298 432.507959406 -52.9664281243 c 4
 434.363177239 -52.83949091 436.190388279 -52.7778623173 437.989202433 -52.7778623173 c 4
 480.357612839 -52.7778623173 501.448149402 -83.9291767625 516.733337162 -106.50582809 c 4
 531.6695121 -128.566977683 539.398519397 -138.04834047 553.117229355 -138.04834047 c 4
 564.331744132 -138.04834047 570.538999821 -133.004902236 579 -133.004902236 c 4
 582.079628349 -133.004902236 583.377544822 -133.564932407 587.729168479 -133.564932407 c 4
 603.392020214 -133.564932407 618.745229273 -125.007785077 637.88780229 -109.679789115 c 5
 684.619178838 -59.054131188 l 5
 721.380821162 -92.945868812 l 5
 672.135448863 -146.295022136 672.135448863 -146.295022136 670.715950197 -147.444716548 c 4
 649.723355353 -164.447246783 622.724838314 -183.581690821 588.060283317 -183.581690821 c 4
 586.008963685 -183.581690821 583.930798869 -183.514685196 581.825444851 -183.376267015 c 4
 571.830961615 -186.396928139 562.138422506 -187.941470393 552.89396868 -187.941470393 c 4
 511.477288616 -187.941470393 490.962971335 -157.641248 475.301303791 -134.508525465 c 4
 458.847103235 -110.205209429 451.656875357 -102.705510056 439.146771053 -102.705510056 c 4
 436.298741369 -102.705510056 435.162833171 -102.995097764 433 -102.995097764 c 4
 432.945947901 -102.995097764 429.393980972 -102.873768165 427.596151961 -102.873768165 c 4
260.091360417 239.563115357 m 0
 259.704752356 239.563115357 235.363538849 239.932480286 221.696401318 244.089155719 c 0
 124.943671348 273.515192795 97.3587513655 362.278616985 86.476364075 414.91064254 c 0
 74.1476059418 474.537955536 73.7867189887 539.115013731 73.2981532996 595.555720851 c 0
 73.1007365388 618.36195107 72.9070107136 639.819334948 72.0315298932 658.842176619 c 1
 121.968470107 661.157823381 l 1
 122.906849014 640.768303754 123.088973171 618.806267786 123.286461676 595.991749428 c 0
 124.423613766 464.624218957 128.017550525 325.619488332 235.347172808 292.205155373 c 0
 243.776235939 290.426064753 251.997762612 289.5798466 260.034293104 289.5798466 c 0
 331.63302703 289.5798466 387.83800125 357.376711384 437.054228698 417.670317962 c 0
 447.105725118 429.984162441 456.765015833 441.832605005 466.301642432 452.595392748 c 1
 503.725423236 419.435152858 l 1
 479.222297217 391.781564701 450.067574009 351.715122929 414.868244063 316.515792983 c 0
 374.915145063 276.562693983 323.503569475 239.563115357 260.091360417 239.563115357 c 0
801.304108157 55.2174036505 m 1
 792.7520594 51.3551840079 745.848015719 48.1778159968 714.578114467 48.1778159968 c 0
 649.999978247 48.1778159968 547.285048792 58.256239477 489.441018048 116.100270221 c 0
 468.817234095 136.724054174 448.348413582 169.408969882 448.348413582 217.906658011 c 0
 448.348413582 237.281807363 451.585363624 258.043159905 458.149292864 280.196474192 c 1
 470.023994803 584.980490624 l 1
 470.023994803 584.980490624 519.976580472 583.034274768 519.976005197 583.019509376 c 0
 507.976005197 275.019509376 507.976005197 275.019509376 507.976005197 275.019509376 c 2
 507.676081796 267.321475413 498.339142756 246.749023188 498.339142756 217.911257735 c 0
 498.339142756 183.646040596 512.499277398 163.75268899 524.796357107 151.45560928 c 0
 542.193644711 134.058321676 592.826469268 98.2495698713 714.803655961 98.2495698713 c 0
 738.749759663 98.2495698713 762.014712837 99.7238240095 782.875809008 102.185844963 c 0
 789.543685012 105.203710159 795.708393365 105.294939657 799.93211579 105.294939657 c 0
 811.978233754 105.288275067 822.023315993 102.124553828 831.916517769 101.476803253 c 1
 823.467822421 96.8842501181 l 1
 818.343627658 84.0780363702 l 1
 867.678792335 91.9779949156 l 1
 867.989692452 90.0364266942 868.183352614 87.8706203338 868.183352614 85.5727237512 c 0
 868.183352614 75.2965928362 862.999235706 51.4950522629 831.606758937 51.4950522629 c 0
 820.288573587 51.4950522629 811.017431953 54.3150993983 801.304108157 55.2174036505 c 1
275 561.004902236 m 1
 275 610.995097764 l 1
 769.744076371 610.995097764 l 1
 784.490985393 612.469788666 l 1
 784.490985393 612.469788666 798.831122495 618.843182933 798.858431615 618.85532032 c 2
 819.168877505 573.156817067 l 1
 797.509014607 563.530211334 797.509014607 563.530211334 793.50506065 563.129815939 c 0
 772.255923629 561.004902236 772.255923629 561.004902236 771 561.004902236 c 2
 275 561.004902236 l 1
EndSplineSet
EndChar
StartChar: NameMe.65617
Encoding: 65617 -1 91
Width: 1000
Flags: HW
LayerCount: 2
Fore
SplineSet
427.596151961 -102.873768165 m 4
 389.779468282 -102.873768165 353.138612741 -125.730538387 345.612487023 -168.371962719 c 5
 345.612487023 -168.371962719 296.377959109 -159.682167466 296.387512977 -159.628037281 c 4
 307.819211251 -94.8584712184 363.427971715 -52.8824965963 427.549968361 -52.8824965963 c 4
 429.19952111 -52.8824965963 430.852431027 -52.9104168298 432.507959406 -52.9664281243 c 4
 434.363177239 -52.83949091 436.190388279 -52.7778623173 437.989202433 -52.7778623173 c 4
 480.357612839 -52.7778623173 501.448149402 -83.9291767625 516.733337162 -106.50582809 c 4
 531.6695121 -128.566977683 539.398519397 -138.04834047 553.117229355 -138.04834047 c 4
 564.331744132 -138.04834047 570.538999821 -133.004902236 579 -133.004902236 c 4
 582.079628349 -133.004902236 583.377544822 -133.564932407 587.729168479 -133.564932407 c 4
 603.392020214 -133.564932407 618.745229273 -125.007785077 637.88780229 -109.679789115 c 5
 684.619178838 -59.054131188 l 5
 721.380821162 -92.945868812 l 5
 672.135448863 -146.295022136 672.135448863 -146.295022136 670.715950197 -147.444716548 c 4
 649.723355353 -164.447246783 622.724838314 -183.581690821 588.060283317 -183.581690821 c 4
 586.008963685 -183.581690821 583.930798869 -183.514685196 581.825444851 -183.376267015 c 4
 571.830961615 -186.396928139 562.138422506 -187.941470393 552.89396868 -187.941470393 c 4
 511.477288616 -187.941470393 490.962971335 -157.641248 475.301303791 -134.508525465 c 4
 458.847103235 -110.205209429 451.656875357 -102.705510056 439.146771053 -102.705510056 c 4
 436.298741369 -102.705510056 435.162833171 -102.995097764 433 -102.995097764 c 4
 432.945947901 -102.995097764 429.393980972 -102.873768165 427.596151961 -102.873768165 c 4
577.643116643 234.749150472 m 0
 577.643116643 343.597714398 383.332021562 360.46017359 383.332021562 513.995565684 c 0
 383.332021562 584.642995648 440.436556802 641.226243413 504.809677112 663.623003186 c 1
 521.241374673 616.394758802 l 1
 500.673235143 609.238671326 479.721610748 596.625515941 463.826270938 580.730176131 c 0
 444.852738532 561.756643725 433.32087462 539.123179852 433.32087462 514.046567743 c 0
 433.32087462 457.408657213 469.360337617 428.721981309 522.333893837 388.741552001 c 0
 572.690334826 350.736323115 627.548495064 309.333537389 627.548495064 234.058161246 c 0
 627.548495064 227.363448119 627.099183738 220.480762325 626.164750135 213.420346253 c 0
 626.545192459 208.96285659 626.732246086 204.511409795 626.732246086 200.076185475 c 0
 626.732246086 129.440685402 579.138198737 62.6094424023 510.171710739 42.0494411567 c 0
 506.946996332 41.0881027714 506.946996332 41.0881027714 415.572264996 39.0114043319 c 1
 414.427735004 88.9885956681 l 1
 498.868414554 90.9077020215 l 1
 546.170267594 106.597669476 576.720967175 153.946991546 576.720967175 200.417176734 c 0
 576.720967175 205.206549933 576.004902236 213.863983149 576.004902236 214 c 0
 576.004902236 218.149039163 577.643116643 223.828228075 577.643116643 234.749150472 c 0
197.72490345 353.526915791 m 0
 197.72490345 307.378552196 207.995097764 277.503656129 207.995097764 270 c 0
 207.995097764 267.842629933 186.844446233 64.8815843867 185.860662288 55.4014845492 c 1
 185.860662288 55.4014845492 136.135511195 60.5616417381 136.139337712 60.5985154508 c 0
 157.700807073 268.372674742 157.700807073 268.372674742 157.700807073 268.372674742 c 1
 151.028511394 297.408793172 147.850710799 325.670918034 147.850710799 352.88196188 c 0
 147.850710799 541.699118443 300.172135735 676.649073881 494.474605545 676.649073881 c 0
 520.315573524 676.649073881 546.825211531 674.255595805 573.718966492 669.303651179 c 0
 575.872645814 669.502879364 577.947067584 669.579596212 579.985516733 669.579596212 c 0
 597.855931181 669.579596212 618.349336001 664.995097764 635 664.995097764 c 0
 637.375513869 664.995097764 637.375513869 664.995097764 723.705576064 648.551276393 c 1
 723.705576064 648.551276393 714.350668257 599.438010403 714.294423936 599.448723607 c 0
 633.316892376 614.873015333 633.316892376 614.873015333 633.316892376 614.873015333 c 2
 632.480255683 614.846179782 631.648874841 614.833503313 630.821718443 614.833503313 c 0
 617.86301073 614.833503313 593.412494723 619.507438487 579.472410208 619.507438487 c 0
 576.638415928 619.507438487 576.395246518 619.004902236 573 619.004902236 c 0
 566.764091088 619.004902236 538.473171908 626.669808202 494.423080221 626.669808202 c 0
 329.072492964 626.669808202 197.72490345 514.755925584 197.72490345 353.526915791 c 0
EndSplineSet
EndChar
StartChar: NameMe.65623
Encoding: 65623 -1 94
Width: 1000
Flags: HWO
LayerCount: 2
Fore
SplineSet
427.596151961 -102.873768165 m 4
 389.779468282 -102.873768165 353.138612741 -125.730538387 345.612487023 -168.371962719 c 5
 345.612487023 -168.371962719 296.377959109 -159.682167466 296.387512977 -159.628037281 c 4
 307.819211251 -94.8584712184 363.427971715 -52.8824965963 427.549968361 -52.8824965963 c 4
 429.19952111 -52.8824965963 430.852431027 -52.9104168298 432.507959406 -52.9664281243 c 4
 434.363177239 -52.83949091 436.190388279 -52.7778623173 437.989202433 -52.7778623173 c 4
 480.357612839 -52.7778623173 501.448149402 -83.9291767625 516.733337162 -106.50582809 c 4
 531.6695121 -128.566977683 539.398519397 -138.04834047 553.117229355 -138.04834047 c 4
 564.331744132 -138.04834047 570.538999821 -133.004902236 579 -133.004902236 c 4
 582.079628349 -133.004902236 583.377544822 -133.564932407 587.729168479 -133.564932407 c 4
 603.392020214 -133.564932407 618.745229273 -125.007785077 637.88780229 -109.679789115 c 5
 684.619178838 -59.054131188 l 5
 721.380821162 -92.945868812 l 5
 672.135448863 -146.295022136 672.135448863 -146.295022136 670.715950197 -147.444716548 c 4
 649.723355353 -164.447246783 622.724838314 -183.581690821 588.060283317 -183.581690821 c 4
 586.008963685 -183.581690821 583.930798869 -183.514685196 581.825444851 -183.376267015 c 4
 571.830961615 -186.396928139 562.138422506 -187.941470393 552.89396868 -187.941470393 c 4
 511.477288616 -187.941470393 490.962971335 -157.641248 475.301303791 -134.508525465 c 4
 458.847103235 -110.205209429 451.656875357 -102.705510056 439.146771053 -102.705510056 c 4
 436.298741369 -102.705510056 435.162833171 -102.995097764 433 -102.995097764 c 4
 432.945947901 -102.995097764 429.393980972 -102.873768165 427.596151961 -102.873768165 c 4
478.110574875 530.995085823 m 0
 488.352328856 530.995085823 499.644028193 531.315456657 510.303432072 531.315456657 c 0
 523.426033367 531.315456657 537.342828402 530.849175458 551.688377488 528.723436546 c 0
 563.871474996 526.918132037 572.995097764 516.452970479 572.995097764 504 c 2
 572.995097764 500 l 1
 526.452112374 500 l 1
 544.311622512 479.276563454 l 1
 533.35339537 480.900365353 521.51457914 481.296498838 509.148957586 481.296498838 c 0
 504.418954766 481.296498838 481.828276971 481.016394141 481.552300319 481.01485487 c 0
 443.851482912 469.685677945 399.322478047 436.419693499 397.033614449 394.389470517 c 1
 436.096262163 328.065899856 553.306318051 279.401425138 553.306318051 167.162358059 c 0
 553.306318051 160.721027005 553.306318051 153.686901793 551.049094096 148.307792219 c 0
 512.893317899 57.3801283557 385.170154442 64.634720303 324.299721335 30.229393881 c 0
 322.576660353 29.2554813833 320.762251309 28.5021863483 318.897879805 27.9695087759 c 0
 318.897879805 27.9695087759 304.897879805 23.9695087759 304.838663453 23.9525898182 c 1
 291.102120195 72.0304912241 l 1
 302.37956057 75.2526170458 l 1
 369.296443159 111.475581221 475.199353642 106.926330503 503.272158156 164.001521354 c 0
 503.306005018 165.127679922 503.322807033 166.245231017 503.322807033 167.354454566 c 0
 503.322807033 218.22383983 467.669358242 251.614968067 423.834118988 291.578605129 c 0
 394.727434323 318.114538361 366.782637168 343.709802344 349.798690904 376.495829001 c 0
 346.950702067 381.993623005 346.950702067 386.638733102 346.950702067 391.097804817 c 0
 346.950702067 459.700021763 409.544893373 513.322808206 471.420526125 530.11918962 c 0
 473.667229921 530.729066112 475.836385007 530.995085823 478.110574875 530.995085823 c 0
446.080967395 708.543601513 m 1
 436.986235114 703.480138512 426.553141415 695.701563378 426.553141415 686.661856221 c 0
 426.553141415 667.248460873 444.055147896 656.135464359 461.288715592 656.135464359 c 0
 466.601780358 656.135464359 468.171599604 656.995097764 472 656.995097764 c 0
 472.935521784 656.995097764 473.871043569 656.942975067 474.80181277 656.838729673 c 0
 475.208068086 659.912379349 475.357230427 663.457543648 475.357230427 667.877467625 c 0
 475.357230427 672.347090591 475.004902236 683.838736183 475.004902236 684 c 0
 475.004902236 688.724721158 476.231557779 690.980309278 476.231557779 692.787058131 c 0
 476.231557779 696.819074975 468.345956113 703.023835045 461.767079045 707.497860737 c 1
 446.080967395 708.543601513 l 1
496.387684724 744.301985934 m 1
 513.154882753 731.697781782 526.066338205 715.403147632 526.066338205 692.429908413 c 0
 526.066338205 688.873953927 525.742585828 685.258248673 525.068772372 681.642509402 c 0
 525.392735941 670.875936905 525.392735941 670.875936905 525.392735941 667.609341941 c 0
 525.392735941 636.760800263 517.595711684 624.718908525 510.02232265 617.145519491 c 0
 506.066126378 613.18932322 496.368306357 605.450856489 481.036936809 605.450856489 c 0
 477.411376572 605.450856489 473.874191636 605.872115499 470.428961903 606.596825022 c 0
 467.31501195 606.284092071 464.21202163 606.129800841 461.131090498 606.129800841 c 0
 414.701158912 606.129800841 376.588030628 640.836375541 376.588030628 687.024443079 c 0
 376.588030628 747.63296507 459.015354099 770.995097561 479.999999578 770.995097561 c 0
 480.59084356 770.995097561 481.181687542 770.974307082 481.77133427 770.932726114 c 0
 483.072803089 771.176559511 485.047573401 771.529933779 488.17822296 771.529933779 c 0
 509.351620221 771.529933779 516.275248346 754.919922345 516.932233821 745.778504132 c 1
 496.387684724 744.301985934 l 1
EndSplineSet
EndChar
StartChar: NameMe.65625
Encoding: 65625 -1 95
Width: 1000
Flags: HW
LayerCount: 2
Fore
SplineSet
427.596151961 -102.873768165 m 4
 389.779468282 -102.873768165 353.138612741 -125.730538387 345.612487023 -168.371962719 c 5
 345.612487023 -168.371962719 296.377959109 -159.682167466 296.387512977 -159.628037281 c 4
 307.819211251 -94.8584712184 363.427971715 -52.8824965963 427.549968361 -52.8824965963 c 4
 429.19952111 -52.8824965963 430.852431027 -52.9104168298 432.507959406 -52.9664281243 c 4
 434.363177239 -52.83949091 436.190388279 -52.7778623173 437.989202433 -52.7778623173 c 4
 480.357612839 -52.7778623173 501.448149402 -83.9291767625 516.733337162 -106.50582809 c 4
 531.6695121 -128.566977683 539.398519397 -138.04834047 553.117229355 -138.04834047 c 4
 564.331744132 -138.04834047 570.538999821 -133.004902236 579 -133.004902236 c 4
 582.079628349 -133.004902236 583.377544822 -133.564932407 587.729168479 -133.564932407 c 4
 603.392020214 -133.564932407 618.745229273 -125.007785077 637.88780229 -109.679789115 c 5
 684.619178838 -59.054131188 l 5
 721.380821162 -92.945868812 l 5
 672.135448863 -146.295022136 672.135448863 -146.295022136 670.715950197 -147.444716548 c 4
 649.723355353 -164.447246783 622.724838314 -183.581690821 588.060283317 -183.581690821 c 4
 586.008963685 -183.581690821 583.930798869 -183.514685196 581.825444851 -183.376267015 c 4
 571.830961615 -186.396928139 562.138422506 -187.941470393 552.89396868 -187.941470393 c 4
 511.477288616 -187.941470393 490.962971335 -157.641248 475.301303791 -134.508525465 c 4
 458.847103235 -110.205209429 451.656875357 -102.705510056 439.146771053 -102.705510056 c 4
 436.298741369 -102.705510056 435.162833171 -102.995097764 433 -102.995097764 c 4
 432.945947901 -102.995097764 429.393980972 -102.873768165 427.596151961 -102.873768165 c 4
184.238724815 266.16754535 m 0
 184.238724815 174.291712968 260.728729531 95.3513597789 353.681035507 87.0288714506 c 1
 386.011134855 88.1446792244 464.93976438 98.8513034541 535.017303549 171.36738486 c 0
 537.220406336 173.647150717 539.76169766 175.159092907 545.34520366 180.742598908 c 0
 562.878980282 198.2763754 575.02692679 222.582021636 588.802681218 251.363330541 c 1
 589.724554743 258.313428382 590.155547463 264.77312855 590.155547463 270.812405743 c 0
 590.155547463 399.067387466 382.038583281 394.094638277 331.672604105 524.999945876 c 0
 330.560802859 527.88960843 330.004902236 530.944804215 330.004902236 534 c 0
 330.004902236 537.525014529 337.912677296 589.086043226 383.374131847 634.547497776 c 0
 429.898438405 681.071804021 496.36328641 703.844182149 561.361698563 703.844182149 c 0
 574.481133442 703.844182149 587.540825209 702.916427482 600.364741514 701.068973113 c 0
 602.733762852 701.147538628 605.61153607 701.202924435 608.751521506 701.202924435 c 0
 626.952564816 701.202924435 648.413284562 700.823972698 654.710216297 681.933177493 c 2
 656.728079533 675.879587783 l 1
 611.202596676 660.704426831 l 1
 616.212176571 653.838944185 l 1
 622.71295928 650.590739854 l 1
 620.152168486 650.966045645 612.311476065 651.124602389 606.384631497 651.124602389 c 0
 602.049912799 651.124602389 599.073856016 651.004902236 599 651.004902236 c 0
 594.458106168 651.004902236 583.227027684 653.787770748 562.122710002 653.787770748 c 0
 508.639669192 653.787770748 454.277428783 634.740116594 418.729470906 599.192158717 c 0
 401.614727464 582.077415364 388.567709849 561.147210426 381.339280457 535.998235669 c 1
 428.37460342 437.431823237 640.087944871 432.771871872 640.087944871 270.429911149 c 0
 640.087944871 270.054724778 639.989950392 242.462537413 635.545913371 233.187219542 c 0
 616.299476948 193.01725362 601.257083882 161.621705708 569.962900908 135.581816607 c 1
 538.900716626 103.711148564 463.481496205 40.13417219 353.715390449 37.015064248 c 0
 353.476979457 37.0082895736 353.238489729 37.0049022365 353 37.0049022365 c 0
 351.33752107 37.0049022365 269.855836341 38.7170872493 202.005322023 106.567601567 c 0
 160.552344693 148.020579044 134.239827093 204.634340809 134.239827093 266.087910182 c 0
 134.239827093 275.067116906 134.801578435 284.149649677 135.959931357 293.303313128 c 0
 135.899624085 295.81624599 135.870241915 298.32020659 135.870241915 300.81535339 c 0
 135.870241915 382.559511476 167.524431659 455.730981208 178.015689672 529.824092117 c 0
 178.19009712 547.761014062 180.438976033 565.520117497 180.438976033 581.798867377 c 0
 180.438976033 587.14151963 180.004902236 593.877911484 180.004902236 594 c 0
 180.004902236 600.474061754 186.499207183 620.570764233 186.499207183 653.815719967 c 0
 186.499207183 658.689854094 186.352063036 663.578087774 186.050912127 668.478192177 c 1
 235.947677856 671.544750575 l 1
 236.312333957 665.611338025 236.489380062 659.705389376 236.489380062 653.831901861 c 0
 236.489380062 632.801834765 234.219642767 612.187920555 230.165074401 592.219543387 c 0
 230.367723484 588.542600282 230.452444596 584.932941501 230.452444596 581.391696122 c 0
 230.452444596 577.21786664 227.838592986 525.139748185 227.761210819 524.576245015 c 0
 217.13648762 447.206155535 185.865107886 374.174060484 185.865107886 300.522820061 c 0
 185.865107886 296.519782058 185.995097764 292.085238113 185.995097764 292 c 0
 185.995097764 288.092867471 184.238724815 280.658754551 184.238724815 266.16754535 c 0
EndSplineSet
EndChar
StartChar: NameMe.65629
Encoding: 65629 -1 97
Width: 1000
Flags: HW
LayerCount: 2
Fore
SplineSet
427.596151961 -102.873768165 m 4
 389.779468282 -102.873768165 353.138612741 -125.730538387 345.612487023 -168.371962719 c 5
 345.612487023 -168.371962719 296.377959109 -159.682167466 296.387512977 -159.628037281 c 4
 307.819211251 -94.8584712184 363.427971715 -52.8824965963 427.549968361 -52.8824965963 c 4
 429.19952111 -52.8824965963 430.852431027 -52.9104168298 432.507959406 -52.9664281243 c 4
 434.363177239 -52.83949091 436.190388279 -52.7778623173 437.989202433 -52.7778623173 c 4
 480.357612839 -52.7778623173 501.448149402 -83.9291767625 516.733337162 -106.50582809 c 4
 531.6695121 -128.566977683 539.398519397 -138.04834047 553.117229355 -138.04834047 c 4
 564.331744132 -138.04834047 570.538999821 -133.004902236 579 -133.004902236 c 4
 582.079628349 -133.004902236 583.377544822 -133.564932407 587.729168479 -133.564932407 c 4
 603.392020214 -133.564932407 618.745229273 -125.007785077 637.88780229 -109.679789115 c 5
 684.619178838 -59.054131188 l 5
 721.380821162 -92.945868812 l 5
 672.135448863 -146.295022136 672.135448863 -146.295022136 670.715950197 -147.444716548 c 4
 649.723355353 -164.447246783 622.724838314 -183.581690821 588.060283317 -183.581690821 c 4
 586.008963685 -183.581690821 583.930798869 -183.514685196 581.825444851 -183.376267015 c 4
 571.830961615 -186.396928139 562.138422506 -187.941470393 552.89396868 -187.941470393 c 4
 511.477288616 -187.941470393 490.962971335 -157.641248 475.301303791 -134.508525465 c 4
 458.847103235 -110.205209429 451.656875357 -102.705510056 439.146771053 -102.705510056 c 4
 436.298741369 -102.705510056 435.162833171 -102.995097764 433 -102.995097764 c 4
 432.945947901 -102.995097764 429.393980972 -102.873768165 427.596151961 -102.873768165 c 4
49.9720714421 663.922326961 m 1
 58.8058512379 638.587086086 86.6478773157 630.421518315 138.411558874 630.421518315 c 0
 142.310682587 630.421518315 198.531877486 631.680047375 199.139285144 631.680047375 c 0
 215.532671992 631.680047375 225.945281678 630.448912312 226.216331886 630.448912312 c 0
 235.881141681 630.448912312 244.224215669 632.185258154 253.069562379 632.185258154 c 0
 288.007132002 632.185258154 293.306521382 607.234877282 293.306521382 596.44252342 c 0
 293.306521382 579.730697326 275.966312392 542.798908748 275.966312392 476.623715226 c 0
 275.966312392 474.353590689 275.995097764 472.046238048 275.995097764 472 c 0
 275.995097764 469.159700707 275.447886703 467.403111312 275.447886703 462.039335565 c 0
 275.447886703 422.667756159 309.080038142 379.813918099 350.774915254 379.813918099 c 0
 358.259234633 379.813918099 360.808474466 380.995097764 365 380.995097764 c 0
 366.936186247 380.995097764 369.562472096 380.640144393 374.791335627 380.640144393 c 0
 441.915743899 380.640144393 457.795101046 454.601119191 472.064108435 540.998903422 c 0
 473.377902523 548.953829443 474.662418792 556.738228341 476.004902236 564.249516733 c 1
 476.004902236 586 l 2
 476.004902236 599.812968658 487.187164025 610.995097764 501 610.995097764 c 0
 513.586486489 610.995097764 524.132384933 601.676853726 525.775660796 589.316826177 c 0
 527.267167663 578.098340955 528.345675425 566.196242538 529.46268134 553.979718914 c 0
 536.40949008 478.003529375 545.094859761 421.127731778 595.150992298 417.215849792 c 1
 648.662939551 438.606108141 661.850446626 515.735832702 672.835027136 583.709613315 c 0
 679.288390666 623.643729726 679.412726463 623.768065522 685.32233047 629.67766953 c 0
 690.20061596 634.555955019 696.60030798 636.995097764 703 636.995097764 c 0
 713.964933468 636.995097764 723.391447123 629.920642039 726.717574459 619.911068553 c 0
 752.947659794 540.974834264 756.103109626 459.10830173 756.103109626 379.48099505 c 0
 756.103109626 379.101213273 755.758837232 300.212458125 755.758837232 299.411758357 c 0
 755.758837232 289.037831786 755.811813649 278.727341476 755.960231858 268.491754324 c 0
 758.11651991 256.484289914 759.166614867 245.013252825 759.166614867 234.11004684 c 0
 759.166614867 88.4871067173 583.429213061 83.6971095971 477.522409809 83.6971095971 c 0
 458.7623322 83.6971095971 439.926299419 83.920054086 422.419754512 83.920054086 c 0
 407.098712962 83.920054086 393.182401989 83.7468911348 381.412745069 83.1008608085 c 0
 370.654811762 81.6591677145 360.187030342 81.0739487268 349.974286337 81.0739487268 c 0
 306.093055899 81.0739487268 265.287617088 92.051823353 222.436253991 93.0112121605 c 1
 222.436253991 93.0112121605 223.555194136 142.988787839 223.563746009 142.988787839 c 0
 270.26342634 141.943239988 310.378441681 131.113563508 350.491149896 131.113563508 c 0
 375.2692782 131.113563508 363.101735295 133.920710512 421.478473244 133.920710512 c 0
 437.733905056 133.920710512 455.070233372 133.712451133 474.094430989 133.712451133 c 0
 539.643157958 133.712451133 645.578465 135.141900854 688.403004128 177.966439981 c 0
 700.957986456 190.521422309 709.412008988 207.02101731 709.412008988 232.59271859 c 0
 709.412008988 249.318148171 706.086287732 260.652426223 706.008048414 265.601913105 c 0
 705.829797232 276.87823687 705.76784329 288.158264321 705.76784329 299.429849153 c 0
 705.76784329 299.658419015 706.077028155 374.01138777 706.077028155 374.764743054 c 0
 706.077028155 411.208064162 705.450721019 447.204089287 702.517479664 482.365646198 c 1
 691.897085738 448.063916805 668.617771772 389.102733353 607.019782838 368.318828658 c 0
 604.423696224 367.44287771 601.711848112 367.004902236 599 367.004902236 c 0
 576.588322094 367.004902236 526.254779607 374.522548618 500.62123588 437.977250272 c 1
 491.921849403 411.487102331 464.006410251 330.68824391 373.84799185 330.68824391 c 0
 371.313394762 330.68824391 368.745157737 330.754564143 366.143768751 330.888999358 c 0
 360.947516973 330.164337895 355.816082074 329.816931661 350.765612924 329.816931661 c 0
 282.094038523 329.816931661 225.423017524 394.16591346 225.423017524 461.498535632 c 0
 225.423017524 465.376633199 225.609329178 469.272715888 225.991071907 473.176553247 c 0
 225.980983505 474.334167361 225.975956251 475.491461929 225.975956251 476.648394947 c 0
 225.975956251 512.16865007 230.714736302 547.348102269 239.211391181 580.971198324 c 1
 235.678273511 580.610343013 231.748112746 580.266219537 227.437140049 580.266219537 c 0
 217.366078506 580.266219537 220.122878147 581.652389191 199.356037627 581.652389191 c 0
 180.029348664 581.652389191 158.290880284 580.343571293 137.365395797 580.343571293 c 0
 97.7621547672 580.343571293 20.967569611 583.218179666 0.972343905976 653.092204991 c 0
 0.0303855057911 656.383912026 -0.0391155893459 659.082766593 -0.0391155893459 662.316897938 c 0
 -0.0391155893459 706.109599798 33.5129705463 739.848571655 85.1171386736 748.707983962 c 0
 212.943622092 770.653256243 212.57539607 772.985747276 214.900840392 772.994902568 c 2
 722.902349328 774.994908509 l 1
 723.099159608 725.005097432 l 1
 217.42460393 723.014252724 l 1
 118.618125812 704.193971178 93.2241047763 699.328969979 91.9558136364 699.17899915 c 0
 86.1060383885 698.487284435 51.0293214757 693.125746276 49.9720714421 663.922326961 c 1
EndSplineSet
EndChar
StartChar: NameMe.65631
Encoding: 65631 -1 98
Width: 1000
Flags: HW
LayerCount: 2
Fore
SplineSet
427.596151961 -102.873768165 m 4
 389.779468282 -102.873768165 353.138612741 -125.730538387 345.612487023 -168.371962719 c 5
 345.612487023 -168.371962719 296.377959109 -159.682167466 296.387512977 -159.628037281 c 4
 307.819211251 -94.8584712184 363.427971715 -52.8824965963 427.549968361 -52.8824965963 c 4
 429.19952111 -52.8824965963 430.852431027 -52.9104168298 432.507959406 -52.9664281243 c 4
 434.363177239 -52.83949091 436.190388279 -52.7778623173 437.989202433 -52.7778623173 c 4
 480.357612839 -52.7778623173 501.448149402 -83.9291767625 516.733337162 -106.50582809 c 4
 531.6695121 -128.566977683 539.398519397 -138.04834047 553.117229355 -138.04834047 c 4
 564.331744132 -138.04834047 570.538999821 -133.004902236 579 -133.004902236 c 4
 582.079628349 -133.004902236 583.377544822 -133.564932407 587.729168479 -133.564932407 c 4
 603.392020214 -133.564932407 618.745229273 -125.007785077 637.88780229 -109.679789115 c 5
 684.619178838 -59.054131188 l 5
 721.380821162 -92.945868812 l 5
 672.135448863 -146.295022136 672.135448863 -146.295022136 670.715950197 -147.444716548 c 4
 649.723355353 -164.447246783 622.724838314 -183.581690821 588.060283317 -183.581690821 c 4
 586.008963685 -183.581690821 583.930798869 -183.514685196 581.825444851 -183.376267015 c 4
 571.830961615 -186.396928139 562.138422506 -187.941470393 552.89396868 -187.941470393 c 4
 511.477288616 -187.941470393 490.962971335 -157.641248 475.301303791 -134.508525465 c 4
 458.847103235 -110.205209429 451.656875357 -102.705510056 439.146771053 -102.705510056 c 4
 436.298741369 -102.705510056 435.162833171 -102.995097764 433 -102.995097764 c 4
 432.945947901 -102.995097764 429.393980972 -102.873768165 427.596151961 -102.873768165 c 4
178.286830597 522.61382711 m 0
 178.286830597 523.909126493 177.645347397 544.870135578 177.645347397 545.095039202 c 0
 177.645347397 565.800166423 182.185173164 574.96927334 189.865783056 582.205177778 c 1
 224.134216944 545.794822222 l 1
 225.608252597 547.561227637 226.715588843 549.694332459 228.047434352 551.602928017 c 1
 227.896711416 550.8551546 227.781797578 548.008450043 227.781797578 544.152882577 c 0
 227.781797578 541.407011724 228.377302001 523.302290712 228.377302001 523.091593651 c 0
 228.377302001 513.909655944 227.131809517 511.211507869 227.131809517 497.550090102 c 0
 227.131809517 473.570895103 231.742700845 445.884449616 240.878695617 420.316769065 c 0
 246.27315461 405.220021779 273.284204493 333.949365228 332.273365694 330.962886546 c 0
 338.142096161 330.665766904 351.83085076 325.412601616 371.416008507 325.412601616 c 0
 396.458599059 325.412601616 445.266404705 332.013633292 461.842528137 445.50699824 c 0
 461.263523853 453.150968635 460.982757104 460.797811698 460.982757104 468.383728577 c 0
 460.982757104 492.13690369 463.735545662 515.292725659 468.704766674 535.892558965 c 0
 471.37772342 546.973262212 481.326027995 554.995097764 493 554.995097764 c 0
 506.812968658 554.995097764 517.995097764 543.812835975 517.995097764 530 c 0
 517.995097764 529.139987741 517.542703104 483.990574046 512.181071239 444.19552488 c 1
 514.661832291 417.652070903 526.756227987 343.906632439 584.566265604 343.906632439 c 0
 590.844318374 343.906632439 597.810173005 344.697799145 605.60728784 346.410402435 c 0
 606.278253075 346.55777711 606.954130453 346.677292026 607.633062788 346.768947183 c 0
 703.495382671 359.710260309 739.181555122 481.688633518 748.288944893 541.770985963 c 0
 750.12970573 553.914667545 760.576907668 562.995097764 773 562.995097764 c 0
 785.388009162 562.995097764 795.813159987 553.965532144 797.695896942 541.869661766 c 0
 809.127585924 468.425398754 802.56457971 390.643372525 807.883527634 318.43730033 c 0
 810.074660314 300.16170933 811.149651592 282.883146356 811.149651592 266.574228774 c 0
 811.149651592 57.6672390207 635.96854754 37.8011562546 510.74562177 37.8011562546 c 0
 428.761093987 37.8011562546 340.5122215 47.5710520963 267.514619915 47.5710520963 c 0
 258.042799271 47.5710520963 248.873526889 47.4041015734 240.059792284 47.0272044334 c 1
 237.924024591 96.972103536 l 1
 247.746518829 97.3921377385 257.814685406 97.576405667 268.086969184 97.576405667 c 0
 342.065262389 97.576405667 428.909659657 87.8927492852 511.12484362 87.8927492852 c 0
 671.941717729 87.8927492852 761.245684383 127.28587698 761.245684383 265.605808815 c 0
 761.245684383 280.053621913 760.266719812 295.798240793 758.187288221 312.974910813 c 0
 756.722810076 325.071898256 755.661463599 361.277725552 755.316302003 403.830736982 c 1
 738.807016851 373.992325589 696.511167743 308.822131292 615.384023812 297.371481269 c 0
 605.210533886 295.206309512 595.400013099 294.1701642 586.013140168 294.1701642 c 0
 565.784697044 294.1701642 518.638268559 298.754470407 487.508127781 352.939022693 c 1
 476.619357299 330.055817734 445.597507969 275.423837818 371.435579133 275.423837818 c 0
 357.517884539 275.423837818 342.744180092 277.343021768 327.117537496 281.19678012 c 1
 229.626189077 288.196795033 177.099897801 405.49051204 177.099897801 496.866889754 c 0
 177.099897801 511.689127212 178.286830597 516.877293366 178.286830597 522.61382711 c 0
482.299153326 691.856743274 m 0
 483.59481092 688.922694035 486.565586157 681.707550753 486.565586157 672.4040301 c 0
 486.565586157 670.444812983 486.433462243 668.439496227 486.143387026 666.402990923 c 0
 486.188940528 665.305205884 486.212912966 664.195064142 486.212912966 663.075089012 c 0
 486.212912966 627.357874811 462.692707227 613.521538598 449.666521591 607.384596413 c 0
 446.299118416 605.798133646 442.649559241 605.004902254 439.000000064 605.004902254 c 0
 431.66215544 605.004902254 430.034212573 607.369018571 424.278731573 608.72911884 c 0
 415.921844305 610.703967618 389.879210327 616.858204506 389.879210327 646.237179076 c 0
 389.879210327 680.005778589 410.489783586 697.161263665 431.066335606 713.351435199 c 0
 438.711450572 719.366812439 442.996684649 722.94634313 445.851193146 726.090032705 c 1
 445.851193146 726.090032705 446.300875152 727.209443016 446.339909438 727.193762424 c 0
 447.072653073 726.899409564 467.417747629 718.578135957 479.607698272 697.193231108 c 1
 483.795034279 693.514045319 l 1
 483.299365786 692.949917643 482.80048311 692.397795197 482.299153326 691.856743274 c 0
EndSplineSet
EndChar
StartChar: an.sitelen_kalama_pona
Encoding: 65703 -1 1
Width: 1000
Flags: HW
LayerCount: 2
Fore
SplineSet
427.596151961 -102.873768165 m 4
 389.779468282 -102.873768165 353.138612741 -125.730538387 345.612487023 -168.371962719 c 5
 345.612487023 -168.371962719 296.377959109 -159.682167466 296.387512977 -159.628037281 c 4
 307.819211251 -94.8584712184 363.427971715 -52.8824965963 427.549968361 -52.8824965963 c 4
 429.19952111 -52.8824965963 430.852431027 -52.9104168298 432.507959406 -52.9664281243 c 4
 434.363177239 -52.83949091 436.190388279 -52.7778623173 437.989202433 -52.7778623173 c 4
 480.357612839 -52.7778623173 501.448149402 -83.9291767625 516.733337162 -106.50582809 c 4
 531.6695121 -128.566977683 539.398519397 -138.04834047 553.117229355 -138.04834047 c 4
 564.331744132 -138.04834047 570.538999821 -133.004902236 579 -133.004902236 c 4
 582.079628349 -133.004902236 583.377544822 -133.564932407 587.729168479 -133.564932407 c 4
 603.392020214 -133.564932407 618.745229273 -125.007785077 637.88780229 -109.679789115 c 5
 684.619178838 -59.054131188 l 5
 721.380821162 -92.945868812 l 5
 672.135448863 -146.295022136 672.135448863 -146.295022136 670.715950197 -147.444716548 c 4
 649.723355353 -164.447246783 622.724838314 -183.581690821 588.060283317 -183.581690821 c 4
 586.008963685 -183.581690821 583.930798869 -183.514685196 581.825444851 -183.376267015 c 4
 571.830961615 -186.396928139 562.138422506 -187.941470393 552.89396868 -187.941470393 c 4
 511.477288616 -187.941470393 490.962971335 -157.641248 475.301303791 -134.508525465 c 4
 458.847103235 -110.205209429 451.656875357 -102.705510056 439.146771053 -102.705510056 c 4
 436.298741369 -102.705510056 435.162833171 -102.995097764 433 -102.995097764 c 4
 432.945947901 -102.995097764 429.393980972 -102.873768165 427.596151961 -102.873768165 c 4
457.021499999 133.306583832 m 0
 456.595314258 132.521826626 420.131070483 68.3232595616 413.256909972 55.4641645705 c 1
 480.649613913 66.668265325 546.253420016 68.1782444656 631.907699173 69.9570229835 c 1
 706.683209735 80.801373248 787.624921218 78.4653072927 861.82945652 83.98011105 c 1
 849.492503471 107.753116416 843.95582791 118.422154167 833.542939051 131.299303338 c 0
 824.906244548 141.979913203 720.622762715 331.340692597 629.584569577 465.969497129 c 1
 626.672246124 461.391230829 626.200000002 460.64884471 623.725778755 458.41840849 c 0
 535.963186049 379.303064294 537.880589962 238.215948174 457.021499999 133.306583832 c 0
370 -3.99509776351 m 0
 356.187031342 -3.99509776351 345.004902236 7.18716402497 345.004902236 21 c 0
 345.004902236 23.3839444608 345.343365342 25.7678889215 346.020291553 28.0731910376 c 0
 354.082000686 55.5276976367 375.011336085 90.5042311719 393.745627137 123.032306861 c 0
 393.971961903 123.425288607 415.602986946 161.504183009 416.289467762 162.381970561 c 0
 491.154323676 258.109975154 488.843997914 401.480254151 587.583993817 493.120836333 c 0
 591.725609165 499.615593817 594.732980084 503.581645931 598.827494962 510.273410093 c 1
 546.461873513 583.652079851 495.829492582 643.877340926 444.473911909 694.944948281 c 1
 391.173408859 601.534424147 348.996891563 500.833939784 306.578648201 399.361676206 c 0
 306.067325705 398.138498465 263.391082355 296.070587984 254.639330714 277.38441556 c 2
 143.639330714 40.3844155599 l 1
 143.639330714 40.3844155599 98.3606677952 61.5908779394 98.3606692864 61.6155844401 c 2
 209.241854144 298.361898055 l 2
 226.725695284 338.002702322 243.552565088 378.251563512 260.45433941 418.683725785 c 0
 307.001848307 530.033954302 354.062634285 642.845167879 417.596738565 747.927930716 c 0
 419.148982825 750.495278085 425.785566596 759.995097764 439 759.995097764 c 0
 445.151234985 759.995097764 451.30246997 757.741669672 456.102706019 753.234813488 c 0
 605.103185498 613.340915491 707.521624847 445.055781947 831.595746706 232.840275251 c 0
 845.706905028 208.704644682 859.688436197 184.790987556 873.631979832 161.232782543 c 0
 897.868408413 130.640934967 906.720717925 99.8943055474 923.636716092 78.4758942761 c 0
 927.20897054 73.9528378075 928.995097764 68.4764189038 928.995097764 63 c 0
 928.995097764 50.3482507916 919.58140765 39.7646099559 907.13761009 38.2011676909 c 0
 818.951003807 27.1213773932 722.265871535 32.7649417948 637.675612757 20.2746753136 c 0
 621.178437452 17.8387669866 480.148665629 23.0287703632 376.150781905 -3.2314886518 c 0
 374.134713149 -3.74056139294 372.067356574 -3.99509776351 370 -3.99509776351 c 0
EndSplineSet
EndChar
StartChar: en.sitelen_kalama_pona
Encoding: 65705 -1 3
Width: 1000
Flags: HW
LayerCount: 2
Fore
SplineSet
279.546051852 -151.289844939 m 1
 280.327374112 -159.200972301 280.327374112 -159.200972301 280.327374112 -161.930955558 c 0
 280.327374112 -185.671864982 261.881041145 -191.16745803 253.695308622 -191.16745803 c 0
 249.282568126 -191.16745803 245.832342541 -190.100857553 243.367278795 -189.073965564 c 1
 262.587687878 -142.935195269 l 1
 236.853489795 -148.170133332 l 1
 230.332490162 -161.987423008 l 1
 230.214393752 -158.861883811 229.250274896 -153.726243931 229.250274896 -147.813686323 c 0
 229.250274896 -144.651476557 229.412456606 -137.133578397 233.869448837 -130.518203726 c 0
 248.97865275 -102.947462922 288.94179207 -36.8841143548 371.436197808 -36.8841143548 c 0
 372.515755044 -36.8841143548 373.600791476 -36.8956426475 374.69130023 -36.9188621615 c 0
 379.550677534 -35.9680626725 384.391294529 -35.4878523113 389.136129538 -35.4878523113 c 0
 427.39028181 -35.4878523113 445.038366039 -65.2505001204 458.698960141 -88.2884370342 c 0
 472.692589305 -111.888021611 479.281489307 -119.814831514 490.812583054 -119.814831514 c 0
 493.657681861 -119.814831514 497.303989965 -119.327824458 502.160024531 -117.953040152 c 0
 502.905877961 -117.741882761 503.659650329 -117.565995115 504.418696224 -117.425377215 c 0
 532.919411138 -112.145445242 556.886611903 -76.0435957087 567.387862482 -45.7784738168 c 0
 567.387862482 -45.7784738168 614.629911948 -62.1702994005 614.612137518 -62.2215261832 c 0
 609.277836556 -77.595244542 579.865701426 -153.427945818 514.736609659 -166.352980432 c 0
 506.558378482 -168.574068166 498.51917957 -169.707291693 490.784977871 -169.707291693 c 0
 423.18429946 -169.707291693 414.234327572 -85.3664953867 389.314308946 -85.3664953867 c 0
 384.738288406 -85.3664953867 382.328663211 -86.9950977635 377 -86.9950977635 c 0
 375.81444448 -86.9950977635 374.263831367 -86.8640244488 370.989154072 -86.8640244488 c 0
 343.398186901 -86.8640244488 310.526653361 -96.7261492966 279.546051852 -151.289844939 c 1
312.04983268 64.5535949397 m 0
 394.835678569 64.5535949397 484.551421486 80.8479240046 572.9843839 80.8479240046 c 0
 589.306519441 80.8479240046 605.663855287 80.2986899651 622.014394058 78.9950977635 c 1
 623.203502155 78.9950977635 l 1
 576.398411976 157.415768266 526.574918923 235.689139357 474.638455891 313.219743873 c 1
 444.441739459 248.459676954 400.4847696 191.531061217 358.618329283 136.843271314 c 0
 339.950227083 112.458173292 321.629446916 88.4988219984 304.901877921 64.5956168205 c 1
 307.276540584 64.5673409942 309.659267538 64.5535949397 312.04983268 64.5535949397 c 0
739.755719204 716.304445612 m 1
 730.456166743 716.329485406 709.104549987 708.219986101 690.850318978 708.219986101 c 0
 683.12290829 708.219986101 672.754325802 709.627866668 663.577234098 716.363296459 c 1
 661.096738458 716.570022263 658.460256901 716.666901058 655.688802911 716.666901058 c 0
 621.213537336 716.666901058 564.308600481 701.004902236 545 701.004902236 c 0
 543.851687199 701.004902236 527.2530569 701.30079033 511.5276606 701.30079033 c 0
 477.644907323 701.30079033 451.604582508 701.30079033 401.871039107 691.480817068 c 0
 358.789360479 682.974265891 315.057388541 681.994941629 276.612401059 676.013093796 c 1
 424.595839831 480.815245593 567.319890536 274.26298975 688.596093396 66.6034432676 c 0
 690.862096308 62.7233981646 691.995097764 58.3616990823 691.995097764 54 c 0
 691.995097764 40.1870313421 680.812835975 29.0049022365 667 29.0049022365 c 2
 621 29.0049022365 l 2
 618.006482577 29.0049022365 602.356394007 30.8251421899 573.581674955 30.8251421899 c 0
 487.27829932 30.8251421899 397.970650275 14.5533632372 312.49764833 14.5533632372 c 0
 304.608696723 14.5533632372 296.734185245 14.6905509037 288.878716358 14.9905239602 c 0
 288.819727255 14.9905239602 288.760217154 14.9851924263 288.70019852 14.9851924263 c 0
 286.842045701 14.9296673393 284.603266378 14.8302505857 282.036435619 14.8302505857 c 0
 261.015119332 14.8302505857 253.418990551 21.2919326538 248.896734185 25.8141890204 c 0
 242.729915663 31.9810075427 239.905681037 40.8191415135 239.905681037 48.811913116 c 0
 239.905681037 55.4984983403 241.807224976 60.1433495355 243.924832843 63.4555491182 c 0
 307.312062617 162.600985459 400.410283064 254.584904784 441.218918656 362.586669571 c 1
 368.073663466 469.528223872 291.242164248 574.800881962 213.132394553 676.821015367 c 0
 209.714066342 681.285735996 208.004902236 686.642867998 208.004902236 692 c 0
 208.004902236 692.809599282 208.204914639 710.65430443 225.775364406 715.934717296 c 0
 280.292933604 732.318775623 336.8766965 729.654417277 391.866499438 740.467466571 c 0
 432.781355595 749.459834763 470.463468818 751.302797853 510.985066087 751.302797853 c 0
 521.758093128 751.302797853 532.731817602 751.172535468 544.020343698 751.011724897 c 0
 574.884546947 754.009038422 616.179578913 766.94306989 653.355909884 766.94306989 c 0
 662.229459019 766.94306989 671.100839685 766.240009886 679.841657421 764.524966165 c 0
 684.28555408 763.653025199 688.53769228 761.568209395 692.06459781 758.270518753 c 0
 703.483596551 758.893671655 721.010392828 766.316671335 739.178076898 766.316671335 c 0
 744.434830099 766.316671335 761.061291617 765.953288098 772.543194779 751.593578737 c 1
 733.491256179 720.367976184 l 1
 735.056769743 718.490825216 737.702645779 717.694036719 739.755719204 716.304445612 c 1
EndSplineSet
EndChar
StartChar: i.sitelen_kalama_pona
Encoding: 65706 -1 4
Width: 1000
Flags: HW
LayerCount: 2
Fore
SplineSet
478.599159827 644.954498887 m 1
 490.389173533 675.271676987 l 1
 508.130715355 732.438867304 l 1
 508.130715355 732.438867304 555.88692523 717.617974584 555.869284645 717.561132696 c 0
 537.610826467 658.728323013 537.610826467 658.728323013 537.295110575 657.916482149 c 2
 523.295110575 621.916482149 l 2
 521.400840173 617.045501113 521.400840173 617.045501113 507.67766953 603.32233047 c 1
 472.32233047 638.67766953 l 1
 478.599159827 644.954498887 l 1
461.004902236 753 m 1
 510.995097764 753 l 1
 510.995097764 741 l 2
 510.995097764 738.982997597 510.995097764 738.982997597 500.883406388 676.290511067 c 1
 498.956327172 641.603085183 l 1
 449.042515046 644.376074746 l 1
 451.116593612 681.709488933 451.116593612 681.709488933 451.325719807 683.006071343 c 2
 461.004902236 743.017002403 l 1
 461.004902236 753 l 1
562.371339146 670.41249459 m 0
 562.371339146 631.577365531 541.798958976 596.518726469 504.33681177 596.518726469 c 0
 457.216221898 596.518726469 422.033683821 632.570182941 420.096889685 668.457166077 c 0
 418.202264472 676.302954828 417.313141974 684.143193119 417.313141974 691.854922269 c 0
 417.313141974 724.433088596 433.172545688 754.559706731 455.801003863 773.155440519 c 0
 455.842394706 774.32153436 455.867945994 774.980138027 455.867945994 774.980138027 c 1
 457.996047104 774.90675523 l 1
 471.41901395 785.300747138 487.791853757 792.292531785 506.070503922 792.977944281 c 1
 506.811256764 773.223472138 l 1
 518.124074895 772.833374961 525.859243797 772.566644999 538.13308904 760.292799756 c 0
 543.112926005 755.312962791 562.688746371 732.965931338 562.688746371 689.421835669 c 0
 562.688746371 685.456777961 562.497361889 681.528263069 562.113409729 677.668146288 c 0
 562.283401019 675.288550596 562.371339146 672.866766178 562.371339146 670.41249459 c 0
512.004902236 678 m 0
 512.004902236 681.137470521 512.629570933 682.618065887 512.629570933 688.721211285 c 0
 512.629570933 701.436986377 509.719134325 715.065612234 504.078372373 723.297575133 c 1
 478.030401385 724.195781029 l 1
 471.401242891 714.766561207 467.424878081 702.961250176 467.424878081 691.306615495 c 0
 467.424878081 681.099063865 469.995396264 678.680518441 469.994939294 671.895796167 c 0
 469.994939294 659.725641331 488.520412231 647.173035521 499.419207613 646.99160886 c 0
 502.4639914 646.940923905 504.002836168 646.396540834 505.064246113 646.396540834 c 0
 506.612130875 646.396540834 512.333363577 655.409676814 512.333363577 671.073140744 c 0
 512.333363577 672.465902995 512.004902236 677.930653575 512.004902236 678 c 0
392.177183621 89.4858916058 m 0
 394.590733525 89.4858916058 440.052608315 88.9158291726 440.536232402 88.9158291726 c 0
 545.861365047 88.9158291726 656.559643081 99.9755685495 760.537959852 122.307338292 c 1
 713.809707099 242.658045302 588.949762157 325.892214315 520.96107947 445.591100177 c 1
 441.539903213 326.219071512 341.81812863 211.972241802 269.778960539 89.4797505902 c 1
 282.927275671 88.8163432026 296.19317824 88.5929057773 309.68185102 88.5929057773 c 0
 336.824881908 88.5929057773 363.772285227 89.4858916058 392.177183621 89.4858916058 c 0
392.24309465 39.4929607234 m 0
 363.886583679 39.4929607234 336.107239758 38.5805338669 309.046341625 38.5805338669 c 0
 281.743114793 38.5805338669 254.164003316 39.4974372967 225.734506203 43.2175683316 c 0
 213.350593848 44.8380604742 204.004902236 55.3946624088 204.004902236 68 c 0
 204.004902236 72.072261677 204.99252348 76.1445233541 206.967765966 79.8247949436 c 0
 291.310454254 236.972082763 421.079810314 374.163325893 509.593751664 520.923006884 c 1
 537.542877162 504.066284122 l 1
 546.081067651 507.615654694 l 1
 547.738283713 503.62913761 549.480478019 499.68064612 551.302922127 495.767303062 c 1
 552.417247114 495.095229534 l 2
 552.267364237 494.846717684 552.117373783 494.598242134 551.967276158 494.349802758 c 0
 616.044350519 358.495081038 772.245504787 270.005834447 817.057213208 110.803653695 c 0
 817.682469578 108.582310631 817.995097764 106.291155316 817.995097764 104 c 0
 817.995097764 92.2854375179 809.917615091 82.3094362617 798.778563715 79.6775503706 c 0
 683.007862688 52.3237601461 558.796503818 38.9251224119 440.632216226 38.9251224119 c 0
 440.148291694 38.9251224119 393.010857335 39.4929607234 392.24309465 39.4929607234 c 0
EndSplineSet
EndChar
StartChar: in.sitelen_kalama_pona
Encoding: 65707 -1 5
Width: 1000
Flags: HW
LayerCount: 2
Fore
SplineSet
273.157311315 -131.568438835 m 1
 297.786385972 -103.374820314 355.521795512 -48.8667669956 433.753051948 -48.8667669956 c 0
 469.224206124 -48.8667669956 487.990165317 -65.827441292 511.70464348 -91.4001418628 c 0
 524.835603144 -105.560019107 535.59039653 -116.877808237 547.715827451 -116.877808237 c 0
 553.676929075 -116.877808237 556.400926448 -115.004902236 562 -115.004902236 c 0
 566.489483384 -115.004902236 568.261896427 -116.134533089 572.758856546 -116.134533089 c 0
 595.002582992 -116.134533089 612.631046975 -74.0165518757 639.840195976 -50.923307188 c 1
 638.666942595 -79.333057405 l 1
 669.67766953 -48.3223304703 l 1
 676.159512277 -54.8041732174 680.995097764 -59.6397587042 680.995097764 -70 c 0
 680.995097764 -73.64387248 680.085225734 -82.3501427539 672.159804024 -89.076692812 c 0
 659.605330889 -99.7320617115 646.597353778 -122.336592466 629.003679938 -139.930266306 c 0
 615.607619843 -153.326326401 596.22226966 -165.989177191 571.724345499 -165.989177191 c 0
 568.75039341 -165.989177191 565.701097269 -165.802564639 562.578025536 -165.407997223 c 0
 557.796442752 -166.249580991 553.099258042 -166.646954024 548.525548962 -166.646954024 c 0
 513.292856504 -166.646954024 492.705270442 -144.446163004 475.021831554 -125.377082731 c 0
 455.103058333 -103.897511482 448.306288193 -98.8636421994 434.038342437 -98.8636421994 c 0
 389.395226121 -98.8636421994 344.489963224 -125.914546787 310.814120163 -164.464264383 c 1
 273.157311315 -131.568438835 l 1
478.599159827 644.954498887 m 1
 490.389173533 675.271676987 l 1
 508.130715355 732.438867304 l 1
 508.130715355 732.438867304 555.88692523 717.617974584 555.869284645 717.561132696 c 0
 537.610826467 658.728323013 537.610826467 658.728323013 537.295110575 657.916482149 c 2
 523.295110575 621.916482149 l 2
 521.400840173 617.045501113 521.400840173 617.045501113 507.67766953 603.32233047 c 1
 472.32233047 638.67766953 l 1
 478.599159827 644.954498887 l 1
461.004902236 753 m 1
 510.995097764 753 l 1
 510.995097764 741 l 2
 510.995097764 738.982997597 510.995097764 738.982997597 500.883406388 676.290511067 c 1
 498.956327172 641.603085183 l 1
 449.042515046 644.376074746 l 1
 451.116593612 681.709488933 451.116593612 681.709488933 451.325719807 683.006071343 c 2
 461.004902236 743.017002403 l 1
 461.004902236 753 l 1
562.371339146 670.41249459 m 0
 562.371339146 631.577365531 541.798958976 596.518726469 504.33681177 596.518726469 c 0
 457.216221898 596.518726469 422.033683821 632.570182941 420.096889685 668.457166077 c 0
 418.202264472 676.302954828 417.313141974 684.143193119 417.313141974 691.854922269 c 0
 417.313141974 724.433088596 433.172545688 754.559706731 455.801003863 773.155440519 c 0
 455.842394706 774.32153436 455.867945994 774.980138027 455.867945994 774.980138027 c 1
 457.996047104 774.90675523 l 1
 471.41901395 785.300747138 487.791853757 792.292531785 506.070503922 792.977944281 c 1
 506.811256764 773.223472138 l 1
 518.124074895 772.833374961 525.859243797 772.566644999 538.13308904 760.292799756 c 0
 543.112926005 755.312962791 562.688746371 732.965931338 562.688746371 689.421835669 c 0
 562.688746371 685.456777961 562.497361889 681.528263069 562.113409729 677.668146288 c 0
 562.283401019 675.288550596 562.371339146 672.866766178 562.371339146 670.41249459 c 0
512.004902236 678 m 0
 512.004902236 681.137470521 512.629570933 682.618065887 512.629570933 688.721211285 c 0
 512.629570933 701.436986377 509.719134325 715.065612234 504.078372373 723.297575133 c 1
 478.030401385 724.195781029 l 1
 471.401242891 714.766561207 467.424878081 702.961250176 467.424878081 691.306615495 c 0
 467.424878081 681.099063865 469.995396264 678.680518441 469.994939294 671.895796167 c 0
 469.994939294 659.725641331 488.520412231 647.173035521 499.419207613 646.99160886 c 0
 502.4639914 646.940923905 504.002836168 646.396540834 505.064246113 646.396540834 c 0
 506.612130875 646.396540834 512.333363577 655.409676814 512.333363577 671.073140744 c 0
 512.333363577 672.465902995 512.004902236 677.930653575 512.004902236 678 c 0
392.177183621 89.4858916058 m 0
 394.590733525 89.4858916058 440.052608315 88.9158291726 440.536232402 88.9158291726 c 0
 545.861365047 88.9158291726 656.559643081 99.9755685495 760.537959852 122.307338292 c 1
 713.809707099 242.658045302 588.949762157 325.892214315 520.96107947 445.591100177 c 1
 441.539903213 326.219071512 341.81812863 211.972241802 269.778960539 89.4797505902 c 1
 282.927275671 88.8163432026 296.19317824 88.5929057773 309.68185102 88.5929057773 c 0
 336.824881908 88.5929057773 363.772285227 89.4858916058 392.177183621 89.4858916058 c 0
392.24309465 39.4929607234 m 0
 363.886583679 39.4929607234 336.107239758 38.5805338669 309.046341625 38.5805338669 c 0
 281.743114793 38.5805338669 254.164003316 39.4974372967 225.734506203 43.2175683316 c 0
 213.350593848 44.8380604742 204.004902236 55.3946624088 204.004902236 68 c 0
 204.004902236 72.072261677 204.99252348 76.1445233541 206.967765966 79.8247949436 c 0
 291.310454254 236.972082763 421.079810314 374.163325893 509.593751664 520.923006884 c 1
 537.542877162 504.066284122 l 1
 546.081067651 507.615654694 l 1
 547.738283713 503.62913761 549.480478019 499.68064612 551.302922127 495.767303062 c 1
 552.417247114 495.095229534 l 2
 552.267364237 494.846717684 552.117373783 494.598242134 551.967276158 494.349802758 c 0
 616.044350519 358.495081038 772.245504787 270.005834447 817.057213208 110.803653695 c 0
 817.682469578 108.582310631 817.995097764 106.291155316 817.995097764 104 c 0
 817.995097764 92.2854375179 809.917615091 82.3094362617 798.778563715 79.6775503706 c 0
 683.007862688 52.3237601461 558.796503818 38.9251224119 440.632216226 38.9251224119 c 0
 440.148291694 38.9251224119 393.010857335 39.4929607234 392.24309465 39.4929607234 c 0
EndSplineSet
EndChar
StartChar: jen.sitelen_kalama_pona
Encoding: 65775 -1 73
Width: 1000
Flags: HW
LayerCount: 2
Fore
SplineSet
427.596151961 -102.873768165 m 4
 389.779468282 -102.873768165 353.138612741 -125.730538387 345.612487023 -168.371962719 c 5
 345.612487023 -168.371962719 296.377959109 -159.682167466 296.387512977 -159.628037281 c 4
 307.819211251 -94.8584712184 363.427971715 -52.8824965963 427.549968361 -52.8824965963 c 4
 429.19952111 -52.8824965963 430.852431027 -52.9104168298 432.507959406 -52.9664281243 c 4
 434.363177239 -52.83949091 436.190388279 -52.7778623173 437.989202433 -52.7778623173 c 4
 480.357612839 -52.7778623173 501.448149402 -83.9291767625 516.733337162 -106.50582809 c 4
 531.6695121 -128.566977683 539.398519397 -138.04834047 553.117229355 -138.04834047 c 4
 564.331744132 -138.04834047 570.538999821 -133.004902236 579 -133.004902236 c 4
 582.079628349 -133.004902236 583.377544822 -133.564932407 587.729168479 -133.564932407 c 4
 603.392020214 -133.564932407 618.745229273 -125.007785077 637.88780229 -109.679789115 c 5
 684.619178838 -59.054131188 l 5
 721.380821162 -92.945868812 l 5
 672.135448863 -146.295022136 672.135448863 -146.295022136 670.715950197 -147.444716548 c 4
 649.723355353 -164.447246783 622.724838314 -183.581690821 588.060283317 -183.581690821 c 4
 586.008963685 -183.581690821 583.930798869 -183.514685196 581.825444851 -183.376267015 c 4
 571.830961615 -186.396928139 562.138422506 -187.941470393 552.89396868 -187.941470393 c 4
 511.477288616 -187.941470393 490.962971335 -157.641248 475.301303791 -134.508525465 c 4
 458.847103235 -110.205209429 451.656875357 -102.705510056 439.146771053 -102.705510056 c 4
 436.298741369 -102.705510056 435.162833171 -102.995097764 433 -102.995097764 c 4
 432.945947901 -102.995097764 429.393980972 -102.873768165 427.596151961 -102.873768165 c 4
263.202291756 652.335671082 m 0
 263.202291756 588.096583704 311.496751659 538.634627822 366.325517989 521.904166821 c 1
 366.325517989 521.904166821 351.731924735 474.078305095 351.674482011 474.095833179 c 0
 274.125396605 497.759177002 213.216325383 567.516083779 213.216325383 652.426278979 c 0
 213.216325383 658.256208846 213.461104111 670.80169626 215.449479765 676.396991645 c 0
 238.59573256 741.530620293 315.713219847 756.042512287 377.903764669 767.745467106 c 0
 392.947070677 770.576301456 407.01668157 773.245681077 418.85306676 776.232460144 c 0
 420.817994419 776.728287604 422.831606737 776.982344074 424.84642535 776.994629553 c 2
 752.848762008 778.994643801 l 1
 753.15357465 729.005370447 l 1
 428.141173911 727.023587516 l 1
 393.585819412 718.632206875 348.867394203 713.450932143 314.487204088 701.245644274 c 0
 277.38270928 688.073202853 267.588879867 671.84644902 263.584610262 662.2798714 c 0
 263.328184894 658.932359472 263.202291756 655.61676307 263.202291756 652.335671082 c 0
542.515737359 664.129025478 m 0
 542.938206539 664.129025478 584.450134834 665.36194808 584.744660908 665.36194808 c 0
 605.270360957 665.36194808 628.278261433 662.84479832 652.571184723 650.16646481 c 0
 654.87276854 648.965281778 665.995097764 642.414713352 665.995097764 628 c 2
 665.995097764 622 l 1
 619.638475697 622 l 1
 629.428815277 605.83353519 l 1
 614.657967536 613.542353584 601.625880601 615.392987156 585.724585569 615.392987156 c 0
 585.293591522 615.392987156 545.125786315 614.123362727 542.643885256 614.123362727 c 0
 536.977939913 614.123362727 531.053106836 614.291201763 524.868569139 614.754906906 c 1
 467.432570791 600.220685333 394.548723068 539.413504332 393.931801847 474.619752966 c 1
 414.962575885 420.876606658 488.044688102 391.017175583 537.683376277 341.378487408 c 0
 564.56042517 314.501438515 586.020583071 279.355309591 586.020583071 232.561208361 c 0
 586.020583071 220.647680661 578.604698497 186.884465256 553.159321829 161.439088588 c 0
 511.820344977 120.100111737 445.476838153 117.383239893 385.372012309 114.921851931 c 0
 365.183258694 114.095090446 346.178626351 113.272752515 330.223776943 111.212144998 c 0
 329.110453687 111.068356598 325.420704931 110.767509439 320.818940083 110.767509439 c 0
 293.474373106 110.767509439 268.842287184 121.145780705 249.933936248 128.403875273 c 0
 247.927553441 129.174038478 245.984263626 129.919902478 244.113182564 130.629352684 c 1
 244.113182564 130.629352684 261.842290852 177.38753028 261.886817436 177.370647316 c 0
 284.839301555 168.667847135 305.585418924 160.801626074 321.89703769 160.801626074 c 0
 322.512523514 160.801626074 336.217031933 162.941292739 383.31102161 164.869866321 c 0
 465.860517247 168.250399114 523.682791277 173.700874055 536.032314525 232.616641766 c 0
 536.032375264 232.664275931 536.032405626 232.711888122 536.032405626 232.759478373 c 0
 536.032405626 283.92059875 500.017966353 312.009886453 447.252389594 350.172601036 c 0
 406.131996775 379.912933863 362.677800784 411.34119033 345.357594659 461.866235014 c 0
 344.119297634 465.478490668 343.933809876 468.200653131 343.933809876 474.032919163 c 0
 343.933809876 567.131939766 438.849587714 647.070281318 517.595044664 664.407710061 c 0
 519.37362878 664.799301863 521.18681439 664.995097764 523 664.995097764 c 0
 523.195349452 664.995097764 533.136412368 664.129025478 542.515737359 664.129025478 c 0
EndSplineSet
EndChar
StartChar: ji.sitelen_kalama_pona
Encoding: 65776 -1 74
Width: 1000
Flags: HW
LayerCount: 2
Fore
SplineSet
463 681.004902236 m 0
 450.725868051 681.004902236 395.367070676 698.681565658 395.367070676 737.893359333 c 0
 395.367070676 747.29667451 398.916452209 755.783823811 403.574696119 761.979007138 c 1
 401.786940322 767.938193127 l 1
 413.638546838 771.493675081 l 1
 420.120839343 775.963543421 428.562346199 778.995097705 434.999999948 778.995097705 c 0
 435.854512414 778.995097705 436.70902488 778.951611064 437.559915556 778.864637781 c 0
 438.474538328 779.12859486 439.917707152 779.487976525 442.587605022 779.487976525 c 0
 451.274486167 779.487976525 456.093238152 776.69617764 458.346907809 775.226190869 c 0
 468.231082464 774.357753561 476.859504165 771.544823777 484.182580912 764.221747031 c 0
 491.408791429 756.99553649 494.177090116 747.238766414 494.177090116 738.430815455 c 0
 494.177090116 737.36242655 494.136359413 736.307997869 494.057913446 735.273739033 c 0
 494.161517704 733.1128052 494.271986792 730.635463577 494.271986792 727.92104335 c 0
 494.271986792 703.032035935 482.626611106 681.004902236 463 681.004902236 c 0
519.200660502 657.382966161 m 0
 563.418246893 657.382966161 589.995097764 634.659075788 589.995097764 614 c 2
 589.995097764 606 l 1
 541.733082594 606 l 1
 542.003000964 604.619167116 542.273717865 603.239132765 542.946499337 602.261162982 c 1
 540.805808943 603.721322322 532.408924724 607.34230952 518.534328554 607.34230952 c 0
 517.383856788 607.34230952 516.279121296 607.313426886 515.243600479 607.256814826 c 0
 463.419853188 593.054903341 389.458685146 546.548965967 389.458685146 481.049156224 c 0
 389.458685146 445.87572699 424.146128058 415.773680247 455.231203862 388.797797151 c 0
 494.332131305 354.865692424 540.218856278 315.044817084 540.218856278 249.182376973 c 0
 540.218856278 233.063461503 536.736681215 192.894679056 505.047038277 161.205036118 c 0
 474.372652967 130.530650808 423.974027343 111.68656908 335.159160693 111.68656908 c 0
 319.562136912 111.68656908 306.627635676 111.803049306 257.340901039 115.059611033 c 1
 257.340901039 115.059611033 260.634550782 164.942009842 260.659098961 164.940388967 c 0
 291.877444858 162.877674948 312.693798373 161.756632776 335.52049968 161.756632776 c 0
 401.151380168 161.756632776 490.24044879 171.904445597 490.24044879 249.540801783 c 0
 490.24044879 290.939735302 462.149796901 316.589163915 422.492467296 351.00411899 c 0
 387.423509196 381.437247735 349.442994319 414.397049271 340.388612919 465.621809831 c 0
 340.361773078 465.773655042 339.469076456 471.615737818 339.469076456 481.014272424 c 0
 339.469076456 570.530076319 426.72709217 635.884820754 504.668598007 656.185163602 c 0
 506.019179999 656.536930959 510.201441914 657.382966161 519.200660502 657.382966161 c 0
EndSplineSet
EndChar
StartChar: ka.sitelen_kalama_pona
Encoding: 65752 -1 50
Width: 1000
Flags: HW
LayerCount: 2
Fore
SplineSet
235.77356096 156.691631831 m 0
 235.77356096 148.214492045 235.995097764 143.043736281 235.995097764 142 c 2
 235.995097764 96 l 1
 186.004902236 96 l 1
 186.004902236 141.619656919 l 2
 185.851516945 146.763006954 185.778436865 151.888394564 185.778436865 156.996163559 c 0
 185.778436865 210.907834589 193.919893292 262.856710978 201.707080839 313.247063846 c 0
 204.729108549 332.802396468 207.714252035 352.134032332 210.217547584 371.265335238 c 0
 210.905717302 376.524635656 212.270138341 375.912534058 212.270138341 385.07464336 c 0
 212.270138341 385.255659918 211.694936456 402.582785876 211.694936456 403.167157995 c 0
 211.694936456 410.442918948 211.694936456 410.442918948 215.392561377 432.056892453 c 0
 217.732488746 445.734625929 220.198175289 460.160322751 222.057178876 472.254458408 c 0
 223.088452102 507.625401787 228.158241437 539.516348185 228.158241437 572.184136059 c 0
 228.158241437 576.991679139 228.004902236 581.901829384 228.004902236 582 c 0
 228.004902236 586.364673555 229.452111297 589.130660466 229.452111297 610.518828428 c 0
 229.452111297 611.058097688 228.500200318 663.902405333 228.500200318 664.437352277 c 0
 228.500200318 695.234950957 228.500200318 779.463381513 303.90574627 788.804241341 c 0
 304.932891735 788.931478956 305.966445868 788.995097764 307 788.995097764 c 0
 417.897806701 788.995097764 500.436058832 703.496475553 559.08626231 639.269076749 c 1
 572.67766953 625.67766953 l 1
 537.32233047 590.32233047 l 1
 522.912726237 604.731934704 522.912726237 604.731934704 522.52338786 605.158489891 c 0
 464.36444482 668.876839538 395.620413856 737.614921279 308.582524294 738.98693352 c 0
 288.867133541 735.96915046 278.571425387 720.342872716 278.571425387 663.14310223 c 0
 278.571425387 643.892674718 279.531015404 625.527644475 279.531015404 609.54492628 c 0
 279.531015404 599.682062105 279.183106408 590.026690612 278.041905305 580.735984149 c 0
 278.11783128 577.777087205 278.153074205 574.840229149 278.153074205 571.924399349 c 0
 278.153074205 535.952882849 272.859079667 503.533281857 271.986900207 469.357453211 c 0
 271.824191127 462.981795595 261.71464988 410.551937475 261.71464988 403.414105599 c 0
 261.71464988 397.223150425 262.365726785 390.861019534 262.365726785 384.281708423 c 0
 262.365726785 377.948978018 261.803008094 370.58836713 259.505477173 362.631100459 c 0
 256.963081811 343.440485605 254.022792747 324.428019583 251.107247195 305.561723455 c 0
 243.29693295 255.021719322 235.77356096 205.601657653 235.77356096 156.691631831 c 0
543.809198668 272.024468768 m 2
 582.222408865 240.013460271 l 1
 484.073798943 122.235128365 l 1
 477.362307031 108.812144542 l 1
 432.632331415 131.17713235 l 1
 436.418574213 138.09305868 439.20693569 145.829040926 443.777591136 151.986539729 c 2
 443.777591136 151.986539729 543.777591136 271.986539729 543.809198668 272.024468768 c 2
733 160.995097764 m 0
 733.146055468 160.995097764 740.709064375 160.691929532 747.602399998 160.691929532 c 0
 757.575284637 160.691929532 797.070694399 160.694616034 818.256867126 176.193826524 c 0
 818.256867126 176.193826524 847.782352493 135.834865451 847.743132874 135.806173476 c 0
 833.578377902 125.443635528 805.840763199 110.676895459 748.275893028 110.676895459 c 0
 742.852228765 110.676895459 737.675848119 110.804289491 732.832795053 110.991799303 c 0
 731.196797004 110.952218698 729.569646477 110.932578513 727.951357376 110.932578513 c 0
 665.320806614 110.932578513 582.676974331 140.741078404 527.276455857 270.47924761 c 0
 507.200752188 317.492978008 495.13674196 367.321875658 488.319219837 410.034439025 c 0
 488.284965241 410.24904802 487.393961081 417.75996313 487.393961081 431.747289541 c 0
 487.393961081 554.964096003 565.286919137 691.679546679 695.595971229 698.955930943 c 0
 696.063583634 698.982042157 696.531791817 698.995097764 697 698.995097764 c 2
 727 698.995097764 l 1
 727 649.004902236 l 1
 697.730781312 649.004902236 l 1
 592.349700151 642.627702015 537.41353914 521.792324348 537.41353914 430.93847736 c 0
 537.41353914 426.179304243 537.561644074 421.476013694 537.86056639 416.845787593 c 0
 548.855040406 348.767356181 591.531913904 160.919456215 727.727225089 160.919456215 c 0
 729.892921454 160.919456215 732.947266826 160.995097764 733 160.995097764 c 0
EndSplineSet
EndChar
StartChar: kan.sitelen_kalama_pona
Encoding: 65753 -1 51
Width: 1000
Flags: HW
LayerCount: 2
Fore
SplineSet
427.596151961 -102.873768165 m 4
 389.779468282 -102.873768165 353.138612741 -125.730538387 345.612487023 -168.371962719 c 5
 345.612487023 -168.371962719 296.377959109 -159.682167466 296.387512977 -159.628037281 c 4
 307.819211251 -94.8584712184 363.427971715 -52.8824965963 427.549968361 -52.8824965963 c 4
 429.19952111 -52.8824965963 430.852431027 -52.9104168298 432.507959406 -52.9664281243 c 4
 434.363177239 -52.83949091 436.190388279 -52.7778623173 437.989202433 -52.7778623173 c 4
 480.357612839 -52.7778623173 501.448149402 -83.9291767625 516.733337162 -106.50582809 c 4
 531.6695121 -128.566977683 539.398519397 -138.04834047 553.117229355 -138.04834047 c 4
 564.331744132 -138.04834047 570.538999821 -133.004902236 579 -133.004902236 c 4
 582.079628349 -133.004902236 583.377544822 -133.564932407 587.729168479 -133.564932407 c 4
 603.392020214 -133.564932407 618.745229273 -125.007785077 637.88780229 -109.679789115 c 5
 684.619178838 -59.054131188 l 5
 721.380821162 -92.945868812 l 5
 672.135448863 -146.295022136 672.135448863 -146.295022136 670.715950197 -147.444716548 c 4
 649.723355353 -164.447246783 622.724838314 -183.581690821 588.060283317 -183.581690821 c 4
 586.008963685 -183.581690821 583.930798869 -183.514685196 581.825444851 -183.376267015 c 4
 571.830961615 -186.396928139 562.138422506 -187.941470393 552.89396868 -187.941470393 c 4
 511.477288616 -187.941470393 490.962971335 -157.641248 475.301303791 -134.508525465 c 4
 458.847103235 -110.205209429 451.656875357 -102.705510056 439.146771053 -102.705510056 c 4
 436.298741369 -102.705510056 435.162833171 -102.995097764 433 -102.995097764 c 4
 432.945947901 -102.995097764 429.393980972 -102.873768165 427.596151961 -102.873768165 c 4
235.77356096 156.691631831 m 0
 235.77356096 148.214492045 235.995097764 143.043736281 235.995097764 142 c 2
 235.995097764 96 l 1
 186.004902236 96 l 1
 186.004902236 141.619656919 l 2
 185.851516945 146.763006954 185.778436865 151.888394564 185.778436865 156.996163559 c 0
 185.778436865 210.907834589 193.919893292 262.856710978 201.707080839 313.247063846 c 0
 204.729108549 332.802396468 207.714252035 352.134032332 210.217547584 371.265335238 c 0
 210.905717302 376.524635656 212.270138341 375.912534058 212.270138341 385.07464336 c 0
 212.270138341 385.255659918 211.694936456 402.582785876 211.694936456 403.167157995 c 0
 211.694936456 410.442918948 211.694936456 410.442918948 215.392561377 432.056892453 c 0
 217.732488746 445.734625929 220.198175289 460.160322751 222.057178876 472.254458408 c 0
 223.088452102 507.625401787 228.158241437 539.516348185 228.158241437 572.184136059 c 0
 228.158241437 576.991679139 228.004902236 581.901829384 228.004902236 582 c 0
 228.004902236 586.364673555 229.452111297 589.130660466 229.452111297 610.518828428 c 0
 229.452111297 611.058097688 228.500200318 663.902405333 228.500200318 664.437352277 c 0
 228.500200318 695.234950957 228.500200318 779.463381513 303.90574627 788.804241341 c 0
 304.932891735 788.931478956 305.966445868 788.995097764 307 788.995097764 c 0
 417.897806701 788.995097764 500.436058832 703.496475553 559.08626231 639.269076749 c 1
 572.67766953 625.67766953 l 1
 537.32233047 590.32233047 l 1
 522.912726237 604.731934704 522.912726237 604.731934704 522.52338786 605.158489891 c 0
 464.36444482 668.876839538 395.620413856 737.614921279 308.582524294 738.98693352 c 0
 288.867133541 735.96915046 278.571425387 720.342872716 278.571425387 663.14310223 c 0
 278.571425387 643.892674718 279.531015404 625.527644475 279.531015404 609.54492628 c 0
 279.531015404 599.682062105 279.183106408 590.026690612 278.041905305 580.735984149 c 0
 278.11783128 577.777087205 278.153074205 574.840229149 278.153074205 571.924399349 c 0
 278.153074205 535.952882849 272.859079667 503.533281857 271.986900207 469.357453211 c 0
 271.824191127 462.981795595 261.71464988 410.551937475 261.71464988 403.414105599 c 0
 261.71464988 397.223150425 262.365726785 390.861019534 262.365726785 384.281708423 c 0
 262.365726785 377.948978018 261.803008094 370.58836713 259.505477173 362.631100459 c 0
 256.963081811 343.440485605 254.022792747 324.428019583 251.107247195 305.561723455 c 0
 243.29693295 255.021719322 235.77356096 205.601657653 235.77356096 156.691631831 c 0
543.809198668 272.024468768 m 2
 582.222408865 240.013460271 l 1
 484.073798943 122.235128365 l 1
 477.362307031 108.812144542 l 1
 432.632331415 131.17713235 l 1
 436.418574213 138.09305868 439.20693569 145.829040926 443.777591136 151.986539729 c 2
 443.777591136 151.986539729 543.777591136 271.986539729 543.809198668 272.024468768 c 2
733 160.995097764 m 0
 733.146055468 160.995097764 740.709064375 160.691929532 747.602399998 160.691929532 c 0
 757.575284637 160.691929532 797.070694399 160.694616034 818.256867126 176.193826524 c 0
 818.256867126 176.193826524 847.782352493 135.834865451 847.743132874 135.806173476 c 0
 833.578377902 125.443635528 805.840763199 110.676895459 748.275893028 110.676895459 c 0
 742.852228765 110.676895459 737.675848119 110.804289491 732.832795053 110.991799303 c 0
 731.196797004 110.952218698 729.569646477 110.932578513 727.951357376 110.932578513 c 0
 665.320806614 110.932578513 582.676974331 140.741078404 527.276455857 270.47924761 c 0
 507.200752188 317.492978008 495.13674196 367.321875658 488.319219837 410.034439025 c 0
 488.284965241 410.24904802 487.393961081 417.75996313 487.393961081 431.747289541 c 0
 487.393961081 554.964096003 565.286919137 691.679546679 695.595971229 698.955930943 c 0
 696.063583634 698.982042157 696.531791817 698.995097764 697 698.995097764 c 2
 727 698.995097764 l 1
 727 649.004902236 l 1
 697.730781312 649.004902236 l 1
 592.349700151 642.627702015 537.41353914 521.792324348 537.41353914 430.93847736 c 0
 537.41353914 426.179304243 537.561644074 421.476013694 537.86056639 416.845787593 c 0
 548.855040406 348.767356181 591.531913904 160.919456215 727.727225089 160.919456215 c 0
 729.892921454 160.919456215 732.947266826 160.995097764 733 160.995097764 c 0
EndSplineSet
EndChar
